<svg xmlns="http://www.w3.org/2000/svg" xmlns:xlink="http://www.w3.org/1999/xlink" width="500" zoomAndPan="magnify" viewBox="0 0 375 374.999991" height="500" preserveAspectRatio="xMidYMid meet" version="1.0"><defs><clipPath id="fa4f6ab094"><path d="M 55.027344 16.59375 L 319.777344 16.59375 L 319.777344 288.09375 L 55.027344 288.09375 Z M 55.027344 16.59375 " clip-rule="nonzero"/></clipPath></defs><g clip-path="url(#fa4f6ab094)"><path fill="#ffffff" d="M 319.957031 157.976562 L 319.957031 159.347656 L 319.890625 160.714844 L 319.757812 163.453125 L 319.613281 166.195312 L 319.34375 168.929688 C 317.964844 183.523438 313.933594 197.886719 307.804688 211.308594 C 301.5625 224.699219 293.019531 237.023438 282.765625 247.761719 C 272.410156 258.390625 260.480469 267.625 247.191406 274.589844 C 233.890625 281.46875 219.25 286 204.308594 287.382812 C 196.851562 288.078125 189.347656 288.253906 181.917969 287.613281 C 174.488281 286.996094 167.125 285.746094 159.972656 283.824219 C 152.824219 281.867188 145.882812 279.285156 139.28125 276.085938 C 132.714844 272.816406 126.441406 269.035156 120.726562 264.578125 C 120.457031 264.367188 120.410156 263.976562 120.621094 263.710938 C 120.796875 263.484375 121.097656 263.414062 121.351562 263.519531 L 121.355469 263.523438 C 127.957031 266.351562 134.570312 268.902344 141.320312 270.863281 C 148.070312 272.828125 154.886719 274.335938 161.742188 275.339844 C 168.601562 276.308594 175.492188 276.796875 182.359375 276.785156 C 184.074219 276.785156 185.789062 276.71875 187.503906 276.695312 L 192.628906 276.371094 L 193.910156 276.292969 L 195.1875 276.15625 L 197.734375 275.886719 L 200.28125 275.609375 L 202.808594 275.210938 C 209.550781 274.210938 216.214844 272.769531 222.726562 270.800781 C 224.371094 270.367188 225.972656 269.789062 227.59375 269.277344 L 230.015625 268.484375 L 232.402344 267.574219 C 235.609375 266.429688 238.738281 265.078125 241.851562 263.6875 L 246.480469 261.496094 L 251.003906 259.085938 C 251.769531 258.699219 252.496094 258.246094 253.230469 257.808594 L 255.433594 256.488281 C 256.925781 255.640625 258.332031 254.664062 259.757812 253.714844 L 261.898438 252.285156 L 263.972656 250.757812 C 265.339844 249.722656 266.765625 248.753906 268.0625 247.621094 L 270.046875 245.976562 C 270.707031 245.425781 271.386719 244.898438 272.011719 244.304688 L 275.828125 240.824219 C 285.710938 231.234375 294.140625 220.058594 300.480469 207.722656 C 306.816406 195.40625 311.292969 182.023438 313.253906 168.179688 L 313.660156 165.589844 L 313.9375 162.980469 L 314.210938 160.371094 L 314.347656 159.0625 L 314.699219 152.5 C 314.703125 150.746094 314.761719 148.988281 314.726562 147.234375 C 314.625 140.214844 313.964844 133.183594 312.734375 126.238281 C 311.46875 119.300781 309.636719 112.453125 307.265625 105.773438 C 304.890625 99.097656 301.957031 92.601562 298.527344 86.355469 L 298.523438 86.351562 C 298.359375 86.054688 298.46875 85.679688 298.765625 85.515625 C 299.050781 85.359375 299.40625 85.457031 299.578125 85.726562 C 303.4375 91.792969 306.832031 98.183594 309.6875 104.828125 C 312.480469 111.496094 314.738281 118.40625 316.433594 125.46875 C 318.09375 132.539062 319.171875 139.757812 319.679688 147.035156 C 319.816406 148.851562 319.855469 150.675781 319.945312 152.5 Z M 123.992188 45.902344 L 128.515625 43.492188 L 133.144531 41.300781 C 136.257812 39.910156 139.386719 38.558594 142.59375 37.414062 L 144.980469 36.503906 L 147.402344 35.710938 C 149.027344 35.199219 150.625 34.621094 152.269531 34.1875 C 158.78125 32.21875 165.445312 30.777344 172.1875 29.777344 L 174.714844 29.378906 L 177.261719 29.101562 L 179.808594 28.832031 L 181.085938 28.695312 L 182.367188 28.617188 L 187.492188 28.292969 C 189.207031 28.269531 190.921875 28.203125 192.636719 28.203125 C 199.503906 28.191406 206.394531 28.679688 213.253906 29.648438 C 220.109375 30.652344 226.925781 32.160156 233.675781 34.125 C 240.425781 36.085938 247.039062 38.636719 253.640625 41.464844 L 253.644531 41.46875 C 253.898438 41.574219 254.199219 41.503906 254.375 41.277344 C 254.585938 41.007812 254.535156 40.621094 254.269531 40.410156 C 248.554688 35.953125 242.28125 32.171875 235.714844 28.902344 C 229.113281 25.703125 222.171875 23.121094 215.023438 21.164062 C 207.871094 19.242188 200.507812 17.992188 193.078125 17.375 C 185.648438 16.734375 178.144531 16.910156 170.6875 17.605469 C 155.746094 18.988281 141.105469 23.519531 127.804688 30.398438 C 114.515625 37.363281 102.585938 46.597656 92.230469 57.226562 C 81.976562 67.964844 73.433594 80.289062 67.191406 93.675781 C 61.0625 107.101562 57.03125 121.460938 55.652344 136.058594 L 55.382812 138.792969 L 55.238281 141.53125 L 55.105469 144.273438 L 55.039062 145.640625 L 55.039062 147.011719 L 55.046875 152.492188 C 55.140625 154.316406 55.179688 156.136719 55.316406 157.957031 C 55.820312 165.230469 56.902344 172.453125 58.558594 179.523438 C 60.253906 186.585938 62.511719 193.496094 65.308594 200.164062 C 68.164062 206.808594 71.558594 213.195312 75.414062 219.265625 C 75.589844 219.535156 75.945312 219.628906 76.230469 219.472656 C 76.527344 219.3125 76.632812 218.9375 76.472656 218.640625 L 76.46875 218.636719 C 73.039062 212.390625 70.105469 205.894531 67.726562 199.21875 C 65.359375 192.539062 63.527344 185.691406 62.257812 178.753906 C 61.03125 171.804688 60.371094 164.777344 60.269531 157.753906 C 60.230469 156 60.292969 154.242188 60.296875 152.492188 L 60.578125 147.238281 L 60.648438 145.929688 L 60.785156 144.621094 L 61.058594 142.011719 L 61.335938 139.402344 L 61.738281 136.8125 C 63.703125 122.964844 68.179688 109.582031 74.515625 97.265625 C 80.855469 84.933594 89.28125 73.753906 99.167969 64.164062 L 102.984375 60.6875 C 103.605469 60.09375 104.289062 59.566406 104.945312 59.011719 L 106.933594 57.367188 C 108.230469 56.238281 109.652344 55.265625 111.023438 54.234375 L 113.09375 52.707031 L 115.234375 51.277344 C 116.664062 50.328125 118.070312 49.347656 119.5625 48.5 L 121.765625 47.183594 C 122.5 46.742188 123.226562 46.289062 123.992188 45.902344 Z M 123.992188 45.902344 " fill-opacity="1" fill-rule="nonzero"/></g></svg>