<svg xmlns="http://www.w3.org/2000/svg" xmlns:xlink="http://www.w3.org/1999/xlink" width="500" zoomAndPan="magnify" viewBox="0 0 375 374.999991" height="500" preserveAspectRatio="xMidYMid meet" version="1.0"><defs><g/><clipPath id="2379908776"><path d="M 79.757812 0 L 295.007812 0 L 295.007812 305 L 79.757812 305 Z M 79.757812 0 " clip-rule="nonzero"/></clipPath></defs><g clip-path="url(#2379908776)"><path fill="#ffffff" d="M 293.828125 152.023438 C 289.777344 137.125 277.695312 126.476562 269.601562 113.796875 C 281.066406 114.777344 290.894531 125.601562 290.804688 137.128906 C 302.746094 104.933594 252.667969 88.359375 229.046875 82.617188 C 245.507812 76.769531 264.878906 81.230469 278.5 91.84375 C 262.695312 72.183594 238.371094 60.9375 213.039062 63.46875 C 212.128906 63.277344 207.25 64.746094 208.199219 63.074219 C 210.558594 57.792969 212.808594 52.148438 214.207031 46.605469 C 205.441406 62.71875 192.058594 76.367188 176.4375 85.859375 C 176.316406 84.789062 177.34375 84.160156 178.039062 83.527344 C 184.765625 78.667969 191.09375 73.332031 197.101562 67.613281 C 197.386719 67.277344 198.15625 66.878906 197.664062 66.441406 C 192.730469 67.664062 187.972656 69.625 183.039062 70.855469 C 183.777344 68.855469 185.320312 67.128906 186.589844 65.4375 C 203.992188 47.222656 220.996094 26.707031 219.691406 0 C 209.738281 31.792969 195.273438 40.972656 171.292969 61.117188 C 163.417969 68.765625 157.058594 77.460938 153.070312 87.757812 C 152.699219 88.710938 152.210938 89 151.316406 89.144531 C 150.390625 89.292969 150.46875 88.894531 150.65625 88.265625 C 151.464844 85.527344 152.15625 82.746094 153.082031 80.046875 C 157.605469 65.132812 169.863281 55.160156 178.0625 42.449219 C 185.753906 30.210938 189.601562 15.582031 186.890625 1.21875 C 181.265625 36.53125 162.085938 43.691406 141.515625 67.535156 C 135.8125 74.96875 131.714844 83.15625 129.9375 92.40625 C 129.699219 93.648438 128.847656 93.976562 127.949219 94.425781 C 127.285156 94.757812 127.085938 94.550781 127.167969 93.875 C 129.074219 82.886719 126.742188 71.582031 120.511719 62.351562 C 126.703125 84.683594 112.128906 94.582031 104.84375 113.226562 C 103.058594 117.414062 103.910156 121.867188 103.582031 126.234375 C 102.585938 130.96875 100.820312 135.464844 98.96875 139.917969 C 96.984375 143.800781 95.984375 148.496094 93.070312 151.75 C 92.03125 148.269531 93.5 144.511719 92.960938 140.964844 C 78.289062 151.917969 75.890625 173.605469 85.867188 188.394531 C 86.28125 183.074219 87.800781 177.882812 92.472656 174.769531 C 94.566406 172.566406 93.347656 180.828125 102.21875 182.835938 C 100.65625 179.679688 97.207031 175.203125 99.097656 171.644531 C 102.65625 177.140625 105.878906 182.933594 109.503906 188.421875 C 114.40625 195.964844 107.242188 204.046875 100.761719 207.699219 C 84.152344 215.976562 73.425781 241.167969 89.785156 254.78125 C 80.058594 232.765625 89.964844 222.507812 108.355469 211.351562 C 116.917969 204.890625 117.078125 193.128906 112.144531 184.316406 C 109.980469 179.875 107.539062 175.558594 105.8125 170.917969 C 105.554688 170.273438 106.234375 169.195312 107.023438 168.816406 C 107.6875 168.488281 107.839844 169.113281 108.113281 169.433594 C 109.488281 170.84375 111.328125 172.132812 113.328125 172.148438 C 112.300781 170.363281 111.539062 168.535156 111.601562 166.457031 C 111.523438 165.53125 112.222656 162.980469 113.269531 164.652344 C 114.335938 166.089844 116.039062 167.40625 117.878906 167.136719 C 116.335938 163.671875 115.722656 160.265625 118.640625 157.226562 C 119.40625 156.546875 119.941406 154.570312 120.820312 156.328125 C 122.296875 158.410156 124.433594 159.996094 126.9375 160.527344 C 124.609375 156.800781 122.921875 151.789062 125.734375 147.839844 C 126.484375 146.792969 126.542969 146.839844 127.300781 147.847656 C 128.082031 148.886719 128.898438 149.925781 129.832031 150.835938 C 132.339844 153.796875 137.316406 153.113281 136.421875 154.566406 C 134.957031 158.148438 137.21875 158.910156 132.613281 157.773438 C 136.148438 162.167969 134.722656 172.09375 127.542969 169.347656 C 136.164062 184.863281 144.066406 162.597656 144.894531 154.386719 C 146.902344 145.105469 152.007812 135.542969 160.46875 130.878906 C 148.988281 139.480469 146.480469 153.203125 143.175781 166.308594 C 139.296875 178.652344 128.488281 183.160156 117.53125 175.78125 C 117.898438 185.574219 129.867188 190.789062 135.582031 181.84375 C 134.789062 186.125 130.136719 188.324219 126.023438 187.921875 C 124.648438 187.804688 124.601562 187.765625 124.675781 189.132812 C 124.957031 199.277344 134.703125 207.339844 144.929688 206.882812 C 140.257812 205.476562 136.359375 200.613281 137.289062 195.875 C 137.449219 195.023438 137.652344 194.855469 138.554688 195.144531 C 148.207031 199.03125 159.800781 195.90625 164.890625 186.546875 C 159.960938 191.828125 150.839844 193.296875 145.847656 187.195312 C 150.550781 186.382812 155.734375 185.199219 158.128906 180.554688 C 155 182.367188 149.039062 182.027344 150.363281 177.0625 C 152.582031 169.695312 156.019531 162.675781 161.28125 157 C 163.585938 154.652344 169.667969 156.3125 173.003906 155.359375 C 181.382812 154.25 189.441406 151.882812 197.015625 148.144531 C 208.867188 144.109375 213.847656 169.78125 197.582031 173.933594 C 205.910156 173.148438 212.011719 166.066406 218.996094 162.46875 C 217.222656 166.273438 211.945312 167.789062 210.453125 171.878906 C 206.867188 183.207031 197.335938 192.058594 185.769531 194.710938 C 195.816406 194.429688 204.605469 188.355469 213.449219 184.289062 C 205.703125 191.242188 195.273438 194.800781 185.058594 196.398438 C 185.691406 197.425781 191.429688 198.261719 190.035156 199.464844 C 176.972656 210.273438 161.542969 216.421875 144.441406 216.386719 C 153.695312 220.753906 164.386719 218.988281 174.253906 218.882812 C 173.859375 219.359375 173.140625 219.394531 172.574219 219.535156 C 168.078125 220.417969 163.210938 220.058594 158.917969 221.640625 C 145.386719 229.464844 131.824219 240.277344 115.710938 241.167969 C 123.445312 244.59375 132.453125 242.699219 140.628906 242.164062 C 137.59375 244.125 132.832031 243.34375 130.074219 245.578125 C 124.464844 254.164062 110.605469 268.539062 110.5 278.53125 C 112.222656 275.914062 114.511719 273.917969 117.8125 273.824219 C 118.578125 273.773438 118.796875 274.039062 118.46875 274.746094 C 114.003906 284.21875 113.261719 294.988281 116.386719 304.933594 C 117.050781 287.261719 128.640625 272.894531 142.6875 263.183594 C 143.5625 262.546875 144.089844 261.898438 144.320312 260.804688 C 144.980469 258.019531 146.285156 255.238281 148.457031 253.335938 C 147.984375 255.414062 146.386719 257.164062 145.707031 259.203125 C 144.878906 260.855469 144.96875 262.996094 143.96875 264.515625 C 143.445312 262.707031 142.769531 264.371094 142.503906 264.574219 C 132.957031 272.128906 124.023438 281.625 120.453125 293.511719 C 129.960938 284.066406 140.640625 275.1875 153.691406 271.210938 C 156.71875 269.839844 158.367188 266.230469 161.21875 264.691406 C 159.363281 267.542969 156.953125 270.191406 156.164062 273.65625 C 177.378906 260.921875 202.519531 255.84375 222.316406 240.691406 C 214.054688 253.640625 200.855469 262.007812 186 265.386719 C 229.351562 269.835938 248.085938 237.636719 264.71875 203.753906 C 267.640625 220.550781 258.945312 237.234375 247.867188 249.34375 C 277.675781 229.488281 288.003906 189.03125 277.871094 155.554688 C 288.628906 163.058594 289.160156 179.5625 285.355469 191.074219 C 292.886719 179.773438 297.617188 165.53125 293.828125 152.023438 Z M 149.945312 100.671875 C 159.957031 93.734375 166.816406 84.042969 172.402344 73.480469 C 168.875 88.625 156.746094 99.246094 143.75 106.8125 C 145.25 104.398438 147.769531 102.480469 149.945312 100.671875 Z M 140.386719 118.964844 C 143.628906 118.402344 147.074219 116.972656 150.316406 118.074219 C 141.636719 119.507812 132.910156 122.339844 126.328125 128.40625 C 123.929688 130.257812 121.546875 132.390625 118.914062 133.835938 C 119.84375 132.03125 121.105469 130.375 121.324219 128.234375 C 121.992188 126.167969 126.3125 127.652344 126.59375 121.941406 C 126.675781 118.867188 128.234375 116.835938 130.410156 115.023438 C 133.554688 112.492188 137.101562 110.351562 141.015625 109.308594 C 144.882812 108.460938 140.441406 117.171875 139.753906 118.902344 C 139.964844 118.925781 140.1875 119.007812 140.386719 118.964844 Z M 112.527344 122.046875 C 115.992188 120.183594 118.003906 116.988281 120.050781 113.835938 C 126.117188 104.78125 134.652344 97.425781 144.117188 92.289062 C 138.179688 97.707031 131.429688 102.585938 127.175781 109.660156 C 123.773438 114.148438 122.945312 123.542969 115.453125 122.203125 C 114.605469 122.238281 113.273438 122.644531 112.214844 122.457031 C 112.316406 122.3125 112.390625 122.121094 112.527344 122.046875 Z M 112.683594 126.460938 C 112.785156 124.453125 116.003906 123.972656 115.601562 126.304688 C 114.644531 129.988281 112.988281 133.589844 111.144531 136.882812 C 110.945312 136.398438 110.949219 135.886719 110.972656 135.371094 C 110.90625 135.355469 110.832031 135.339844 110.765625 135.324219 C 111.402344 132.371094 112.03125 129.414062 112.683594 126.460938 Z M 93.972656 161.039062 C 94.800781 156.460938 96.671875 152.433594 100.355469 149.441406 C 103.140625 147.632812 104.660156 145.949219 104.984375 150.566406 C 104.929688 152.253906 104.761719 152.691406 103.503906 153.085938 C 98.738281 154.472656 96.199219 158.167969 93.945312 162.257812 C 93.949219 161.851562 93.898438 161.4375 93.972656 161.039062 Z M 137.078125 151.71875 C 135.675781 154.273438 131.828125 143.796875 133.332031 142.308594 C 134.246094 140.285156 134.261719 146.328125 140.34375 145.890625 C 139.246094 147.832031 138.128906 149.757812 137.078125 151.71875 Z M 149.574219 139.296875 C 149.171875 140.457031 148.800781 141.878906 147.933594 142.769531 C 147.648438 141.8125 148.039062 140.84375 146.742188 141.636719 C 144.425781 142.734375 142.21875 144 140.386719 145.828125 C 138.230469 141.972656 136.097656 136.078125 140.453125 132.9375 C 141.527344 132.128906 141.574219 132.128906 142.097656 133.3125 C 142.816406 134.800781 143.878906 136.382812 145.59375 136.703125 C 143.246094 127.285156 151.582031 133.359375 149.574219 139.296875 Z M 164.617188 120.699219 C 160.34375 126.488281 152.769531 128.203125 146.203125 130.0625 C 143.476562 131.253906 136.304688 131.222656 135.378906 133.976562 C 133.453125 139.007812 129.90625 142.527344 125.089844 144.851562 C 124.433594 145.167969 123.722656 145.6875 123.390625 146.300781 C 118.917969 154.640625 112.390625 161.195312 105.417969 167.417969 C 99.1875 172.402344 91.867188 170.8125 85.523438 178.160156 C 86.929688 174.257812 93.890625 170.9375 97.980469 169.851562 C 100.902344 169.109375 103.113281 167.539062 105.273438 165.644531 C 111.941406 159.878906 118.035156 153.34375 122.007812 145.390625 C 122.34375 144.746094 122.730469 144.40625 123.394531 144.171875 C 128.652344 142.296875 132.214844 138.605469 134.277344 133.519531 C 134.871094 132.054688 135.695312 131.425781 137.152344 131.082031 C 146.710938 128.449219 157.796875 127.511719 164.894531 119.914062 C 164.808594 120.183594 164.769531 120.480469 164.617188 120.699219 Z M 171.5625 106.992188 C 165.035156 109.648438 158.214844 110.324219 151.265625 111.414062 C 151.257812 111.410156 151.117188 111.347656 150.980469 111.292969 C 153.988281 109.460938 157.597656 108.617188 160.976562 107.648438 C 177.691406 102.929688 187.957031 87.273438 199.957031 75.894531 C 193.21875 88.167969 185.046875 101.351562 171.5625 106.992188 Z M 179.910156 113.144531 C 183.039062 108.171875 186.691406 103.261719 191.914062 100.03125 C 202.152344 94.113281 208.851562 84.488281 215.605469 75.15625 C 208.667969 91.085938 197.015625 106.824219 180.242188 113.222656 C 180.128906 113.195312 180.019531 113.171875 179.910156 113.144531 Z M 192.628906 132.035156 C 188.691406 131.625 184.578125 132.003906 180.742188 131.066406 C 195.140625 122.203125 205.644531 108.207031 211.265625 92.320312 C 211.652344 91.261719 212.09375 90.738281 213.339844 90.59375 C 231.867188 88.117188 249.605469 100.167969 257.953125 116.144531 C 247.570312 102.347656 226.976562 91.921875 211.4375 104.167969 C 235.09375 104.074219 256.011719 119.609375 261.824219 142.738281 C 247.363281 117.371094 220.636719 106.320312 195.882812 125.484375 C 202.828125 125.433594 209.75 125.441406 216.523438 127.375 C 219.636719 127.980469 222.839844 126.015625 225.886719 126.324219 C 215.308594 130.355469 203.941406 131.953125 192.628906 132.035156 Z M 182.324219 245.121094 C 182.171875 244.457031 182.550781 243.175781 181.652344 243.03125 C 175.046875 245.964844 168.523438 249.21875 162.03125 252.414062 C 155.621094 255.566406 149.925781 260.039062 145.558594 265.71875 C 148.222656 256.882812 163.085938 250.316406 171.117188 246.339844 C 173.941406 244.597656 181.6875 242.636719 182.867188 240.140625 C 183.886719 238.554688 184.597656 236.523438 185.996094 235.289062 C 185.992188 235.496094 186.074219 235.761719 185.976562 235.902344 C 184.359375 238.152344 183.363281 240.699219 182.621094 243.34375 C 182.5 243.933594 182.417969 244.527344 182.324219 245.121094 Z M 223.527344 225.179688 C 223.203125 224.421875 223.308594 223.558594 223.203125 222.75 C 215.34375 227.824219 207.285156 232.445312 198.605469 235.972656 C 193.0625 238.28125 187.292969 240.527344 183.59375 245.519531 C 182.824219 245.148438 184.152344 244.070312 184.359375 243.5625 C 188.976562 237.425781 196.964844 235.664062 203.523438 232.320312 C 210.15625 229.433594 216.351562 225.808594 222.296875 221.722656 C 223.84375 220.539062 224 218.429688 225.035156 216.855469 C 224.289062 219.410156 224.019531 222.050781 223.671875 224.675781 C 223.648438 224.847656 223.578125 225.011719 223.527344 225.179688 Z M 262.15625 183.910156 C 255.421875 196.59375 246.351562 207.859375 234.378906 215.957031 C 230.207031 218.660156 226.613281 221.824219 224.601562 226.480469 C 224.695312 223.292969 227.441406 220.277344 229.695312 218.089844 C 242.894531 208.632812 254.214844 197.417969 262.230469 183.257812 C 262.210938 183.476562 262.257812 183.734375 262.15625 183.910156 Z M 269.523438 165.109375 C 258.746094 165.535156 248.242188 163.582031 238.449219 159.0625 C 236.980469 158.402344 236.988281 158.40625 236.664062 160.054688 C 230.21875 200.328125 196.230469 224.847656 161.269531 240.121094 C 175.671875 230.949219 192.089844 224.230469 204.226562 211.671875 C 219.265625 196.832031 229.464844 177.246094 230.402344 155.90625 C 230.480469 154.835938 229.992188 154.269531 229.238281 153.699219 C 222.09375 148.207031 214.121094 145.085938 205.058594 144.660156 C 210.945312 140.660156 217.347656 137.234375 223.007812 132.8125 C 223.980469 132.101562 224.691406 132.082031 225.714844 132.710938 C 244.53125 145.179688 243.199219 159.457031 270.046875 164.90625 C 269.875 164.976562 269.703125 165.105469 269.523438 165.109375 Z M 269.523438 165.109375 " fill-opacity="1" fill-rule="nonzero"/></g><g fill="#ffffff" fill-opacity="1"><g transform="translate(99.739945, 348.146007)"><g><path d="M 41.890625 -39.90625 L 41.890625 -34.3125 C 41.890625 -33.1875 41.492188 -32.222656 40.703125 -31.421875 L 29.234375 -19.953125 L 40.703125 -8.484375 C 41.492188 -7.679688 41.890625 -6.71875 41.890625 -5.59375 L 41.890625 0 L 33.921875 0 L 33.921875 -3.984375 L 21.9375 -15.953125 L 9.96875 -3.984375 L 9.96875 0 L 2 0 L 2 -5.59375 C 2 -6.71875 2.394531 -7.679688 3.1875 -8.484375 L 14.65625 -19.953125 L 3.1875 -31.421875 C 2.394531 -32.222656 2 -33.1875 2 -34.3125 L 2 -39.90625 L 9.96875 -39.90625 L 9.96875 -35.90625 L 21.9375 -23.9375 L 33.921875 -35.90625 L 33.921875 -39.90625 Z M 41.890625 -39.90625 "/></g></g></g><g fill="#ffffff" fill-opacity="1"><g transform="translate(143.610827, 348.146007)"><g><path d="M 33.921875 0 L 9.96875 0 C 8.507812 0 7.171875 -0.351562 5.953125 -1.0625 C 4.742188 -1.78125 3.78125 -2.742188 3.0625 -3.953125 C 2.351562 -5.171875 2 -6.515625 2 -7.984375 L 2 -31.921875 C 2 -33.378906 2.351562 -34.710938 3.0625 -35.921875 C 3.78125 -37.140625 4.742188 -38.109375 5.953125 -38.828125 C 7.171875 -39.546875 8.507812 -39.90625 9.96875 -39.90625 L 33.921875 -39.90625 C 35.378906 -39.90625 36.710938 -39.546875 37.921875 -38.828125 C 39.140625 -38.109375 40.101562 -37.140625 40.8125 -35.921875 C 41.53125 -34.710938 41.890625 -33.378906 41.890625 -31.921875 L 41.890625 -7.984375 C 41.890625 -6.546875 41.53125 -5.21875 40.8125 -4 C 40.101562 -2.789062 39.148438 -1.820312 37.953125 -1.09375 C 36.753906 -0.363281 35.410156 0 33.921875 0 Z M 9.96875 -31.921875 L 9.96875 -7.984375 L 33.921875 -7.984375 L 33.921875 -31.921875 Z M 9.96875 -31.921875 "/></g></g></g><g fill="#ffffff" fill-opacity="1"><g transform="translate(187.481709, 348.146007)"><g><path d="M 41.890625 -39.90625 L 41.890625 -34.3125 C 41.890625 -33.1875 41.492188 -32.222656 40.703125 -31.421875 L 29.234375 -19.953125 L 40.703125 -8.484375 C 41.492188 -7.679688 41.890625 -6.71875 41.890625 -5.59375 L 41.890625 0 L 33.921875 0 L 33.921875 -3.984375 L 21.9375 -15.953125 L 9.96875 -3.984375 L 9.96875 0 L 2 0 L 2 -5.59375 C 2 -6.71875 2.394531 -7.679688 3.1875 -8.484375 L 14.65625 -19.953125 L 3.1875 -31.421875 C 2.394531 -32.222656 2 -33.1875 2 -34.3125 L 2 -39.90625 L 9.96875 -39.90625 L 9.96875 -35.90625 L 21.9375 -23.9375 L 33.921875 -35.90625 L 33.921875 -39.90625 Z M 41.890625 -39.90625 "/></g></g></g><g fill="#ffffff" fill-opacity="1"><g transform="translate(231.35259, 348.146007)"><g><path d="M 33.921875 0 L 9.96875 0 C 8.507812 0 7.171875 -0.351562 5.953125 -1.0625 C 4.742188 -1.78125 3.78125 -2.742188 3.0625 -3.953125 C 2.351562 -5.171875 2 -6.515625 2 -7.984375 L 2 -31.921875 C 2 -33.378906 2.351562 -34.710938 3.0625 -35.921875 C 3.78125 -37.140625 4.742188 -38.109375 5.953125 -38.828125 C 7.171875 -39.546875 8.507812 -39.90625 9.96875 -39.90625 L 33.921875 -39.90625 C 35.378906 -39.90625 36.710938 -39.546875 37.921875 -38.828125 C 39.140625 -38.109375 40.101562 -37.140625 40.8125 -35.921875 C 41.53125 -34.710938 41.890625 -33.378906 41.890625 -31.921875 L 41.890625 -7.984375 C 41.890625 -6.546875 41.53125 -5.21875 40.8125 -4 C 40.101562 -2.789062 39.148438 -1.820312 37.953125 -1.09375 C 36.753906 -0.363281 35.410156 0 33.921875 0 Z M 9.96875 -31.921875 L 9.96875 -7.984375 L 33.921875 -7.984375 L 33.921875 -31.921875 Z M 9.96875 -31.921875 "/></g></g></g><g fill="#ffffff" fill-opacity="1"><g transform="translate(129.764666, 363.711326)"><g><path d="M 13 -12.390625 L 13 -9.90625 L 3.09375 -9.90625 L 3.09375 -7.4375 L 10.53125 -7.4375 C 10.976562 -7.4375 11.390625 -7.320312 11.765625 -7.09375 C 12.148438 -6.875 12.453125 -6.578125 12.671875 -6.203125 C 12.890625 -5.828125 13 -5.410156 13 -4.953125 L 13 -2.484375 C 13 -2.023438 12.890625 -1.609375 12.671875 -1.234375 C 12.453125 -0.859375 12.148438 -0.554688 11.765625 -0.328125 C 11.390625 -0.109375 10.976562 0 10.53125 0 L 0.625 0 L 0.625 -2.484375 L 10.53125 -2.484375 L 10.53125 -4.953125 L 3.09375 -4.953125 C 2.644531 -4.953125 2.226562 -5.0625 1.84375 -5.28125 C 1.46875 -5.507812 1.171875 -5.8125 0.953125 -6.1875 C 0.734375 -6.5625 0.625 -6.976562 0.625 -7.4375 L 0.625 -9.90625 C 0.625 -10.363281 0.734375 -10.78125 0.953125 -11.15625 C 1.171875 -11.53125 1.46875 -11.828125 1.84375 -12.046875 C 2.226562 -12.273438 2.644531 -12.390625 3.09375 -12.390625 Z M 13 -12.390625 "/></g></g></g><g fill="#ffffff" fill-opacity="1"><g transform="translate(146.735875, 363.711326)"><g><path d="M 13 -12.390625 L 13 -9.90625 L 8.046875 -9.90625 L 8.046875 0 L 5.578125 0 L 5.578125 -9.90625 L 0.625 -9.90625 L 0.625 -12.390625 Z M 13 -12.390625 "/></g></g></g><g fill="#ffffff" fill-opacity="1"><g transform="translate(163.707084, 363.711326)"><g><path d="M 10.53125 0 L 3.09375 0 C 2.644531 0 2.226562 -0.109375 1.84375 -0.328125 C 1.46875 -0.554688 1.171875 -0.859375 0.953125 -1.234375 C 0.734375 -1.609375 0.625 -2.023438 0.625 -2.484375 L 0.625 -12.390625 L 3.09375 -12.390625 L 3.09375 -2.484375 L 10.53125 -2.484375 L 10.53125 -12.390625 L 13 -12.390625 L 13 -2.484375 C 13 -2.023438 12.890625 -1.609375 12.671875 -1.234375 C 12.453125 -0.859375 12.148438 -0.554688 11.765625 -0.328125 C 11.390625 -0.109375 10.976562 0 10.53125 0 Z M 10.53125 0 "/></g></g></g><g fill="#ffffff" fill-opacity="1"><g transform="translate(180.678294, 363.711326)"><g><path d="M 10.53125 0 L 0.625 0 L 0.625 -12.390625 L 10.53125 -12.390625 C 10.976562 -12.390625 11.390625 -12.273438 11.765625 -12.046875 C 12.148438 -11.828125 12.453125 -11.53125 12.671875 -11.15625 C 12.890625 -10.78125 13 -10.363281 13 -9.90625 L 13 -2.484375 C 13 -2.023438 12.890625 -1.609375 12.671875 -1.234375 C 12.453125 -0.859375 12.148438 -0.554688 11.765625 -0.328125 C 11.390625 -0.109375 10.976562 0 10.53125 0 Z M 3.09375 -9.90625 L 3.09375 -2.484375 L 10.53125 -2.484375 L 10.53125 -9.90625 Z M 3.09375 -9.90625 "/></g></g></g><g fill="#ffffff" fill-opacity="1"><g transform="translate(197.649502, 363.711326)"><g><path d="M 13 0 L 0.625 0 L 0.625 -2.484375 L 5.578125 -2.484375 L 5.578125 -9.90625 L 0.625 -9.90625 L 0.625 -12.390625 L 13 -12.390625 L 13 -9.90625 L 8.046875 -9.90625 L 8.046875 -2.484375 L 13 -2.484375 Z M 13 0 "/></g></g></g><g fill="#ffffff" fill-opacity="1"><g transform="translate(214.62071, 363.711326)"><g><path d="M 10.53125 0 L 3.09375 0 C 2.644531 0 2.226562 -0.109375 1.84375 -0.328125 C 1.46875 -0.554688 1.171875 -0.859375 0.953125 -1.234375 C 0.734375 -1.609375 0.625 -2.023438 0.625 -2.484375 L 0.625 -9.90625 C 0.625 -10.363281 0.734375 -10.78125 0.953125 -11.15625 C 1.171875 -11.53125 1.46875 -11.828125 1.84375 -12.046875 C 2.226562 -12.273438 2.644531 -12.390625 3.09375 -12.390625 L 10.53125 -12.390625 C 10.976562 -12.390625 11.390625 -12.273438 11.765625 -12.046875 C 12.148438 -11.828125 12.453125 -11.53125 12.671875 -11.15625 C 12.890625 -10.78125 13 -10.363281 13 -9.90625 L 13 -2.484375 C 13 -2.035156 12.890625 -1.625 12.671875 -1.25 C 12.453125 -0.875 12.15625 -0.570312 11.78125 -0.34375 C 11.40625 -0.113281 10.988281 0 10.53125 0 Z M 3.09375 -9.90625 L 3.09375 -2.484375 L 10.53125 -2.484375 L 10.53125 -9.90625 Z M 3.09375 -9.90625 "/></g></g></g><g fill="#ffffff" fill-opacity="1"><g transform="translate(231.591922, 363.711326)"><g><path d="M 13 -12.390625 L 13 -9.90625 L 3.09375 -9.90625 L 3.09375 -7.4375 L 10.53125 -7.4375 C 10.976562 -7.4375 11.390625 -7.320312 11.765625 -7.09375 C 12.148438 -6.875 12.453125 -6.578125 12.671875 -6.203125 C 12.890625 -5.828125 13 -5.410156 13 -4.953125 L 13 -2.484375 C 13 -2.023438 12.890625 -1.609375 12.671875 -1.234375 C 12.453125 -0.859375 12.148438 -0.554688 11.765625 -0.328125 C 11.390625 -0.109375 10.976562 0 10.53125 0 L 0.625 0 L 0.625 -2.484375 L 10.53125 -2.484375 L 10.53125 -4.953125 L 3.09375 -4.953125 C 2.644531 -4.953125 2.226562 -5.0625 1.84375 -5.28125 C 1.46875 -5.507812 1.171875 -5.8125 0.953125 -6.1875 C 0.734375 -6.5625 0.625 -6.976562 0.625 -7.4375 L 0.625 -9.90625 C 0.625 -10.363281 0.734375 -10.78125 0.953125 -11.15625 C 1.171875 -11.53125 1.46875 -11.828125 1.84375 -12.046875 C 2.226562 -12.273438 2.644531 -12.390625 3.09375 -12.390625 Z M 13 -12.390625 "/></g></g></g><g fill="#ffffff" fill-opacity="1"><g transform="translate(135.656172, 373.27185)"><g><path d="M 1.75 -4.578125 C 2.34375 -4.53125 2.96875 -4.5 3.703125 -4.5 C 4.375 -4.5 5.171875 -4.5625 5.671875 -4.59375 L 5.671875 -5.203125 C 5.140625 -5.140625 4.40625 -5.09375 3.703125 -5.09375 C 2.96875 -5.09375 2.28125 -5.125 1.75 -5.1875 Z M 1.453125 -2.28125 C 1.390625 -1.984375 1.296875 -1.640625 1.296875 -1.265625 C 1.296875 -0.34375 2.171875 0.140625 3.65625 0.140625 C 4.703125 0.140625 5.640625 0.03125 6.15625 -0.109375 L 6.15625 -0.734375 C 5.59375 -0.5625 4.65625 -0.453125 3.640625 -0.453125 C 2.46875 -0.453125 1.90625 -0.84375 1.90625 -1.390625 C 1.90625 -1.671875 1.96875 -1.9375 2.0625 -2.234375 Z M 1.453125 -2.28125 "/></g></g></g><g fill="#ffffff" fill-opacity="1"><g transform="translate(143.062489, 373.27185)"><g><path d="M 6.203125 -4.46875 C 6.046875 -4.78125 5.78125 -5.234375 5.59375 -5.5 L 5.203125 -5.328125 C 5.40625 -5.046875 5.65625 -4.59375 5.796875 -4.296875 Z M 3.75 -2.921875 C 4.203125 -2.96875 4.65625 -2.984375 5.109375 -2.984375 C 5.546875 -2.984375 5.984375 -2.953125 6.34375 -2.90625 L 6.359375 -3.46875 C 5.96875 -3.515625 5.515625 -3.53125 5.09375 -3.53125 C 4.625 -3.53125 4.140625 -3.5 3.75 -3.46875 Z M 4.234375 -4.84375 C 3.78125 -4.71875 3.296875 -4.640625 2.828125 -4.578125 L 2.9375 -5.125 C 2.96875 -5.265625 3.015625 -5.546875 3.078125 -5.703125 L 2.359375 -5.75 C 2.375 -5.609375 2.359375 -5.359375 2.328125 -5.15625 C 2.3125 -5 2.28125 -4.78125 2.21875 -4.515625 C 1.9375 -4.5 1.6875 -4.484375 1.4375 -4.484375 C 1.171875 -4.484375 0.90625 -4.484375 0.5625 -4.53125 L 0.578125 -3.953125 C 0.84375 -3.9375 1.109375 -3.921875 1.421875 -3.921875 C 1.640625 -3.921875 1.859375 -3.9375 2.09375 -3.953125 C 2.03125 -3.6875 1.984375 -3.421875 1.90625 -3.171875 C 1.640625 -2.140625 1.125 -0.640625 0.6875 0.109375 L 1.328125 0.328125 C 1.71875 -0.46875 2.21875 -1.984375 2.484375 -3.03125 C 2.5625 -3.34375 2.640625 -3.6875 2.703125 -4 C 3.21875 -4.0625 3.75 -4.140625 4.234375 -4.25 Z M 3.390625 -1.734375 C 3.3125 -1.421875 3.28125 -1.140625 3.28125 -0.875 C 3.28125 -0.140625 3.875 0.21875 5.03125 0.21875 C 5.5625 0.21875 6.0625 0.15625 6.453125 0.109375 L 6.46875 -0.484375 C 6.03125 -0.40625 5.515625 -0.34375 5.046875 -0.34375 C 4 -0.34375 3.84375 -0.6875 3.84375 -1.015625 C 3.84375 -1.21875 3.875 -1.4375 3.9375 -1.6875 Z M 6.015625 -5.625 C 6.234375 -5.34375 6.46875 -4.921875 6.640625 -4.59375 L 7.03125 -4.78125 C 6.890625 -5.0625 6.609375 -5.515625 6.40625 -5.796875 Z M 6.015625 -5.625 "/></g></g></g><g fill="#ffffff" fill-opacity="1"><g transform="translate(150.468805, 373.27185)"><g><path d="M 2.734375 -4.75 L 2.703125 -4.734375 C 2.75 -5.25 2.8125 -5.65625 2.84375 -5.84375 L 2.140625 -5.859375 C 2.1875 -5.671875 2.171875 -5.484375 2.171875 -5.3125 C 2.171875 -5.234375 2.15625 -4.96875 2.140625 -4.625 C 1.765625 -4.5625 1.328125 -4.515625 1.09375 -4.5 C 0.921875 -4.484375 0.78125 -4.484375 0.609375 -4.5 L 0.671875 -3.875 C 1.140625 -3.9375 1.765625 -4.03125 2.109375 -4.0625 C 2.09375 -3.84375 2.078125 -3.59375 2.0625 -3.359375 C 1.6875 -2.78125 0.84375 -1.640625 0.4375 -1.140625 L 0.8125 -0.625 C 1.15625 -1.109375 1.640625 -1.8125 2 -2.359375 C 2 -2.25 2 -2.140625 2 -2.078125 C 1.984375 -1.265625 1.984375 -0.890625 1.96875 -0.1875 C 1.96875 -0.078125 1.953125 0.140625 1.953125 0.25 L 2.59375 0.25 C 2.578125 0.109375 2.5625 -0.078125 2.5625 -0.203125 C 2.53125 -0.859375 2.53125 -1.296875 2.53125 -1.96875 C 2.53125 -2.234375 2.53125 -2.53125 2.546875 -2.828125 C 3.21875 -3.453125 3.984375 -3.875 4.84375 -3.875 C 5.8125 -3.875 6.25 -3.140625 6.25 -2.578125 C 6.265625 -1.3125 5.140625 -0.75 3.90625 -0.5625 L 4.171875 0 C 5.78125 -0.3125 6.859375 -1.09375 6.84375 -2.5625 C 6.84375 -3.703125 5.9375 -4.421875 4.921875 -4.421875 C 4.21875 -4.421875 3.40625 -4.171875 2.59375 -3.515625 C 2.609375 -3.671875 2.609375 -3.828125 2.625 -3.984375 C 2.734375 -4.15625 2.859375 -4.359375 2.953125 -4.484375 Z M 2.734375 -4.75 "/></g></g></g><g fill="#ffffff" fill-opacity="1"><g transform="translate(157.875121, 373.27185)"><g><path d="M 1.875 -5.84375 C 1.859375 -5.671875 1.84375 -5.4375 1.8125 -5.21875 C 1.71875 -4.625 1.59375 -3.546875 1.59375 -2.84375 C 1.59375 -2.375 1.625 -1.953125 1.671875 -1.6875 L 2.25 -1.71875 C 2.1875 -2.09375 2.1875 -2.34375 2.234375 -2.625 C 2.3125 -3.578125 3.15625 -4.90625 4.078125 -4.90625 C 4.84375 -4.90625 5.234375 -4.078125 5.234375 -2.921875 C 5.234375 -1.078125 3.984375 -0.4375 2.40625 -0.203125 L 2.75 0.328125 C 4.5625 0 5.84375 -0.890625 5.84375 -2.9375 C 5.84375 -4.46875 5.140625 -5.453125 4.171875 -5.453125 C 3.25 -5.453125 2.46875 -4.546875 2.1875 -3.78125 C 2.234375 -4.296875 2.375 -5.28125 2.53125 -5.828125 Z M 1.875 -5.84375 "/></g></g></g><g fill="#ffffff" fill-opacity="1"><g transform="translate(165.281437, 373.27185)"><g><path d="M 2 -1.03125 C 1.6875 -1.03125 1.265625 -1.4375 1.265625 -2.375 C 1.265625 -3.359375 2.125 -4.5625 3.53125 -4.734375 C 3.4375 -4.0625 3.296875 -3.375 3.125 -2.765625 C 2.734375 -1.53125 2.328125 -1.03125 2 -1.03125 Z M 3.9375 0.1875 C 5.6875 -0.03125 6.703125 -1.0625 6.703125 -2.609375 C 6.703125 -4.09375 5.609375 -5.296875 3.890625 -5.296875 C 2.09375 -5.296875 0.671875 -3.90625 0.671875 -2.3125 C 0.671875 -1.109375 1.328125 -0.359375 1.984375 -0.359375 C 2.671875 -0.359375 3.25 -1.140625 3.703125 -2.640625 C 3.90625 -3.328125 4.046875 -4.0625 4.140625 -4.75 C 5.390625 -4.640625 6.09375 -3.734375 6.09375 -2.625 C 6.09375 -1.359375 5.171875 -0.65625 4.234375 -0.453125 C 4.046875 -0.421875 3.828125 -0.375 3.59375 -0.359375 Z M 3.9375 0.1875 "/></g></g></g><g fill="#ffffff" fill-opacity="1"><g transform="translate(172.687753, 373.27185)"><g><path d="M 4.53125 -3.265625 C 4.203125 -2.453125 3.765625 -1.859375 3.28125 -1.40625 C 3.21875 -1.828125 3.15625 -2.28125 3.15625 -2.734375 C 3.15625 -2.84375 3.15625 -2.9375 3.15625 -3.03125 C 3.515625 -3.15625 3.9375 -3.265625 4.40625 -3.265625 Z M 2.640625 -2.671875 C 2.640625 -2.125 2.703125 -1.546875 2.8125 -1.015625 C 2.4375 -0.75 2.09375 -0.625 1.8125 -0.625 C 1.53125 -0.625 1.390625 -0.78125 1.390625 -1.078125 C 1.390625 -1.671875 1.9375 -2.390625 2.640625 -2.796875 Z M 5.21875 -3.671875 C 5.265625 -3.78125 5.328125 -3.984375 5.375 -4.078125 L 4.78125 -4.21875 C 4.765625 -4.109375 4.734375 -3.90625 4.703125 -3.796875 L 4.6875 -3.734375 C 4.59375 -3.734375 4.5 -3.734375 4.421875 -3.734375 C 4.046875 -3.734375 3.59375 -3.671875 3.1875 -3.546875 C 3.203125 -3.859375 3.234375 -4.171875 3.265625 -4.453125 C 4.15625 -4.5 5.125 -4.59375 5.90625 -4.71875 L 5.890625 -5.265625 C 5.140625 -5.109375 4.25 -5 3.328125 -4.96875 C 3.359375 -5.171875 3.390625 -5.359375 3.421875 -5.515625 C 3.4375 -5.609375 3.46875 -5.75 3.5 -5.84375 L 2.875 -5.859375 C 2.875 -5.765625 2.875 -5.625 2.859375 -5.515625 C 2.84375 -5.359375 2.828125 -5.15625 2.796875 -4.953125 C 2.640625 -4.9375 2.46875 -4.9375 2.3125 -4.9375 C 2 -4.9375 1.359375 -4.984375 1.109375 -5.03125 L 1.125 -4.46875 C 1.421875 -4.453125 1.984375 -4.421875 2.296875 -4.421875 C 2.4375 -4.421875 2.59375 -4.421875 2.75 -4.4375 C 2.71875 -4.09375 2.6875 -3.71875 2.671875 -3.359375 C 1.65625 -2.890625 0.84375 -1.921875 0.84375 -0.984375 C 0.84375 -0.359375 1.21875 -0.0625 1.703125 -0.0625 C 2.109375 -0.0625 2.546875 -0.21875 2.9375 -0.453125 C 2.984375 -0.3125 3.015625 -0.171875 3.0625 -0.046875 L 3.59375 -0.21875 C 3.546875 -0.40625 3.484375 -0.59375 3.421875 -0.8125 C 4.046875 -1.328125 4.640625 -2.140625 5.046875 -3.171875 C 5.734375 -2.984375 6.09375 -2.484375 6.09375 -1.9375 C 6.09375 -0.984375 5.28125 -0.296875 3.96875 -0.15625 L 4.28125 0.328125 C 5.984375 0.0625 6.6875 -0.859375 6.6875 -1.90625 C 6.6875 -2.703125 6.125 -3.390625 5.21875 -3.640625 Z M 5.21875 -3.671875 "/></g></g></g><g fill="#ffffff" fill-opacity="1"><g transform="translate(180.094069, 373.27185)"><g><path d="M 3.703125 -0.25 C 3.140625 -0.25 2.71875 -0.453125 2.71875 -0.8125 C 2.71875 -1.0625 2.984375 -1.265625 3.3125 -1.265625 C 3.859375 -1.265625 4.21875 -0.859375 4.28125 -0.28125 C 4.109375 -0.265625 3.90625 -0.25 3.703125 -0.25 Z M 5.203125 -5.5625 C 5.125 -5.546875 5.015625 -5.53125 4.8125 -5.515625 C 4.421875 -5.46875 2.6875 -5.421875 2.296875 -5.421875 C 2.15625 -5.421875 1.953125 -5.421875 1.78125 -5.4375 L 1.796875 -4.828125 C 1.953125 -4.859375 2.125 -4.859375 2.296875 -4.875 C 2.671875 -4.890625 4.125 -4.96875 4.5 -4.984375 C 4.140625 -4.65625 3.234375 -3.875 2.828125 -3.546875 C 2.390625 -3.1875 1.453125 -2.40625 0.84375 -1.890625 L 1.28125 -1.453125 C 2.203125 -2.40625 2.875 -2.921875 4.078125 -2.921875 C 5 -2.921875 5.734375 -2.390625 5.734375 -1.671875 C 5.734375 -1.078125 5.40625 -0.65625 4.828125 -0.421875 C 4.71875 -1.109375 4.234375 -1.71875 3.3125 -1.71875 C 2.625 -1.71875 2.171875 -1.265625 2.171875 -0.765625 C 2.171875 -0.15625 2.796875 0.28125 3.796875 0.28125 C 5.34375 0.28125 6.328125 -0.484375 6.328125 -1.671875 C 6.328125 -2.65625 5.4375 -3.40625 4.21875 -3.40625 C 3.890625 -3.40625 3.5625 -3.359375 3.234375 -3.25 C 3.796875 -3.71875 4.78125 -4.578125 5.140625 -4.859375 C 5.25 -4.9375 5.40625 -5.046875 5.546875 -5.140625 Z M 5.203125 -5.5625 "/></g></g></g><g fill="#ffffff" fill-opacity="1"><g transform="translate(187.500386, 373.27185)"><g><path d="M 6.234375 -4.84375 C 6.078125 -5.125 5.8125 -5.578125 5.625 -5.84375 L 5.234375 -5.6875 C 5.4375 -5.40625 5.6875 -4.953125 5.84375 -4.65625 Z M 2.46875 -4.3125 C 2.59375 -4.578125 2.6875 -4.84375 2.75 -5.0625 C 2.8125 -5.21875 2.875 -5.40625 2.953125 -5.578125 L 2.234375 -5.71875 C 2.21875 -5.5 2.171875 -5.296875 2.125 -5.125 C 2.03125 -4.84375 1.90625 -4.453125 1.703125 -4.09375 C 1.4375 -3.640625 0.921875 -2.875 0.390625 -2.5 L 0.96875 -2.140625 C 1.40625 -2.5 1.90625 -3.171875 2.203125 -3.734375 L 4.109375 -3.734375 C 3.984375 -1.84375 3.1875 -0.875 2.46875 -0.328125 C 2.296875 -0.203125 2.078125 -0.078125 1.859375 0 L 2.5 0.4375 C 3.765625 -0.375 4.59375 -1.609375 4.71875 -3.734375 L 5.96875 -3.734375 C 6.140625 -3.734375 6.4375 -3.71875 6.671875 -3.703125 L 6.671875 -4.34375 C 6.453125 -4.3125 6.15625 -4.3125 5.96875 -4.3125 Z M 6.046875 -5.984375 C 6.265625 -5.703125 6.5 -5.28125 6.671875 -4.96875 L 7.0625 -5.140625 C 6.921875 -5.40625 6.640625 -5.875 6.4375 -6.140625 Z M 6.046875 -5.984375 "/></g></g></g><g fill="#ffffff" fill-opacity="1"><g transform="translate(194.906702, 373.27185)"><g><path d="M 0.75 -2.484375 C 0.984375 -2.5 1.375 -2.515625 1.78125 -2.515625 L 5.84375 -2.515625 C 6.1875 -2.515625 6.5 -2.484375 6.640625 -2.484375 L 6.640625 -3.203125 C 6.484375 -3.1875 6.21875 -3.171875 5.84375 -3.171875 L 1.78125 -3.171875 C 1.375 -3.171875 0.984375 -3.1875 0.75 -3.203125 Z M 0.75 -2.484375 "/></g></g></g><g fill="#ffffff" fill-opacity="1"><g transform="translate(202.313018, 373.27185)"><g><path d="M 6.90625 -0.03125 C 6.609375 -0.796875 5.796875 -2.28125 5.265625 -3.046875 L 4.71875 -2.796875 C 4.984375 -2.4375 5.3125 -1.859375 5.609375 -1.28125 C 4.8125 -1.171875 3.390625 -1 2.296875 -0.90625 C 2.671875 -1.859375 3.390625 -4.140625 3.609375 -4.84375 C 3.703125 -5.140625 3.796875 -5.34375 3.859375 -5.53125 L 3.140625 -5.671875 C 3.109375 -5.484375 3.078125 -5.296875 2.984375 -4.96875 C 2.78125 -4.234375 2.015625 -1.859375 1.609375 -0.84375 C 1.46875 -0.84375 1.34375 -0.828125 1.234375 -0.828125 C 1.015625 -0.8125 0.765625 -0.8125 0.546875 -0.8125 L 0.65625 -0.125 C 0.875 -0.15625 1.09375 -0.1875 1.28125 -0.203125 C 2.265625 -0.296875 4.734375 -0.5625 5.890625 -0.71875 C 6.046875 -0.359375 6.203125 -0.015625 6.296875 0.25 Z M 6.90625 -0.03125 "/></g></g></g><g fill="#ffffff" fill-opacity="1"><g transform="translate(209.719334, 373.27185)"><g><path d="M 5.546875 -5.25 C 5.421875 -5.203125 5.234375 -5.171875 4.984375 -5.171875 L 2.140625 -5.171875 C 1.90625 -5.171875 1.484375 -5.21875 1.390625 -5.234375 L 1.390625 -4.5625 C 1.46875 -4.5625 1.875 -4.59375 2.140625 -4.59375 L 5.015625 -4.59375 C 4.84375 -3.984375 4.296875 -3.109375 3.796875 -2.53125 C 3.03125 -1.6875 1.9375 -0.796875 0.734375 -0.328125 L 1.21875 0.15625 C 2.3125 -0.328125 3.3125 -1.140625 4.109375 -2 C 4.859375 -1.328125 5.640625 -0.453125 6.140625 0.203125 L 6.65625 -0.25 C 6.171875 -0.828125 5.265625 -1.796875 4.5 -2.453125 C 5.015625 -3.125 5.484375 -3.984375 5.734375 -4.625 C 5.78125 -4.734375 5.875 -4.890625 5.921875 -4.953125 Z M 5.546875 -5.25 "/></g></g></g><g fill="#ffffff" fill-opacity="1"><g transform="translate(217.12565, 373.27185)"><g><path d="M 5.984375 -5.046875 C 5.84375 -4.984375 5.6875 -4.96875 5.484375 -4.96875 L 3.46875 -4.96875 C 3.53125 -5.0625 3.578125 -5.15625 3.625 -5.25 C 3.703125 -5.390625 3.828125 -5.640625 3.953125 -5.828125 L 3.28125 -6.046875 C 3.234375 -5.84375 3.125 -5.578125 3.046875 -5.453125 C 2.703125 -4.78125 1.9375 -3.671875 0.671875 -2.875 L 1.15625 -2.5 C 2 -3.0625 2.65625 -3.78125 3.125 -4.4375 L 5.640625 -4.4375 C 5.5 -3.859375 5.140625 -3.09375 4.6875 -2.46875 C 4.109375 -2.8125 3.484375 -3.171875 3.0625 -3.390625 L 2.6875 -2.953125 C 3.09375 -2.71875 3.71875 -2.359375 4.296875 -1.984375 C 3.625 -1.234375 2.671875 -0.53125 1.375 -0.140625 L 1.90625 0.328125 C 3.21875 -0.15625 4.140625 -0.875 4.8125 -1.640625 C 5.09375 -1.453125 5.34375 -1.28125 5.515625 -1.140625 L 5.921875 -1.671875 C 5.734375 -1.796875 5.484375 -1.96875 5.203125 -2.140625 C 5.71875 -2.875 6.109375 -3.703125 6.28125 -4.34375 C 6.328125 -4.46875 6.40625 -4.640625 6.453125 -4.75 Z M 5.984375 -5.046875 "/></g></g></g><g fill="#ffffff" fill-opacity="1"><g transform="translate(224.531967, 373.27185)"><g><path d="M 5.296875 -5.53125 L 4.890625 -5.34375 C 5.140625 -5.015625 5.390625 -4.578125 5.5625 -4.1875 L 5.984375 -4.375 C 5.828125 -4.71875 5.484375 -5.265625 5.296875 -5.53125 Z M 6.265625 -5.875 L 5.859375 -5.703125 C 6.109375 -5.375 6.359375 -4.953125 6.5625 -4.5625 L 6.984375 -4.75 C 6.796875 -5.09375 6.46875 -5.625 6.265625 -5.875 Z M 2.140625 -5.640625 L 1.8125 -5.140625 C 2.234375 -4.890625 3.046875 -4.359375 3.40625 -4.078125 L 3.75 -4.59375 C 3.421875 -4.828125 2.578125 -5.390625 2.140625 -5.640625 Z M 1.03125 -0.34375 L 1.375 0.265625 C 2.0625 0.125 3.078125 -0.21875 3.828125 -0.65625 C 5 -1.359375 6.03125 -2.3125 6.671875 -3.296875 L 6.3125 -3.921875 C 5.71875 -2.875 4.734375 -1.90625 3.515625 -1.203125 C 2.765625 -0.78125 1.84375 -0.484375 1.03125 -0.34375 Z M 1.015625 -3.96875 L 0.6875 -3.46875 C 1.140625 -3.234375 1.9375 -2.71875 2.3125 -2.453125 L 2.65625 -2.96875 C 2.328125 -3.203125 1.453125 -3.734375 1.015625 -3.96875 Z M 1.015625 -3.96875 "/></g></g></g><g fill="#ffffff" fill-opacity="1"><g transform="translate(231.938283, 373.27185)"><g><path d="M 4.859375 -4.453125 L 4.84375 -5.171875 C 4.84375 -5.390625 4.859375 -5.59375 4.890625 -5.796875 L 4.203125 -5.796875 C 4.25 -5.578125 4.25 -5.359375 4.265625 -5.171875 C 4.265625 -5 4.28125 -4.75 4.28125 -4.453125 L 1.59375 -4.453125 C 1.359375 -4.453125 1.125 -4.46875 0.90625 -4.5 L 0.90625 -3.875 C 1.140625 -3.890625 1.359375 -3.890625 1.59375 -3.890625 L 4.046875 -3.890625 C 3.453125 -3 2.140625 -1.78125 0.640625 -1.046875 L 1.0625 -0.5625 C 2.390625 -1.265625 3.6875 -2.46875 4.296875 -3.34375 C 4.3125 -2.34375 4.328125 -1.25 4.328125 -0.65625 C 4.328125 -0.453125 4.265625 -0.359375 4.046875 -0.359375 C 3.78125 -0.359375 3.359375 -0.390625 3 -0.4375 L 3.0625 0.15625 C 3.421875 0.1875 3.859375 0.203125 4.25 0.203125 C 4.6875 0.203125 4.921875 0 4.921875 -0.390625 C 4.90625 -1.3125 4.890625 -2.78125 4.859375 -3.890625 L 6.046875 -3.890625 C 6.21875 -3.890625 6.484375 -3.890625 6.65625 -3.875 L 6.65625 -4.5 C 6.5 -4.484375 6.21875 -4.453125 6.015625 -4.453125 Z M 4.859375 -4.453125 "/></g></g></g></svg>