<svg xmlns="http://www.w3.org/2000/svg" xmlns:xlink="http://www.w3.org/1999/xlink" zoomAndPan="magnify" preserveAspectRatio="xMidYMid meet" version="1.0" viewBox="16.04 16.46 342.78 342.44"><path fill="#000000" d="M 130.28125 16.671875 C 129.84375 16.921875 128.671875 16.972656 128.53125 16.746094 C 128.425781 16.574219 126.132812 16.539062 125.960938 16.707031 C 125.902344 16.769531 125.425781 16.796875 124.910156 16.773438 L 123.972656 16.722656 L 123.023438 17.582031 C 122.265625 18.269531 122.074219 18.535156 122.074219 18.894531 C 122.074219 19.179688 121.933594 19.472656 121.691406 19.695312 C 121.484375 19.890625 121.3125 20.125 121.3125 20.21875 C 121.3125 20.3125 121.175781 20.390625 121.007812 20.390625 C 120.804688 20.390625 120.703125 20.492188 120.703125 20.695312 C 120.703125 20.894531 120.601562 21 120.410156 21 C 120.238281 21 120.074219 21.140625 120.015625 21.339844 C 119.957031 21.527344 119.6875 21.921875 119.414062 22.214844 C 118.71875 22.953125 118.425781 23.601562 118.425781 24.390625 C 118.425781 24.800781 118.335938 25.136719 118.195312 25.25 C 118.035156 25.382812 117.96875 25.734375 117.96875 26.429688 C 117.96875 27.191406 117.890625 27.542969 117.628906 27.964844 C 117.335938 28.429688 117.285156 28.730469 117.285156 29.898438 C 117.285156 30.902344 117.222656 31.351562 117.058594 31.550781 C 116.753906 31.917969 116.84375 32.34375 117.375 33.015625 C 117.855469 33.621094 117.957031 34.359375 117.601562 34.65625 C 117.351562 34.863281 116.90625 36.085938 116.90625 36.5625 C 116.90625 36.742188 117.074219 37.050781 117.28125 37.246094 C 117.785156 37.71875 117.933594 38.527344 117.613281 39.070312 C 117.425781 39.386719 117.390625 39.710938 117.460938 40.46875 C 117.523438 41.132812 117.496094 41.492188 117.382812 41.5625 C 117.117188 41.722656 117.175781 42.277344 117.511719 42.832031 C 117.867188 43.410156 117.921875 44.5625 117.609375 44.824219 C 117.476562 44.933594 117.359375 45.5 117.292969 46.347656 C 117.199219 47.542969 117.226562 47.785156 117.523438 48.472656 C 117.804688 49.128906 117.839844 49.390625 117.738281 50.121094 C 117.601562 51.128906 117.601562 52.101562 117.742188 52.972656 C 117.820312 53.441406 117.785156 53.636719 117.597656 53.789062 C 117.375 53.976562 117.375 54.019531 117.617188 54.285156 C 117.796875 54.484375 117.867188 54.769531 117.835938 55.1875 C 117.808594 55.550781 117.878906 55.898438 118.007812 56.050781 C 118.402344 56.519531 119.03125 57.722656 119.03125 58.011719 C 119.03125 58.167969 118.933594 58.429688 118.808594 58.589844 C 118.511719 58.980469 118.519531 59.839844 118.824219 60.402344 C 118.984375 60.703125 119.058594 61.183594 119.042969 61.800781 C 119.023438 62.488281 119.09375 62.859375 119.292969 63.160156 C 119.488281 63.464844 119.589844 64.003906 119.652344 65.140625 C 119.71875 66.308594 119.804688 66.773438 120 66.988281 C 120.214844 67.226562 120.242188 67.445312 120.160156 68.277344 C 120.0625 69.207031 120.085938 69.316406 120.457031 69.804688 C 120.9375 70.4375 120.980469 71.109375 120.550781 71.378906 C 120.1875 71.605469 120.265625 72.207031 120.722656 72.714844 C 120.9375 72.949219 121.007812 73.261719 121.007812 73.980469 C 121.007812 74.703125 121.085938 75.042969 121.324219 75.378906 C 121.652344 75.835938 121.664062 76.550781 121.382812 78.136719 C 121.324219 78.449219 121.347656 78.894531 121.4375 79.121094 C 121.523438 79.351562 121.636719 79.789062 121.6875 80.101562 C 121.738281 80.410156 121.882812 80.769531 122.011719 80.898438 C 122.164062 81.050781 122.296875 81.660156 122.394531 82.6875 C 122.777344 86.597656 122.800781 86.710938 123.292969 87.28125 C 123.488281 87.507812 123.574219 87.984375 123.640625 89.179688 C 123.691406 90.054688 123.867188 91.285156 124.039062 91.914062 C 124.207031 92.539062 124.347656 93.433594 124.347656 93.902344 C 124.351562 94.808594 124.570312 95.632812 124.90625 96.023438 C 125.019531 96.15625 125.113281 96.417969 125.113281 96.609375 C 125.113281 96.800781 125.324219 97.222656 125.585938 97.554688 C 126.054688 98.144531 126.058594 98.160156 125.953125 99.414062 C 125.851562 100.621094 125.871094 100.726562 126.320312 101.691406 C 126.757812 102.628906 126.777344 102.726562 126.5625 103.035156 C 126.203125 103.542969 126.277344 103.890625 126.890625 104.640625 C 127.410156 105.273438 127.457031 105.414062 127.472656 106.328125 C 127.480469 106.875 127.546875 107.816406 127.613281 108.414062 C 127.734375 109.464844 127.753906 109.511719 128.285156 109.777344 C 128.589844 109.929688 129.023438 110.222656 129.253906 110.425781 L 129.671875 110.796875 L 129.671875 112.96875 C 129.671875 115.246094 129.792969 116.046875 130.359375 117.421875 C 130.546875 117.882812 130.742188 118.769531 130.796875 119.394531 C 130.851562 120.019531 130.960938 120.59375 131.042969 120.675781 C 131.125 120.757812 131.191406 121.046875 131.191406 121.316406 C 131.191406 122.066406 131.410156 122.484375 132.238281 123.339844 C 133.351562 124.492188 133.65625 125.082031 133.6875 126.152344 C 133.707031 126.851562 133.839844 127.332031 134.257812 128.203125 C 134.988281 129.726562 135.046875 129.945312 134.765625 130.175781 C 134.640625 130.28125 134.535156 130.410156 134.535156 130.464844 C 134.535156 130.519531 134.941406 131.0625 135.4375 131.671875 C 136.222656 132.636719 136.351562 132.886719 136.445312 133.632812 C 136.585938 134.765625 136.300781 135.871094 135.6875 136.554688 C 135.035156 137.289062 134.496094 138.1875 134.578125 138.417969 C 134.613281 138.519531 134.554688 138.78125 134.449219 138.996094 C 134.199219 139.492188 133.085938 140.503906 132.792969 140.503906 C 132.519531 140.503906 132 139.96875 131.691406 139.363281 C 131.382812 138.753906 130.757812 138.097656 130.222656 137.820312 C 129.414062 137.398438 128.457031 136.394531 128.453125 135.96875 C 128.453125 135.675781 128.167969 135.292969 127.402344 134.542969 C 126.824219 133.980469 126.273438 133.519531 126.179688 133.519531 C 126.089844 133.519531 125.757812 133.390625 125.449219 133.234375 C 125.136719 133.074219 124.460938 132.898438 123.941406 132.839844 C 123.421875 132.78125 122.917969 132.636719 122.820312 132.519531 C 122.566406 132.210938 122.109375 132.253906 121.804688 132.617188 C 121.660156 132.789062 121.3125 133.039062 121.03125 133.171875 C 120.75 133.308594 120.003906 133.917969 119.371094 134.53125 C 118.710938 135.175781 118.09375 135.644531 117.914062 135.644531 C 117.746094 135.644531 117.414062 135.828125 117.179688 136.054688 C 116.785156 136.429688 116.753906 136.550781 116.753906 137.59375 C 116.753906 138.664062 116.726562 138.753906 116.257812 139.234375 C 115.960938 139.539062 115.613281 139.742188 115.386719 139.742188 C 114.792969 139.746094 113.601562 141.125 113.476562 141.957031 C 113.421875 142.316406 113.246094 142.730469 113.089844 142.871094 C 112.902344 143.039062 112.800781 143.335938 112.800781 143.703125 C 112.800781 144.082031 112.679688 144.421875 112.445312 144.707031 C 112.246094 144.941406 112.003906 145.289062 111.90625 145.476562 C 111.808594 145.664062 111.625 145.820312 111.503906 145.820312 C 111.355469 145.820312 111.28125 145.980469 111.28125 146.316406 C 111.28125 147.144531 110.457031 148.523438 109.054688 150.046875 L 108.167969 151.007812 L 107.40625 150.691406 C 106.988281 150.515625 106.542969 150.3125 106.414062 150.242188 C 105.972656 149.992188 105.277344 149.917969 104.507812 150.042969 C 104.085938 150.113281 103.640625 150.117188 103.519531 150.054688 C 101.882812 149.210938 101.238281 149.113281 100.601562 149.613281 C 100.390625 149.78125 100.128906 149.917969 100.023438 149.917969 C 99.917969 149.917969 99.722656 150.015625 99.585938 150.136719 C 99.453125 150.257812 98.878906 150.40625 98.3125 150.464844 C 97.289062 150.570312 97.277344 150.574219 96.144531 151.664062 C 95.515625 152.265625 94.820312 152.855469 94.59375 152.96875 C 94.179688 153.175781 94.113281 153.226562 93.238281 153.980469 C 92.757812 154.398438 92.285156 155.421875 92.285156 156.054688 C 92.285156 156.242188 91.980469 156.675781 91.554688 157.085938 L 90.824219 157.796875 L 89.691406 157.714844 C 88.917969 157.65625 87.960938 157.730469 86.675781 157.941406 L 84.789062 158.253906 L 84.015625 159.003906 C 83.308594 159.691406 83.148438 159.769531 82.175781 159.929688 C 81.59375 160.027344 80.894531 160.144531 80.625 160.191406 C 80.355469 160.238281 80.058594 160.371094 79.960938 160.488281 C 79.863281 160.605469 79.71875 160.699219 79.636719 160.699219 C 79.554688 160.699219 79.273438 160.796875 79.007812 160.914062 C 78.257812 161.253906 75.835938 161.558594 75.1875 161.398438 C 74.574219 161.242188 73.636719 160.304688 73.527344 159.738281 C 73.410156 159.097656 72.460938 158.183594 71.765625 158.039062 C 71.164062 157.910156 70.398438 157.183594 70.09375 156.441406 C 69.980469 156.171875 69.71875 155.769531 69.515625 155.554688 C 69.3125 155.335938 68.980469 154.902344 68.78125 154.585938 C 68.582031 154.273438 68.359375 154.019531 68.285156 154.019531 C 68.210938 154.019531 67.929688 153.675781 67.664062 153.257812 C 67.394531 152.839844 67.121094 152.5 67.054688 152.5 C 66.714844 152.5 64.390625 150.164062 64.070312 149.5 C 63.9375 149.230469 63.769531 149.007812 63.695312 149.007812 C 63.621094 149.007812 63.558594 148.90625 63.558594 148.785156 C 63.558594 148.398438 62.65625 147.515625 62.148438 147.402344 C 61.84375 147.339844 61.355469 146.984375 60.863281 146.480469 C 60.253906 145.863281 59.957031 145.667969 59.617188 145.667969 C 58.960938 145.667969 58.535156 145.460938 57.90625 144.847656 C 57.296875 144.253906 57.003906 144.191406 56.417969 144.527344 C 55.882812 144.832031 54.996094 144.8125 54.703125 144.488281 C 54.566406 144.34375 54.210938 144.089844 53.910156 143.929688 C 53.398438 143.65625 53.230469 143.648438 51.734375 143.796875 C 50.199219 143.953125 50.058594 143.996094 49.160156 144.597656 C 48.640625 144.945312 48.175781 145.296875 48.125 145.375 C 48.078125 145.453125 47.894531 145.515625 47.71875 145.515625 C 47.511719 145.515625 46.921875 146.003906 46.082031 146.871094 C 44.839844 148.160156 44.761719 148.277344 44.59375 149.167969 C 44.5 149.6875 44.304688 150.238281 44.164062 150.394531 C 43.878906 150.707031 43.625 151.125 43.300781 151.816406 C 43.183594 152.066406 42.976562 152.367188 42.835938 152.480469 C 42.699219 152.59375 42.585938 152.835938 42.585938 153.015625 C 42.585938 153.195312 42.449219 153.460938 42.28125 153.601562 C 42.113281 153.746094 41.976562 153.972656 41.976562 154.105469 C 41.976562 154.238281 41.6875 154.636719 41.332031 154.988281 C 40.769531 155.542969 40.476562 155.988281 40.085938 156.902344 C 40.03125 157.027344 39.820312 157.40625 39.617188 157.738281 C 39.414062 158.074219 39.175781 158.515625 39.082031 158.726562 C 38.992188 158.933594 38.796875 159.242188 38.648438 159.410156 C 38.375 159.722656 37.875 160.933594 37.875 161.289062 C 37.875 161.402344 37.683594 161.738281 37.449219 162.042969 C 36.992188 162.640625 36.660156 163.320312 36.660156 163.65625 C 36.660156 163.773438 36.328125 164.367188 35.921875 164.976562 C 34.703125 166.820312 34.378906 167.527344 34.378906 168.34375 C 34.378906 168.996094 34.300781 169.167969 33.695312 169.878906 C 33.074219 170.601562 33.011719 170.753906 33.011719 171.464844 C 33.011719 172.144531 32.945312 172.316406 32.515625 172.753906 C 31.75 173.535156 30.8125 175.535156 30.671875 176.679688 C 30.605469 177.226562 30.421875 177.609375 29.898438 178.273438 C 29.480469 178.808594 29.210938 179.304688 29.210938 179.546875 C 29.210938 179.769531 29.109375 180.03125 28.984375 180.136719 C 28.859375 180.242188 28.753906 180.484375 28.753906 180.679688 C 28.753906 180.871094 28.578125 181.359375 28.363281 181.761719 C 28.023438 182.390625 27.980469 182.613281 28.058594 183.402344 L 28.144531 184.3125 L 27.386719 185.109375 C 26.636719 185.894531 26.628906 185.914062 26.628906 186.890625 C 26.628906 187.777344 26.574219 187.945312 26.113281 188.546875 C 25.832031 188.917969 25.554688 189.46875 25.5 189.769531 C 25.355469 190.539062 24.847656 191.675781 24.648438 191.675781 C 24.558594 191.675781 24.273438 192.125 24.015625 192.675781 C 23.621094 193.519531 23.574219 193.730469 23.71875 194.046875 C 24.0625 194.800781 23.9375 195.203125 23.113281 195.960938 L 22.332031 196.675781 L 22.4375 197.75 L 22.542969 198.820312 L 21.859375 199.796875 L 21.179688 200.769531 L 21.421875 201.53125 C 21.664062 202.289062 21.664062 202.292969 21.183594 203.378906 C 20.917969 203.980469 20.699219 204.601562 20.699219 204.765625 C 20.699219 205.226562 19.949219 206.695312 19.625 206.867188 C 19.316406 207.03125 19.222656 207.6875 19.484375 207.847656 C 19.773438 208.027344 19.664062 209.589844 19.332031 210.007812 C 19.164062 210.222656 19.027344 210.515625 19.027344 210.660156 C 19.027344 210.804688 18.929688 211.007812 18.808594 211.109375 C 18.6875 211.207031 18.398438 211.609375 18.171875 212 C 17.652344 212.882812 17.589844 214.066406 18.042969 214.398438 C 18.324219 214.601562 18.320312 214.617188 17.996094 214.84375 C 17.8125 214.972656 17.660156 215.160156 17.660156 215.261719 C 17.660156 215.363281 17.453125 215.699219 17.195312 216.011719 C 16.914062 216.351562 16.679688 216.859375 16.601562 217.296875 C 16.527344 217.695312 16.355469 218.328125 16.214844 218.707031 C 16.011719 219.261719 15.992188 219.535156 16.117188 220.160156 C 16.222656 220.691406 16.222656 221.128906 16.117188 221.554688 C 15.996094 222.019531 16.011719 222.425781 16.183594 223.210938 C 16.308594 223.78125 16.378906 224.492188 16.339844 224.789062 C 16.289062 225.164062 16.339844 225.386719 16.507812 225.527344 C 16.640625 225.636719 16.75 225.816406 16.75 225.925781 C 16.75 226.214844 17.921875 226.355469 19.3125 226.234375 C 20.578125 226.121094 21.183594 226.261719 21.652344 226.761719 C 22.054688 227.191406 22.816406 227.140625 23.472656 226.640625 C 24.15625 226.117188 24.726562 225.425781 24.878906 224.929688 C 24.945312 224.722656 25.160156 224.3125 25.355469 224.023438 C 25.589844 223.679688 25.714844 223.277344 25.714844 222.867188 C 25.714844 222.15625 25.980469 221.285156 26.195312 221.285156 C 26.273438 221.285156 26.445312 221.03125 26.574219 220.71875 C 26.707031 220.40625 26.90625 220.09375 27.023438 220.027344 C 27.140625 219.960938 27.234375 219.730469 27.234375 219.511719 C 27.234375 219.296875 27.378906 218.890625 27.554688 218.605469 C 27.816406 218.183594 27.855469 217.941406 27.78125 217.222656 C 27.464844 214.121094 27.464844 214.167969 27.960938 213.644531 C 28.210938 213.378906 28.46875 212.996094 28.53125 212.792969 C 28.589844 212.589844 28.769531 212.214844 28.925781 211.957031 C 29.109375 211.660156 29.210938 211.207031 29.210938 210.691406 C 29.210938 210.089844 29.273438 209.867188 29.460938 209.792969 C 29.675781 209.710938 29.695312 209.496094 29.601562 208.050781 L 29.5 206.402344 L 30 205.683594 C 30.277344 205.289062 30.621094 204.875 30.769531 204.765625 C 30.984375 204.605469 31.035156 204.328125 31.035156 203.324219 L 31.039062 202.078125 L 31.945312 201.117188 C 32.828125 200.179688 32.84375 200.148438 32.609375 199.789062 C 32.460938 199.5625 32.402344 199.257812 32.453125 199.003906 C 32.5 198.773438 32.613281 198.175781 32.707031 197.675781 C 32.796875 197.171875 33.214844 196.046875 33.640625 195.167969 C 34.597656 193.183594 34.636719 193.082031 34.746094 192.457031 C 34.824219 192 35.183594 191.429688 35.820312 190.757812 C 35.96875 190.597656 36.035156 190.234375 36.019531 189.65625 C 36 188.917969 36.0625 188.703125 36.460938 188.148438 C 37.132812 187.207031 37.511719 186.378906 37.632812 185.601562 C 37.691406 185.226562 37.910156 184.628906 38.117188 184.269531 C 38.328125 183.914062 38.484375 183.503906 38.46875 183.359375 C 38.449219 183.214844 38.515625 182.90625 38.609375 182.667969 C 38.707031 182.433594 38.785156 182.121094 38.785156 181.972656 C 38.785156 181.824219 38.921875 181.578125 39.089844 181.425781 C 39.257812 181.277344 39.394531 181.089844 39.394531 181.011719 C 39.394531 180.9375 39.558594 180.65625 39.761719 180.390625 C 40.140625 179.894531 40.507812 179.035156 40.683594 178.238281 C 40.742188 177.988281 40.863281 177.738281 40.953125 177.683594 C 41.046875 177.625 41.171875 177.09375 41.234375 176.503906 C 41.300781 175.914062 41.457031 175.277344 41.589844 175.09375 C 41.71875 174.90625 41.824219 174.558594 41.824219 174.320312 C 41.824219 173.992188 42.03125 173.683594 42.660156 173.070312 C 43.34375 172.402344 43.539062 172.09375 43.722656 171.398438 C 43.898438 170.714844 44.125 170.347656 44.851562 169.574219 C 45.625 168.75 45.769531 168.5 45.851562 167.878906 C 45.902344 167.480469 46.007812 167.035156 46.089844 166.890625 C 46.167969 166.746094 46.234375 166.539062 46.234375 166.433594 C 46.234375 166.152344 47.113281 164.503906 47.589844 163.886719 C 47.816406 163.597656 48.191406 162.945312 48.417969 162.445312 C 49.21875 160.699219 49.65625 159.914062 50.214844 159.238281 C 50.523438 158.867188 50.824219 158.410156 50.882812 158.226562 C 50.9375 158.042969 51.144531 157.699219 51.339844 157.46875 C 51.710938 157.023438 52.003906 156.175781 52.007812 155.535156 C 52.011719 155.304688 52.21875 154.957031 52.535156 154.648438 C 53.054688 154.144531 53.078125 154.136719 54.253906 154.191406 L 55.441406 154.246094 L 56.214844 155.019531 C 56.640625 155.441406 57.035156 155.945312 57.097656 156.136719 C 57.15625 156.324219 57.414062 156.664062 57.667969 156.882812 C 58.210938 157.355469 58.949219 158.121094 60.207031 159.519531 C 60.898438 160.285156 61.128906 160.652344 61.128906 160.992188 C 61.128906 161.367188 61.242188 161.511719 61.785156 161.832031 C 62.148438 162.042969 62.597656 162.21875 62.78125 162.21875 C 62.960938 162.21875 63.152344 162.320312 63.199219 162.445312 C 63.25 162.570312 63.382812 162.671875 63.503906 162.671875 C 63.621094 162.671875 63.789062 162.863281 63.878906 163.089844 C 63.964844 163.320312 64.125 163.609375 64.234375 163.738281 C 64.339844 163.863281 64.476562 164.15625 64.53125 164.390625 C 64.585938 164.625 65.175781 165.382812 65.84375 166.078125 C 66.542969 166.804688 67.054688 167.46875 67.054688 167.644531 C 67.054688 168.027344 66.65625 168.996094 66.445312 169.128906 C 66.359375 169.179688 66.1875 169.46875 66.0625 169.765625 C 65.824219 170.335938 64.878906 171.328125 64.574219 171.328125 C 64.261719 171.328125 63.570312 172.328125 63.65625 172.65625 C 63.742188 172.980469 62.921875 174.0625 62.589844 174.0625 C 62.265625 174.0625 61.59375 174.980469 61.5 175.554688 C 61.34375 176.492188 61.117188 176.921875 60.464844 177.507812 C 59.527344 178.351562 59 179.066406 58.996094 179.511719 C 58.992188 179.730469 58.890625 180.042969 58.765625 180.203125 C 58.644531 180.367188 58.542969 180.613281 58.542969 180.753906 C 58.542969 180.894531 58.441406 181.09375 58.316406 181.199219 C 58.191406 181.300781 58.015625 181.65625 57.929688 181.988281 C 57.722656 182.746094 56.0625 184.460938 55.386719 184.609375 C 55.09375 184.671875 54.683594 184.992188 54.265625 185.484375 C 53.164062 186.773438 52.730469 187.125 52.101562 187.222656 C 51.625 187.300781 51.253906 187.566406 50.164062 188.628906 C 49.421875 189.347656 48.816406 190.023438 48.816406 190.125 C 48.816406 190.230469 47.996094 191.144531 46.992188 192.164062 C 45.988281 193.179688 45.167969 194.070312 45.167969 194.136719 C 45.167969 194.203125 45.066406 194.257812 44.941406 194.257812 C 44.796875 194.257812 44.714844 194.402344 44.714844 194.648438 C 44.714844 194.984375 44.421875 195.835938 43.941406 196.914062 C 43.867188 197.082031 43.671875 197.390625 43.511719 197.597656 C 43.269531 197.914062 43.203125 198.308594 43.140625 199.910156 L 43.0625 201.84375 L 42.519531 202.550781 C 42.054688 203.160156 41.976562 203.375 41.976562 204.066406 C 41.976562 204.507812 41.921875 204.90625 41.851562 204.945312 C 41.78125 204.988281 41.605469 205.457031 41.453125 205.980469 C 41.304688 206.507812 41.082031 207.207031 40.960938 207.535156 C 40.695312 208.261719 40.832031 211.226562 41.160156 211.859375 C 41.273438 212.074219 41.367188 212.574219 41.367188 212.96875 C 41.371094 213.527344 41.304688 213.71875 41.066406 213.847656 C 40.832031 213.972656 40.761719 214.164062 40.761719 214.667969 C 40.761719 215.046875 40.851562 215.402344 40.972656 215.503906 C 41.34375 215.808594 41.367188 216.601562 41.03125 217.316406 C 40.777344 217.851562 40.738281 218.144531 40.816406 218.898438 C 40.871094 219.40625 41.015625 219.933594 41.140625 220.074219 C 41.4375 220.398438 41.433594 220.964844 41.128906 221.300781 C 40.875 221.578125 40.941406 221.839844 41.582031 223.121094 C 41.703125 223.359375 41.753906 223.832031 41.710938 224.347656 C 41.664062 224.90625 41.714844 225.332031 41.863281 225.628906 C 41.988281 225.871094 42.132812 226.320312 42.1875 226.625 C 42.246094 226.929688 42.4375 227.367188 42.621094 227.597656 C 43.070312 228.167969 43.179688 229.589844 42.816406 230.144531 C 42.570312 230.519531 42.574219 230.570312 42.914062 231.246094 C 43.105469 231.636719 43.347656 231.984375 43.449219 232.023438 C 44.035156 232.25 44.5625 233.992188 44.5625 235.703125 L 44.5625 236.738281 L 45.625 237.722656 C 46.210938 238.261719 46.6875 238.808594 46.6875 238.9375 C 46.6875 239.066406 46.851562 239.214844 47.050781 239.261719 C 47.253906 239.3125 47.628906 239.597656 47.886719 239.890625 C 48.304688 240.367188 48.359375 240.539062 48.359375 241.351562 C 48.359375 242.230469 48.386719 242.296875 49.007812 242.902344 C 49.363281 243.25 49.925781 243.875 50.253906 244.292969 C 50.585938 244.710938 51.347656 245.539062 51.953125 246.136719 C 52.554688 246.734375 53.214844 247.484375 53.421875 247.808594 C 54.015625 248.734375 54.511719 249.109375 55.324219 249.234375 C 56.230469 249.378906 56.945312 249.988281 57.101562 250.746094 C 57.160156 251.039062 57.355469 251.4375 57.535156 251.632812 C 57.855469 251.980469 57.894531 252.378906 57.769531 254.125 C 57.753906 254.355469 57.859375 254.679688 58.007812 254.839844 C 58.207031 255.0625 58.25 255.265625 58.171875 255.636719 C 57.957031 256.648438 58.023438 256.890625 58.695312 257.601562 L 59.351562 258.292969 L 59.316406 259.539062 C 59.285156 260.742188 59.300781 260.800781 59.746094 261.257812 C 60.003906 261.519531 60.253906 261.957031 60.304688 262.230469 C 60.359375 262.507812 60.496094 262.808594 60.613281 262.90625 C 60.726562 263.003906 60.824219 263.179688 60.824219 263.296875 C 60.824219 263.414062 60.929688 263.550781 61.054688 263.597656 C 61.335938 263.707031 62.039062 265.144531 62.039062 265.613281 C 62.039062 265.800781 61.96875 266.085938 61.878906 266.25 C 61.742188 266.503906 61.847656 266.691406 62.5625 267.492188 C 63.027344 268.011719 63.40625 268.554688 63.40625 268.703125 C 63.40625 268.851562 63.578125 269.117188 63.789062 269.300781 C 64.039062 269.519531 64.167969 269.789062 64.167969 270.105469 C 64.167969 270.445312 64.316406 270.722656 64.699219 271.09375 C 65.109375 271.492188 65.230469 271.730469 65.230469 272.148438 C 65.234375 273.148438 65.507812 273.734375 66.367188 274.582031 C 66.867188 275.078125 67.207031 275.542969 67.207031 275.738281 C 67.207031 276.101562 67.609375 276.671875 68.4375 277.480469 C 68.824219 277.855469 69.027344 278.210938 69.101562 278.648438 C 69.179688 279.113281 69.339844 279.375 69.714844 279.664062 C 69.996094 279.878906 70.320312 280.050781 70.433594 280.050781 C 70.785156 280.050781 71.554688 281.003906 71.742188 281.671875 C 71.859375 282.074219 72.125 282.476562 72.488281 282.785156 C 73.777344 283.882812 74.019531 284.128906 74.121094 284.472656 C 74.371094 285.320312 75.785156 287.039062 76.230469 287.039062 C 76.335938 287.039062 76.5625 287.199219 76.734375 287.398438 C 76.90625 287.59375 77.433594 287.945312 77.902344 288.171875 C 78.371094 288.402344 78.757812 288.644531 78.757812 288.714844 C 78.757812 288.78125 78.960938 288.878906 79.210938 288.933594 C 79.488281 288.996094 79.769531 289.210938 79.933594 289.484375 C 80.078125 289.730469 80.347656 289.972656 80.527344 290.015625 C 80.707031 290.0625 81.011719 290.265625 81.203125 290.46875 C 81.515625 290.804688 81.664062 290.832031 82.945312 290.832031 C 83.921875 290.832031 84.394531 290.894531 84.511719 291.035156 C 84.632812 291.179688 84.878906 291.207031 85.402344 291.128906 C 86.8125 290.917969 87.78125 290.675781 88.019531 290.472656 C 88.441406 290.105469 89.335938 289.902344 90.105469 290.003906 C 90.769531 290.09375 90.894531 290.058594 91.429688 289.632812 C 92.082031 289.113281 92.453125 289.046875 92.738281 289.390625 C 93.054688 289.769531 93.546875 289.644531 94.15625 289.027344 C 94.789062 288.382812 95.199219 288.253906 96.585938 288.253906 C 97.273438 288.253906 97.585938 288.179688 97.820312 287.96875 C 97.992188 287.8125 98.597656 287.53125 99.164062 287.347656 C 99.75 287.15625 100.519531 286.753906 100.945312 286.417969 C 101.359375 286.089844 101.832031 285.824219 101.996094 285.824219 C 102.507812 285.824219 103.039062 285.550781 103.636719 284.988281 C 103.957031 284.6875 104.640625 284.101562 105.160156 283.679688 C 106.078125 282.941406 106.128906 282.921875 106.820312 283.023438 C 108.414062 283.261719 108.714844 284.824219 107.441406 286.234375 C 107.183594 286.519531 107.15625 286.683594 107.253906 287.371094 C 107.480469 288.988281 107.257812 291.136719 106.859375 291.136719 C 106.78125 291.136719 106.757812 291.300781 106.808594 291.5 C 106.859375 291.699219 106.824219 291.910156 106.734375 291.964844 C 106.484375 292.121094 106.539062 292.976562 106.820312 293.289062 C 106.992188 293.480469 107.089844 293.933594 107.136719 294.742188 C 107.171875 295.390625 107.304688 296.125 107.429688 296.375 C 107.582031 296.667969 107.707031 297.558594 107.785156 298.882812 C 107.894531 300.742188 107.949219 301.015625 108.378906 301.871094 C 108.636719 302.386719 108.917969 302.855469 109 302.90625 C 109.085938 302.957031 109.152344 303.472656 109.152344 304.054688 C 109.152344 305.027344 109.191406 305.148438 109.65625 305.675781 C 109.929688 305.988281 110.285156 306.554688 110.441406 306.929688 C 110.601562 307.304688 110.84375 307.75 110.988281 307.917969 C 111.371094 308.367188 111.585938 308.839844 111.589844 309.234375 C 111.59375 309.667969 112.25 310.402344 112.976562 310.789062 C 113.277344 310.949219 113.910156 311.433594 114.378906 311.867188 C 115.097656 312.53125 115.234375 312.738281 115.234375 313.179688 C 115.234375 313.464844 115.164062 313.773438 115.078125 313.859375 C 114.859375 314.074219 115.421875 314.765625 115.921875 314.890625 C 116.4375 315.019531 117.769531 316.285156 117.890625 316.765625 C 118.007812 317.230469 118.523438 317.753906 119.738281 318.636719 L 120.675781 319.316406 L 122.269531 319.199219 C 124.035156 319.066406 124.515625 318.867188 125.699219 317.785156 C 126.546875 317.007812 126.6875 316.648438 126.414062 315.921875 C 126.296875 315.613281 126.167969 315.070312 126.128906 314.71875 C 126.085938 314.363281 125.910156 313.894531 125.734375 313.671875 C 125.558594 313.449219 125.417969 313.148438 125.417969 313 C 125.417969 312.855469 124.988281 312.351562 124.464844 311.878906 C 123.554688 311.058594 122.945312 310.347656 122.167969 309.207031 C 121.800781 308.667969 121.199219 308.058594 119.914062 306.925781 C 119.519531 306.578125 119.148438 306.148438 119.09375 305.964844 C 119.035156 305.785156 118.871094 305.554688 118.726562 305.453125 C 118.539062 305.324219 118.441406 304.992188 118.394531 304.335938 C 118.34375 303.644531 118.25 303.339844 118.023438 303.15625 C 117.621094 302.824219 116.753906 301.6875 116.753906 301.488281 C 116.753906 301.402344 116.597656 301.207031 116.410156 301.054688 C 115.828125 300.585938 115.488281 299.910156 115.449219 299.144531 C 115.429688 298.742188 115.285156 298.226562 115.132812 298 C 114.914062 297.679688 114.851562 297.292969 114.847656 296.222656 C 114.84375 295.472656 114.785156 294.507812 114.714844 294.082031 C 114.601562 293.386719 114.628906 293.230469 115.003906 292.597656 C 115.410156 291.902344 115.417969 291.839844 115.425781 289.273438 C 115.433594 287.835938 115.390625 286.515625 115.332031 286.339844 C 115.261719 286.121094 115.324219 285.941406 115.535156 285.75 C 115.703125 285.597656 115.839844 285.320312 115.839844 285.140625 C 115.839844 284.957031 115.976562 284.683594 116.144531 284.535156 C 116.339844 284.355469 116.414062 284.148438 116.359375 283.925781 C 116.261719 283.535156 116.746094 282.53125 117.277344 282.035156 C 117.523438 281.804688 117.675781 281.445312 117.746094 280.929688 C 117.851562 280.15625 118.28125 279.039062 118.960938 277.753906 C 119.199219 277.3125 119.335938 276.800781 119.335938 276.378906 C 119.335938 275.515625 119.914062 274.90625 120.835938 274.78125 C 121.324219 274.714844 121.640625 274.527344 122.261719 273.925781 C 123.40625 272.816406 123.875 272.484375 124.171875 272.5625 C 124.316406 272.597656 124.671875 272.46875 124.964844 272.273438 C 125.953125 271.605469 126.308594 271.53125 127.3125 271.765625 C 128.058594 271.941406 128.339844 272.105469 128.871094 272.667969 C 129.34375 273.167969 129.519531 273.480469 129.519531 273.816406 C 129.519531 274.074219 129.582031 274.28125 129.660156 274.28125 C 129.738281 274.28125 129.84375 274.40625 129.890625 274.554688 C 129.9375 274.703125 130.375 275.238281 130.867188 275.742188 C 131.507812 276.402344 131.785156 276.8125 131.863281 277.230469 C 131.929688 277.582031 132.171875 278.003906 132.492188 278.324219 C 132.78125 278.613281 133.015625 278.949219 133.015625 279.070312 C 133.015625 279.191406 133.085938 279.292969 133.175781 279.292969 C 133.261719 279.292969 133.503906 279.476562 133.710938 279.699219 C 133.917969 279.921875 134.238281 280.179688 134.425781 280.273438 C 134.800781 280.460938 135.503906 281.804688 135.386719 282.113281 C 135.3125 282.308594 136.238281 283.242188 136.503906 283.242188 C 136.578125 283.242188 136.84375 283.523438 137.097656 283.867188 C 137.65625 284.625 139.007812 285.671875 139.429688 285.671875 C 139.78125 285.671875 140.539062 286.269531 141.03125 286.9375 C 141.339844 287.355469 141.367188 287.53125 141.3125 288.769531 C 141.257812 289.984375 141.207031 290.171875 140.894531 290.425781 C 139.214844 291.765625 139.183594 291.980469 140.433594 293.484375 C 140.5 293.5625 140.523438 294.027344 140.488281 294.515625 C 140.441406 295.175781 140.496094 295.539062 140.691406 295.90625 C 141.011719 296.496094 140.917969 297.28125 140.457031 297.863281 C 140.136719 298.273438 140.039062 299.398438 140.3125 299.566406 C 140.398438 299.617188 140.605469 299.933594 140.777344 300.269531 C 141.066406 300.832031 141.074219 300.957031 140.898438 302 C 140.714844 303.082031 140.722656 303.140625 141.042969 303.480469 C 141.277344 303.734375 141.375 304.027344 141.378906 304.507812 C 141.382812 305.523438 141.609375 306.308594 142.027344 306.757812 C 142.277344 307.027344 142.433594 307.414062 142.5 307.949219 C 142.554688 308.382812 142.699219 309.023438 142.824219 309.371094 C 142.945312 309.71875 143.046875 310.222656 143.046875 310.484375 C 143.046875 311.089844 143.523438 312.46875 143.855469 312.816406 C 144.296875 313.277344 144.816406 313.980469 144.914062 314.257812 C 144.96875 314.402344 145.109375 314.523438 145.226562 314.523438 C 145.367188 314.523438 145.472656 314.773438 145.535156 315.25 C 145.617188 315.859375 145.75 316.089844 146.351562 316.667969 C 147.519531 317.789062 148.089844 318.003906 149.660156 317.917969 C 151.757812 317.804688 152.441406 317.285156 152.609375 315.675781 C 152.675781 315.039062 152.8125 314.578125 152.996094 314.375 C 153.546875 313.765625 153.304688 311.90625 152.570312 311.105469 C 152.417969 310.9375 152.191406 310.613281 152.070312 310.382812 C 151.953125 310.152344 151.785156 309.964844 151.699219 309.964844 C 151.539062 309.964844 150.644531 308.203125 150.644531 307.886719 C 150.644531 307.789062 150.519531 307.617188 150.363281 307.507812 C 150.210938 307.398438 149.871094 306.96875 149.613281 306.550781 C 149.210938 305.90625 149.171875 305.761719 149.347656 305.566406 C 149.460938 305.4375 149.601562 305.027344 149.65625 304.652344 C 149.742188 304.058594 149.699219 303.886719 149.332031 303.359375 C 148.925781 302.773438 148.910156 302.679688 148.859375 300.476562 C 148.808594 298.367188 148.777344 298.160156 148.441406 297.667969 C 147.960938 296.964844 147.761719 295.585938 148.125 295.449219 C 148.707031 295.226562 148.824219 294.605469 148.820312 291.789062 C 148.816406 290.253906 148.910156 288.398438 149.035156 287.492188 C 149.15625 286.617188 149.257812 285.570312 149.265625 285.171875 C 149.28125 284.265625 149.539062 283.636719 150.328125 282.589844 C 150.820312 281.941406 150.949219 281.640625 150.949219 281.148438 C 150.949219 280.808594 151.019531 280.335938 151.109375 280.101562 C 151.328125 279.503906 152.066406 278.890625 152.703125 278.769531 C 152.996094 278.714844 153.476562 278.53125 153.769531 278.359375 C 154.597656 277.867188 155.113281 278.050781 156.296875 279.253906 C 156.847656 279.820312 157.550781 280.511719 157.851562 280.796875 C 158.230469 281.15625 158.429688 281.496094 158.496094 281.910156 C 158.546875 282.238281 158.683594 282.542969 158.796875 282.585938 C 158.910156 282.628906 159.003906 282.757812 159.003906 282.875 C 159.003906 282.988281 159.214844 283.191406 159.46875 283.324219 C 159.726562 283.453125 160.257812 283.867188 160.648438 284.238281 C 161.417969 284.96875 161.464844 284.988281 162.535156 285.136719 C 163.15625 285.21875 163.386719 285.359375 164.167969 286.136719 C 164.667969 286.632812 165.152344 287.039062 165.238281 287.039062 C 165.324219 287.039062 165.6875 287.308594 166.046875 287.636719 C 167.367188 288.855469 168.386719 288.847656 169.597656 287.601562 C 170.023438 287.164062 170.421875 286.636719 170.484375 286.429688 C 170.542969 286.222656 170.722656 285.867188 170.878906 285.648438 C 171.035156 285.425781 171.164062 285.164062 171.164062 285.070312 C 171.164062 284.835938 171.9375 283.84375 173.023438 282.683594 C 173.503906 282.171875 173.898438 281.617188 173.898438 281.457031 C 173.898438 281.085938 174.511719 280.507812 174.902344 280.507812 C 175.089844 280.507812 175.753906 279.917969 176.640625 278.960938 C 177.429688 278.113281 178.28125 277.199219 178.535156 276.933594 L 178.988281 276.449219 L 179.414062 276.882812 C 179.777344 277.25 179.824219 277.394531 179.738281 277.855469 C 179.664062 278.257812 179.703125 278.464844 179.886719 278.65625 C 180.023438 278.796875 180.390625 279.253906 180.703125 279.671875 L 181.269531 280.433594 L 181.316406 285.527344 L 181.863281 286.085938 C 182.285156 286.519531 182.410156 286.773438 182.410156 287.191406 C 182.410156 287.492188 182.332031 287.8125 182.238281 287.90625 C 181.980469 288.164062 182.183594 288.722656 182.785156 289.394531 C 183.308594 289.984375 183.472656 290.570312 183.167969 290.757812 C 183.085938 290.808594 183.015625 291.023438 183.015625 291.230469 C 183.015625 291.4375 182.890625 291.859375 182.730469 292.171875 C 182.101562 293.410156 181.945312 293.84375 181.738281 294.953125 C 181.5625 295.886719 181.398438 296.273438 180.902344 296.929688 C 180.558594 297.375 180.207031 297.980469 180.113281 298.273438 C 180.019531 298.566406 179.851562 298.957031 179.734375 299.140625 C 179.621094 299.324219 179.480469 299.972656 179.421875 300.582031 L 179.320312 301.691406 L 178.300781 302.753906 C 177.738281 303.339844 177.160156 304.054688 177.011719 304.34375 C 176.863281 304.632812 176.371094 305.214844 175.914062 305.632812 C 175.089844 306.390625 174.207031 307.695312 174.203125 308.15625 C 174.203125 308.511719 172.148438 310.414062 171.65625 310.511719 C 171.414062 310.5625 170.726562 311.078125 170.035156 311.734375 C 169.042969 312.675781 168.71875 312.890625 168.144531 313 C 167.269531 313.160156 166.148438 314.25 166.148438 314.933594 C 166.148438 315.171875 166.039062 315.523438 165.902344 315.714844 C 165.691406 316.015625 165.679688 316.214844 165.832031 317.226562 C 165.984375 318.246094 166.074219 318.460938 166.550781 318.949219 C 166.851562 319.257812 167.257812 319.550781 167.453125 319.597656 C 167.648438 319.648438 167.882812 319.824219 167.972656 319.988281 C 168.066406 320.164062 168.289062 320.292969 168.5 320.292969 C 168.699219 320.292969 169.050781 320.363281 169.285156 320.453125 C 169.875 320.675781 170.785156 320.484375 171.332031 320.023438 C 171.613281 319.789062 172.097656 319.585938 172.550781 319.515625 C 173.625 319.347656 174.894531 318.65625 175.589844 317.863281 C 176.074219 317.3125 176.566406 316.761719 177.058594 316.214844 C 177.535156 315.6875 177.984375 315.152344 178.054688 315.027344 C 178.21875 314.734375 179.742188 313.214844 180.03125 313.054688 C 180.226562 312.945312 181.703125 311.625 182.828125 310.546875 C 183.082031 310.304688 183.167969 310.050781 183.167969 309.535156 C 183.167969 308.59375 183.679688 307.582031 184.285156 307.320312 C 184.550781 307.207031 185.125 306.777344 185.5625 306.367188 C 186.207031 305.765625 186.359375 305.523438 186.359375 305.128906 C 186.359375 304.863281 186.472656 304.472656 186.605469 304.269531 C 186.761719 304.03125 186.878906 303.410156 186.933594 302.566406 L 187.015625 301.234375 L 187.902344 300.378906 L 188.792969 299.523438 L 188.792969 298.542969 C 188.792969 297.777344 188.855469 297.503906 189.074219 297.304688 C 189.296875 297.105469 189.375 296.757812 189.4375 295.699219 C 189.496094 294.628906 189.582031 294.261719 189.835938 293.9375 C 190.101562 293.601562 190.160156 293.316406 190.164062 292.371094 C 190.167969 291.59375 190.242188 291.117188 190.394531 290.917969 C 190.707031 290.503906 190.671875 290.019531 190.300781 289.683594 C 190.039062 289.445312 190 289.292969 190.085938 288.785156 C 190.261719 287.734375 190.226562 286.613281 190.003906 286.347656 C 189.730469 286.019531 189.683594 285.652344 189.882812 285.414062 C 189.992188 285.277344 189.988281 284.660156 189.867188 283.359375 C 189.621094 280.726562 189.582031 280.546875 189.160156 280.15625 L 188.78125 279.804688 L 189.203125 279.324219 C 189.503906 278.984375 189.765625 278.84375 190.085938 278.84375 C 190.335938 278.84375 190.9375 278.839844 191.417969 278.835938 C 191.902344 278.835938 192.421875 278.898438 192.574219 278.980469 C 192.726562 279.0625 193.28125 279.195312 193.8125 279.28125 C 194.585938 279.40625 194.859375 279.527344 195.203125 279.90625 C 195.664062 280.410156 195.726562 280.65625 195.464844 280.917969 C 195.34375 281.035156 195.363281 281.183594 195.535156 281.441406 C 195.664062 281.636719 195.941406 282.257812 196.15625 282.824219 C 196.59375 283.984375 196.800781 284.386719 197.210938 284.867188 C 197.414062 285.105469 197.53125 285.5625 197.605469 286.386719 C 197.675781 287.140625 197.832031 287.789062 198.039062 288.175781 C 198.21875 288.507812 198.367188 288.859375 198.367188 288.960938 C 198.367188 289.058594 198.527344 289.332031 198.726562 289.570312 C 198.921875 289.804688 199.125 290.203125 199.171875 290.453125 C 199.378906 291.527344 199.484375 291.835938 199.738281 292.125 C 200.097656 292.527344 200.175781 292.953125 199.972656 293.414062 C 199.699219 294.027344 199.777344 294.253906 200.527344 295.054688 C 201.230469 295.804688 201.511719 296.320312 201.960938 297.695312 C 202.089844 298.085938 202.324219 298.523438 202.484375 298.667969 C 202.675781 298.839844 202.773438 299.128906 202.773438 299.523438 C 202.773438 300.167969 202.914062 300.503906 203.519531 301.296875 C 203.855469 301.738281 203.941406 302.074219 204.078125 303.480469 C 204.207031 304.753906 204.304688 305.175781 204.496094 305.285156 C 204.636719 305.363281 204.75 305.496094 204.75 305.578125 C 204.75 305.660156 204.992188 305.976562 205.28125 306.277344 C 205.574219 306.578125 205.816406 306.921875 205.816406 307.042969 C 205.816406 307.164062 205.4375 307.691406 204.980469 308.214844 C 204.519531 308.738281 204.144531 309.261719 204.144531 309.375 C 204.144531 309.492188 203.703125 309.984375 203.164062 310.472656 C 202.320312 311.238281 202.167969 311.453125 202.082031 312.027344 C 202.027344 312.390625 201.886719 312.769531 201.769531 312.863281 C 201.65625 312.960938 201.558594 313.117188 201.558594 313.210938 C 201.558594 313.394531 199.871094 315.339844 199.171875 315.960938 C 198.265625 316.769531 197.515625 317.347656 197.105469 317.554688 C 196.230469 317.996094 195.445312 318.832031 195.007812 319.773438 C 194.765625 320.292969 194.566406 320.816406 194.566406 320.933594 C 194.566406 321.050781 194.46875 321.277344 194.34375 321.441406 C 194.195312 321.636719 194.121094 322.117188 194.117188 322.898438 L 194.113281 324.0625 L 195.101562 324.96875 C 196.136719 325.917969 196.636719 326.136719 197.054688 325.832031 C 197.351562 325.613281 197.984375 325.707031 198.230469 326.003906 C 198.347656 326.148438 198.746094 326.214844 199.480469 326.214844 C 200.4375 326.214844 200.601562 326.171875 200.980469 325.804688 C 201.320312 325.480469 201.40625 325.261719 201.40625 324.738281 C 201.40625 324.140625 201.488281 323.992188 202.21875 323.246094 C 202.664062 322.789062 203.136719 322.417969 203.273438 322.417969 C 203.660156 322.417969 204.324219 322.089844 204.871094 321.625 C 205.144531 321.394531 205.4375 321.203125 205.519531 321.203125 C 205.601562 321.203125 205.742188 321.050781 205.828125 320.863281 C 206.359375 319.71875 206.496094 319.5625 208.816406 317.367188 C 209.421875 316.800781 210.230469 316.59375 210.449219 316.953125 C 210.5 317.035156 210.695312 317.101562 210.878906 317.105469 C 211.085938 317.105469 211.738281 317.605469 212.648438 318.464844 L 214.089844 319.824219 L 214.097656 320.871094 C 214.105469 321.773438 214.160156 321.980469 214.515625 322.398438 C 215.023438 323.003906 215.632812 323.515625 216.226562 323.835938 C 217.152344 324.339844 217.535156 324.773438 217.625 325.433594 C 217.671875 325.777344 217.789062 326.0625 217.886719 326.0625 C 218.132812 326.0625 218.652344 327.269531 218.605469 327.734375 C 218.550781 328.246094 217.785156 328.882812 216.964844 329.089844 C 216.464844 329.214844 216.21875 329.382812 216.003906 329.746094 C 215.542969 330.519531 215.464844 330.574219 214.574219 330.683594 C 213.871094 330.773438 213.65625 330.875 213.269531 331.316406 C 213.015625 331.605469 212.804688 331.90625 212.804688 331.984375 C 212.804688 332.207031 211.128906 333.804688 210.894531 333.804688 C 210.496094 333.804688 209.460938 334.878906 209.460938 335.289062 C 209.460938 335.5 209.285156 336.046875 209.070312 336.5 C 208.714844 337.257812 208.699219 337.347656 208.917969 337.589844 C 209.050781 337.734375 209.160156 338.03125 209.160156 338.25 C 209.160156 338.640625 210.394531 340.183594 210.710938 340.183594 C 210.792969 340.183594 211.03125 340.320312 211.246094 340.488281 C 211.457031 340.65625 211.777344 340.792969 211.953125 340.792969 C 212.128906 340.792969 212.480469 340.917969 212.734375 341.074219 L 213.191406 341.351562 L 214.101562 340.859375 C 214.664062 340.554688 215.230469 340.257812 215.804688 339.96875 C 216.242188 339.75 216.671875 339.4375 216.757812 339.269531 C 216.847656 339.105469 217.007812 338.96875 217.117188 338.96875 C 217.226562 338.96875 217.550781 338.796875 217.835938 338.585938 C 218.121094 338.375 218.761719 337.933594 219.265625 337.609375 C 219.765625 337.28125 220.453125 336.75 220.792969 336.421875 C 221.207031 336.023438 221.597656 335.800781 221.996094 335.734375 C 222.378906 335.671875 222.777344 335.453125 223.128906 335.109375 C 223.730469 334.523438 224.171875 334.4375 225.5625 334.636719 C 226.269531 334.738281 226.503906 334.863281 227.191406 335.511719 C 227.632812 335.929688 228.035156 336.402344 228.085938 336.558594 C 228.136719 336.71875 228.394531 336.960938 228.660156 337.097656 C 228.925781 337.234375 229.585938 337.789062 230.132812 338.332031 C 230.675781 338.875 231.5625 339.5625 232.105469 339.859375 C 232.652344 340.152344 233.128906 340.433594 233.171875 340.480469 C 233.464844 340.804688 234.375 341.304688 235.019531 341.496094 C 235.445312 341.621094 236.109375 341.941406 236.496094 342.207031 C 236.886719 342.472656 237.441406 342.820312 237.734375 342.976562 C 238.023438 343.136719 238.433594 343.421875 238.644531 343.613281 C 239.378906 344.292969 241.945312 345.5 242.652344 345.5 C 242.808594 345.5 243.222656 345.753906 243.570312 346.066406 C 243.917969 346.382812 244.472656 346.855469 244.804688 347.125 C 245.136719 347.390625 245.640625 347.800781 245.929688 348.035156 C 246.398438 348.417969 246.589844 348.464844 247.808594 348.515625 C 249.238281 348.570312 249.347656 348.613281 250.75 349.699219 C 251.628906 350.378906 252.570312 350.8125 253.171875 350.8125 C 253.980469 350.8125 255.007812 351.113281 255.300781 351.4375 C 255.503906 351.664062 255.769531 351.726562 256.53125 351.726562 C 257.398438 351.726562 257.542969 351.769531 257.855469 352.132812 C 258.175781 352.503906 258.332031 352.550781 259.558594 352.628906 C 260.980469 352.71875 261 352.722656 262 353.484375 C 262.515625 353.878906 262.871094 354 263.914062 354.148438 C 265.074219 354.3125 265.246094 354.382812 265.699219 354.863281 C 266.441406 355.648438 266.738281 355.714844 267.613281 355.285156 C 268.464844 354.871094 269.515625 354.800781 269.800781 355.140625 C 269.941406 355.3125 270.320312 355.367188 271.3125 355.367188 C 272.527344 355.367188 272.664062 355.398438 272.992188 355.75 C 273.1875 355.957031 273.421875 356.128906 273.511719 356.128906 C 273.601562 356.128906 273.945312 356.367188 274.273438 356.660156 C 274.980469 357.289062 275.589844 357.351562 276.410156 356.867188 C 276.847656 356.609375 277.097656 356.5625 277.664062 356.640625 C 278.050781 356.695312 278.507812 356.828125 278.679688 356.941406 C 278.851562 357.050781 279.289062 357.183594 279.652344 357.230469 C 280.015625 357.277344 280.429688 357.425781 280.574219 357.558594 C 280.90625 357.855469 281.457031 357.863281 282.128906 357.585938 C 282.410156 357.46875 283.085938 357.324219 283.628906 357.269531 C 284.480469 357.179688 284.671875 357.207031 284.996094 357.460938 C 285.207031 357.625 285.683594 357.8125 286.058594 357.875 C 286.433594 357.9375 287.132812 358.195312 287.613281 358.445312 L 288.484375 358.902344 L 289.136719 358.371094 C 290.042969 357.628906 290.363281 357.558594 290.851562 357.980469 C 291.128906 358.222656 291.511719 358.355469 292.113281 358.410156 C 292.914062 358.488281 293.023438 358.457031 293.632812 357.996094 C 294.363281 357.441406 295.285156 357.316406 295.691406 357.722656 C 295.832031 357.863281 296.207031 357.949219 296.679688 357.949219 C 297.460938 357.949219 298.417969 358.367188 298.574219 358.777344 C 298.636719 358.9375 298.8125 358.902344 299.382812 358.613281 C 299.785156 358.410156 300.179688 358.179688 300.261719 358.097656 C 300.34375 358.015625 300.859375 357.949219 301.40625 357.949219 C 301.957031 357.949219 302.976562 357.878906 303.671875 357.792969 C 304.433594 357.695312 305.007812 357.6875 305.113281 357.773438 C 305.433594 358.023438 306.085938 358.058594 308.203125 357.9375 C 309.902344 357.839844 310.34375 357.859375 310.535156 358.027344 C 310.976562 358.429688 312.191406 358.074219 313.1875 357.261719 C 313.617188 356.910156 313.988281 356.730469 314.277344 356.738281 C 316.738281 356.816406 319.121094 356.625 319.359375 356.335938 C 319.457031 356.222656 319.714844 356.128906 319.933594 356.128906 C 320.457031 356.125 321.21875 355.652344 322.097656 354.78125 C 322.488281 354.394531 323.105469 353.792969 323.46875 353.449219 C 324.566406 352.40625 325.429688 351.375 325.527344 350.996094 C 325.574219 350.796875 325.539062 350.375 325.445312 350.0625 C 325.152344 349.085938 325.226562 348.859375 326.183594 347.816406 C 326.988281 346.941406 327.097656 346.746094 327.097656 346.199219 C 327.097656 345.855469 327.210938 345.199219 327.347656 344.738281 C 327.488281 344.28125 327.621094 343.480469 327.644531 342.957031 C 327.671875 342.4375 327.761719 341.878906 327.851562 341.714844 C 327.9375 341.550781 328.007812 341.222656 328.007812 340.984375 C 328.007812 340.742188 328.109375 340.414062 328.230469 340.25 C 328.355469 340.089844 328.460938 339.820312 328.464844 339.652344 C 328.46875 339.484375 328.566406 339.226562 328.679688 339.078125 C 328.824219 338.886719 328.863281 338.519531 328.804688 337.824219 C 328.742188 337.019531 328.777344 336.785156 328.996094 336.539062 C 329.21875 336.292969 329.269531 335.914062 329.300781 334.261719 C 329.328125 332.566406 329.375 332.238281 329.621094 331.964844 C 329.871094 331.6875 329.902344 331.4375 329.867188 330.042969 C 329.835938 328.921875 329.761719 328.394531 329.617188 328.277344 C 329.476562 328.164062 329.378906 327.550781 329.3125 326.367188 C 329.257812 325.40625 329.15625 324.375 329.089844 324.074219 C 329 323.6875 329.023438 323.449219 329.171875 323.25 C 329.285156 323.09375 329.375 322.773438 329.375 322.535156 C 329.375 322.296875 329.480469 321.859375 329.605469 321.558594 C 329.933594 320.769531 329.886719 320.226562 329.4375 319.695312 C 329.023438 319.203125 329.023438 319.1875 329.3125 317.519531 C 329.371094 317.167969 329.34375 316.867188 329.234375 316.738281 C 328.964844 316.410156 329.199219 314.539062 329.550781 314.238281 C 329.941406 313.902344 329.902344 313.375 329.421875 312.5625 C 329.046875 311.925781 329.011719 311.738281 329.03125 310.421875 C 329.046875 309.296875 328.996094 308.894531 328.796875 308.601562 C 328.585938 308.289062 328.539062 307.808594 328.53125 305.941406 C 328.523438 304.332031 328.460938 303.554688 328.3125 303.285156 C 328.167969 303.019531 328.101562 302.214844 328.085938 300.59375 C 328.070312 298.660156 328.023438 298.238281 327.808594 298 C 327.667969 297.847656 327.550781 297.519531 327.550781 297.273438 C 327.550781 297.03125 327.402344 296.59375 327.222656 296.300781 C 327.042969 296.007812 326.832031 295.496094 326.75 295.160156 C 326.613281 294.585938 326.601562 294.242188 326.675781 292.683594 C 326.699219 292.175781 326.636719 291.964844 326.394531 291.769531 C 326.222656 291.632812 325.941406 291.3125 325.773438 291.0625 C 325.488281 290.640625 325.46875 290.402344 325.503906 288.101562 C 325.546875 285.4375 325.425781 284.125 325.125 284.027344 C 324.738281 283.898438 323.921875 283.0625 323.867188 282.742188 C 323.835938 282.554688 323.917969 282.214844 324.046875 281.984375 C 324.257812 281.601562 324.253906 281.5 324.003906 280.84375 C 323.851562 280.449219 323.664062 279.765625 323.585938 279.316406 C 323.496094 278.8125 323.214844 278.160156 322.835938 277.578125 C 322.300781 276.753906 322.234375 276.546875 322.234375 275.726562 C 322.234375 275.214844 322.15625 274.71875 322.058594 274.625 C 321.894531 274.460938 321.742188 273.8125 321.535156 272.382812 C 321.378906 271.308594 321.007812 270.582031 320.167969 269.699219 C 319.714844 269.226562 319.34375 268.78125 319.34375 268.714844 C 319.34375 267.710938 318.953125 265.738281 318.648438 265.191406 C 318.445312 264.824219 318.28125 264.398438 318.28125 264.242188 C 318.28125 264.054688 318.171875 263.957031 317.964844 263.957031 C 317.667969 263.957031 317.65625 263.898438 317.753906 263 C 317.835938 262.222656 317.808594 262.007812 317.613281 261.84375 C 317.3125 261.59375 317.269531 260.316406 317.558594 260.300781 C 317.664062 260.296875 317.597656 260.230469 317.40625 260.15625 C 317.21875 260.078125 317.066406 259.914062 317.066406 259.785156 C 317.066406 259.644531 316.929688 259.554688 316.722656 259.554688 C 316.523438 259.554688 316.167969 259.324219 315.871094 259 C 315.375 258.457031 315.367188 258.425781 315.46875 257.480469 C 315.5625 256.574219 315.542969 256.480469 315.136719 255.945312 C 314.199219 254.726562 313.875 254.132812 313.875 253.65625 C 313.875 253.160156 313.769531 253.023438 312.449219 251.851562 C 312.144531 251.582031 311.898438 251.234375 311.898438 251.078125 C 311.898438 250.921875 311.765625 250.675781 311.605469 250.527344 C 310.757812 249.761719 310.40625 248.949219 310.128906 247.101562 C 310.027344 246.414062 309.566406 245.398438 309.230469 245.117188 C 308.984375 244.917969 307.921875 243.550781 307.566406 242.988281 C 306.472656 241.238281 306.082031 240.710938 305.402344 240.066406 C 304.960938 239.652344 304.601562 239.195312 304.601562 239.050781 C 304.601562 238.90625 304.464844 238.617188 304.300781 238.40625 C 304.132812 238.191406 303.996094 237.949219 303.996094 237.867188 C 303.996094 237.605469 303.039062 236.625 302.78125 236.625 C 302.644531 236.625 302.304688 236.386719 302.023438 236.097656 C 301.613281 235.675781 301.492188 235.394531 301.390625 234.671875 C 301.277344 233.835938 301.195312 233.695312 300.253906 232.691406 C 299.699219 232.097656 299.179688 231.613281 299.101562 231.613281 C 298.882812 231.613281 297.699219 230.765625 297.15625 230.222656 C 296.75 229.816406 296.683594 229.648438 296.730469 229.15625 C 296.773438 228.703125 296.726562 228.554688 296.515625 228.488281 C 296.367188 228.441406 296.246094 228.308594 296.246094 228.195312 C 296.246094 228.082031 296.117188 227.949219 295.960938 227.898438 C 295.800781 227.847656 295.222656 227.371094 294.675781 226.835938 C 294.125 226.304688 293.515625 225.816406 293.324219 225.757812 C 292.585938 225.527344 290.300781 223.480469 290.425781 223.160156 C 290.46875 223.039062 290.359375 222.785156 290.175781 222.589844 C 289.992188 222.394531 289.835938 222.09375 289.820312 221.914062 C 289.804688 221.691406 289.695312 221.589844 289.472656 221.589844 C 289.253906 221.589844 288.578125 220.984375 287.414062 219.75 C 284.976562 217.152344 284.839844 217.035156 284.347656 217.035156 C 283.917969 217.035156 283.023438 216.261719 283.023438 215.890625 C 283.023438 215.503906 282.394531 215.0625 281.839844 215.058594 C 281.527344 215.058594 281.101562 214.960938 280.894531 214.839844 C 280.042969 214.355469 279.460938 214.148438 278.9375 214.148438 C 278.484375 214.148438 278.296875 214.046875 277.929688 213.601562 C 276.773438 212.207031 275.625 211.132812 275.195312 211.039062 C 274.945312 210.988281 274.636719 210.878906 274.511719 210.800781 C 274.386719 210.722656 274.144531 210.597656 273.976562 210.523438 C 273.804688 210.449219 273.433594 210.167969 273.148438 209.902344 C 272.761719 209.542969 272.410156 209.382812 271.785156 209.28125 C 271.210938 209.191406 270.867188 209.046875 270.710938 208.832031 C 270.585938 208.660156 270.257812 208.269531 269.980469 207.964844 C 269.5 207.429688 269.433594 207.40625 268.21875 207.324219 C 267.527344 207.277344 266.863281 207.164062 266.746094 207.066406 C 266.628906 206.972656 266.222656 206.804688 265.847656 206.699219 C 265.472656 206.589844 264.96875 206.367188 264.726562 206.203125 C 264.4375 206.003906 263.890625 205.863281 263.128906 205.792969 C 261.933594 205.679688 261.441406 205.550781 261.441406 205.34375 C 261.441406 204.9375 258.296875 204.230469 257.90625 204.550781 C 257.589844 204.8125 256.992188 204.808594 256.273438 204.550781 C 255.878906 204.40625 254.878906 204.265625 253.910156 204.21875 C 252.917969 204.171875 252.003906 204.042969 251.667969 203.902344 C 251.359375 203.773438 250.699219 203.625 250.207031 203.574219 C 249.464844 203.496094 249.1875 203.539062 248.617188 203.816406 C 248.003906 204.113281 247.761719 204.140625 246.511719 204.0625 C 244.789062 203.960938 244.46875 203.960938 242.394531 204.066406 C 240.792969 204.144531 240.734375 204.136719 240.226562 203.75 C 239.882812 203.488281 239.707031 203.226562 239.707031 202.980469 C 239.707031 202.769531 239.617188 202.609375 239.5 202.609375 C 239.148438 202.609375 236.785156 201.4375 235.996094 200.871094 C 235.582031 200.574219 235.148438 200.332031 235.027344 200.332031 C 234.910156 200.332031 234.460938 200.015625 234.03125 199.628906 C 233.601562 199.242188 233.078125 198.820312 232.867188 198.691406 C 232.660156 198.5625 232.265625 198.25 232 198 C 231.570312 197.601562 231.519531 197.476562 231.585938 196.953125 C 231.679688 196.199219 231.957031 195.6875 232.636719 195.023438 C 232.929688 194.738281 233.171875 194.445312 233.171875 194.382812 C 233.171875 194.316406 233.410156 194.015625 233.703125 193.714844 C 233.996094 193.414062 234.234375 193.074219 234.234375 192.960938 C 234.234375 192.84375 234.363281 192.683594 234.519531 192.597656 C 234.738281 192.480469 234.820312 192.226562 234.871094 191.527344 C 234.925781 190.800781 235.042969 190.464844 235.433594 189.910156 C 235.851562 189.316406 235.914062 189.121094 235.832031 188.640625 C 235.746094 188.136719 235.789062 188.03125 236.214844 187.675781 C 236.691406 187.273438 236.835938 187.21875 237.960938 187.042969 C 238.292969 186.988281 238.71875 186.847656 238.90625 186.730469 C 239.183594 186.550781 239.539062 186.539062 240.882812 186.652344 C 242.027344 186.753906 242.746094 186.746094 243.277344 186.625 C 244.085938 186.445312 245.148438 186.433594 246.609375 186.597656 C 247.625 186.710938 249.210938 186.441406 249.621094 186.09375 C 249.941406 185.816406 251.144531 185.914062 251.53125 186.246094 C 251.84375 186.519531 253.144531 186.394531 254.027344 186.003906 C 254.335938 185.867188 254.753906 185.753906 254.957031 185.753906 C 255.15625 185.753906 255.507812 185.605469 255.738281 185.425781 C 256.121094 185.125 256.214844 185.113281 256.785156 185.28125 C 258.109375 185.675781 258.128906 185.675781 258.5 185.207031 L 258.851562 184.769531 L 260.546875 184.8125 C 262.109375 184.851562 262.296875 184.824219 262.976562 184.46875 C 263.824219 184.027344 264.332031 183.992188 265.238281 184.3125 C 266.113281 184.621094 266.730469 184.597656 267.445312 184.234375 C 267.773438 184.070312 268.113281 183.933594 268.203125 183.933594 C 268.292969 183.933594 268.628906 183.796875 268.953125 183.632812 C 269.488281 183.363281 269.679688 183.347656 271.226562 183.480469 C 272.15625 183.5625 273.285156 183.667969 273.742188 183.71875 C 274.34375 183.789062 274.609375 183.757812 274.730469 183.605469 C 275.167969 183.054688 275.835938 182.761719 276.835938 182.683594 C 277.472656 182.632812 277.972656 182.503906 278.140625 182.355469 C 278.289062 182.21875 278.574219 182.109375 278.777344 182.109375 C 278.980469 182.105469 279.421875 182.007812 279.753906 181.890625 C 280.179688 181.742188 280.714844 181.703125 281.527344 181.761719 L 282.695312 181.851562 L 283.503906 181.21875 C 283.949219 180.875 284.449219 180.480469 284.617188 180.351562 C 284.859375 180.15625 285.148438 180.128906 286.0625 180.203125 C 287.703125 180.339844 287.847656 180.324219 288.179688 179.996094 C 288.34375 179.832031 288.675781 179.59375 288.921875 179.464844 C 289.167969 179.339844 289.410156 179.132812 289.457031 179.003906 C 289.519531 178.847656 289.75 178.769531 290.164062 178.769531 C 290.503906 178.769531 291.027344 178.667969 291.328125 178.542969 C 291.628906 178.417969 292.226562 178.3125 292.652344 178.3125 C 293.179688 178.3125 293.582031 178.214844 293.890625 178.007812 C 294.140625 177.839844 294.609375 177.632812 294.9375 177.542969 C 295.933594 177.269531 298.726562 175.828125 298.960938 175.464844 C 299.078125 175.285156 300.683594 174.519531 300.945312 174.519531 C 301.050781 174.519531 301.308594 174.382812 301.523438 174.214844 C 301.734375 174.046875 302.054688 173.90625 302.230469 173.898438 C 302.53125 173.886719 302.890625 173.6875 304.429688 172.65625 C 304.773438 172.429688 305.1875 172.238281 305.351562 172.238281 C 305.519531 172.238281 306.082031 171.8125 306.605469 171.292969 C 308.175781 169.726562 309.238281 169.070312 309.753906 169.34375 C 309.984375 169.46875 310.199219 169.324219 311.003906 168.515625 C 311.539062 167.976562 312.09375 167.535156 312.242188 167.535156 C 312.726562 167.53125 313.890625 166.890625 314.140625 166.484375 C 314.515625 165.878906 315.125 165.253906 315.339844 165.253906 C 315.449219 165.253906 316.152344 164.699219 316.910156 164.019531 C 317.898438 163.128906 318.28125 162.683594 318.28125 162.425781 C 318.28125 162.148438 318.355469 162.078125 318.625 162.105469 C 318.886719 162.132812 318.957031 162.070312 318.929688 161.839844 C 318.90625 161.613281 319.078125 161.449219 319.613281 161.191406 C 320.011719 161 320.445312 160.847656 320.582031 160.847656 C 320.976562 160.851562 322.386719 159.082031 322.386719 158.582031 C 322.386719 158.382812 322.882812 157.730469 323.671875 156.902344 C 324.394531 156.136719 325.011719 155.34375 325.078125 155.089844 C 325.144531 154.839844 325.613281 154.136719 326.117188 153.53125 C 326.640625 152.898438 327.117188 152.15625 327.21875 151.800781 C 327.320312 151.457031 327.394531 150.367188 327.390625 149.378906 C 327.378906 147.871094 327.332031 147.527344 327.09375 147.226562 C 326.941406 147.027344 326.765625 146.476562 326.707031 146 C 326.621094 145.285156 326.5 145.023438 326.011719 144.492188 C 325.683594 144.132812 325.425781 143.695312 325.425781 143.5 C 325.425781 143.019531 323.863281 141.453125 323.03125 141.09375 C 322.675781 140.941406 322.386719 140.753906 322.386719 140.675781 C 322.386719 140.429688 321.464844 140.199219 320.488281 140.199219 C 319.738281 140.199219 319.488281 140.136719 319.269531 139.898438 C 319.070312 139.675781 318.800781 139.59375 318.296875 139.59375 C 317.855469 139.59375 317.429688 139.480469 317.140625 139.289062 C 316.003906 138.539062 315.480469 138.386719 314.371094 138.480469 C 313.371094 138.566406 313.003906 138.378906 312.933594 137.746094 C 312.898438 137.4375 313.09375 137.105469 313.796875 136.304688 C 315.4375 134.4375 316.457031 133.519531 316.90625 133.515625 C 317.460938 133.507812 318.507812 132.578125 319.085938 131.578125 C 319.742188 130.445312 320.621094 129.476562 321.105469 129.355469 C 321.277344 129.308594 321.789062 128.875 322.246094 128.386719 C 323.347656 127.203125 324.746094 125.601562 325.152344 125.070312 C 325.46875 124.65625 326.644531 123.308594 327.261719 122.65625 C 327.421875 122.488281 327.554688 122.179688 327.554688 121.972656 C 327.554688 121.609375 328.652344 120.445312 329.804688 119.585938 C 330.074219 119.382812 330.308594 119.039062 330.371094 118.75 C 330.515625 118.058594 331.226562 116.828125 331.535156 116.730469 C 331.675781 116.683594 331.835938 116.507812 331.890625 116.339844 C 331.945312 116.171875 332.5625 115.453125 333.265625 114.746094 C 334.03125 113.980469 334.542969 113.335938 334.542969 113.152344 C 334.542969 112.980469 334.785156 112.550781 335.074219 112.195312 C 335.367188 111.835938 335.609375 111.496094 335.609375 111.441406 C 335.609375 111.382812 335.832031 111.105469 336.101562 110.824219 C 336.375 110.546875 336.734375 109.960938 336.898438 109.527344 C 337.066406 109.09375 337.425781 108.507812 337.699219 108.230469 C 337.96875 107.949219 338.191406 107.636719 338.191406 107.539062 C 338.191406 107.367188 338.917969 106.414062 339.648438 105.625 C 339.828125 105.429688 340.019531 105.003906 340.070312 104.679688 C 340.144531 104.222656 340.332031 103.941406 340.886719 103.453125 C 341.773438 102.671875 342.164062 102.097656 342.050781 101.738281 C 342.003906 101.585938 342.070312 101.304688 342.199219 101.105469 C 342.332031 100.910156 342.503906 100.320312 342.589844 99.796875 C 342.691406 99.167969 342.863281 98.714844 343.101562 98.453125 C 343.375 98.152344 343.648438 97.851562 343.921875 97.546875 C 344.179688 97.265625 344.460938 96.785156 344.550781 96.484375 C 344.648438 96.160156 345.0625 95.597656 345.558594 95.105469 C 346.019531 94.648438 346.398438 94.210938 346.398438 94.128906 C 346.398438 94.050781 346.707031 93.378906 347.082031 92.640625 C 347.457031 91.898438 347.765625 91.125 347.765625 90.914062 C 347.765625 90.703125 347.902344 90.265625 348.070312 89.9375 C 348.238281 89.609375 348.375 89.207031 348.375 89.042969 C 348.375 88.878906 348.476562 88.644531 348.601562 88.519531 C 348.878906 88.242188 349.132812 87.597656 349.132812 87.175781 C 349.132812 86.992188 349.582031 86.386719 350.195312 85.746094 C 351.371094 84.507812 351.574219 84.054688 351.203125 83.488281 C 350.820312 82.910156 350.90625 82.511719 351.566406 81.796875 C 352.027344 81.296875 352.175781 81.011719 352.175781 80.621094 C 352.175781 80.335938 352.28125 80.015625 352.410156 79.910156 C 352.765625 79.613281 353.085938 78.742188 353.085938 78.066406 C 353.085938 77.292969 353.433594 76.640625 354 76.347656 C 354.457031 76.109375 354.632812 75.492188 354.300781 75.285156 C 354.21875 75.234375 354.148438 74.902344 354.148438 74.554688 C 354.148438 74.0625 354.296875 73.691406 354.789062 72.929688 C 355.144531 72.386719 355.519531 71.855469 355.625 71.742188 C 355.894531 71.46875 355.875 70.28125 355.601562 70.054688 C 355.4375 69.917969 355.417969 69.773438 355.527344 69.492188 C 355.605469 69.285156 355.667969 68.957031 355.667969 68.765625 C 355.667969 68.570312 355.773438 68.328125 355.898438 68.222656 C 356.023438 68.121094 356.125 67.890625 356.128906 67.710938 C 356.128906 67.535156 356.230469 67.117188 356.347656 66.78125 C 356.46875 66.449219 356.570312 65.914062 356.574219 65.59375 C 356.578125 65.277344 356.753906 64.640625 356.960938 64.1875 C 357.171875 63.730469 357.34375 63.238281 357.347656 63.09375 C 357.347656 62.949219 357.453125 62.699219 357.574219 62.539062 C 357.71875 62.347656 357.796875 61.882812 357.796875 61.214844 C 357.796875 60.464844 357.882812 60.019531 358.117188 59.574219 C 358.382812 59.0625 358.417969 58.816406 358.328125 58.050781 C 358.269531 57.550781 358.160156 57.101562 358.085938 57.054688 C 357.855469 56.910156 357.925781 55.675781 358.175781 55.46875 C 358.300781 55.363281 358.40625 55.195312 358.40625 55.089844 C 358.40625 54.984375 358.496094 54.824219 358.609375 54.730469 C 358.839844 54.539062 358.832031 54.296875 358.5625 53.34375 C 358.429688 52.871094 358.40625 52.332031 358.492188 51.597656 C 358.554688 51.011719 358.625 49.988281 358.644531 49.320312 C 358.664062 48.652344 358.730469 47.882812 358.789062 47.609375 C 358.910156 47.050781 358.675781 46.449219 357.855469 45.195312 C 357.277344 44.308594 357.238281 44.074219 357.582031 43.546875 C 358.015625 42.886719 357.75 42.066406 356.832031 41.269531 L 356.050781 40.582031 L 356.074219 39.484375 C 356.089844 38.878906 356.113281 38.226562 356.128906 38.027344 C 356.15625 37.640625 355.160156 36.488281 354.796875 36.488281 C 354.6875 36.488281 354.25 36.3125 353.832031 36.101562 C 353.410156 35.886719 352.941406 35.734375 352.792969 35.757812 C 352.644531 35.785156 352.242188 35.550781 351.902344 35.242188 C 351.132812 34.550781 350.542969 34.429688 348.933594 34.632812 C 348.136719 34.734375 347.375 34.738281 346.816406 34.648438 C 346.023438 34.523438 345.875 34.546875 345.183594 34.90625 C 344.765625 35.125 344.335938 35.261719 344.234375 35.207031 C 344.128906 35.152344 343.808594 34.984375 343.527344 34.832031 C 342.917969 34.511719 342.546875 34.621094 341.316406 35.488281 C 340.960938 35.738281 340.832031 35.753906 340.410156 35.601562 C 339.648438 35.328125 339.351562 35.382812 338.613281 35.949219 C 338.234375 36.238281 337.75 36.515625 337.53125 36.570312 C 337.316406 36.625 337.058594 36.765625 336.964844 36.882812 C 336.703125 37.195312 336.074219 37.140625 335.78125 36.78125 C 335.628906 36.59375 335.273438 36.433594 334.890625 36.382812 C 334.308594 36.304688 334.1875 36.351562 333.503906 36.925781 C 333.089844 37.269531 332.675781 37.550781 332.578125 37.550781 C 332.480469 37.550781 332.09375 37.722656 331.71875 37.929688 C 331.019531 38.320312 330.226562 38.429688 330.058594 38.160156 C 329.925781 37.941406 328.957031 37.96875 328.8125 38.195312 C 328.535156 38.628906 327.445312 39.222656 326.917969 39.222656 C 326.617188 39.222656 326.289062 39.324219 326.183594 39.449219 C 326.054688 39.605469 325.707031 39.675781 325.046875 39.675781 C 324.191406 39.675781 324.03125 39.730469 323.375 40.230469 C 322.660156 40.773438 322.640625 40.78125 321.898438 40.609375 C 321.027344 40.410156 319.507812 40.539062 319.398438 40.824219 C 319.355469 40.929688 319.039062 41.207031 318.6875 41.441406 C 318.339844 41.675781 317.636719 42.183594 317.132812 42.574219 C 316.625 42.964844 316.066406 43.328125 315.890625 43.382812 C 315.714844 43.4375 315.492188 43.585938 315.390625 43.707031 C 315.261719 43.859375 314.890625 43.929688 314.199219 43.933594 C 313.554688 43.9375 313.082031 44.019531 312.894531 44.160156 C 312.734375 44.285156 312.421875 44.382812 312.207031 44.382812 C 311.992188 44.382812 311.574219 44.582031 311.28125 44.824219 C 310.988281 45.066406 310.511719 45.371094 310.222656 45.503906 C 309.929688 45.632812 309.386719 45.914062 309.011719 46.125 C 308.636719 46.335938 308.148438 46.511719 307.925781 46.511719 C 307.660156 46.511719 307.203125 46.769531 306.628906 47.246094 C 306.140625 47.648438 305.515625 48.027344 305.238281 48.078125 C 304.957031 48.132812 304.554688 48.316406 304.34375 48.484375 C 304.128906 48.648438 303.890625 48.789062 303.8125 48.789062 C 303.734375 48.789062 303.566406 48.890625 303.441406 49.015625 C 303.316406 49.140625 303.042969 49.242188 302.835938 49.242188 C 302.625 49.242188 302.320312 49.316406 302.152344 49.40625 C 301.78125 49.601562 300.957031 50.453125 300.957031 50.636719 C 300.957031 50.710938 300.730469 50.996094 300.453125 51.273438 C 300.109375 51.617188 299.757812 51.800781 299.339844 51.859375 C 298.929688 51.914062 298.542969 52.113281 298.140625 52.480469 C 297.757812 52.832031 297.332031 53.058594 296.933594 53.125 C 296.460938 53.203125 296.148438 53.410156 295.558594 54.023438 C 294.828125 54.785156 294.355469 55.101562 294.046875 55.027344 C 293.648438 54.929688 292.910156 55.203125 292.824219 55.472656 C 292.769531 55.636719 292.636719 55.773438 292.519531 55.773438 C 292.40625 55.773438 292.273438 55.902344 292.222656 56.058594 C 292.171875 56.21875 291.910156 56.433594 291.640625 56.542969 C 291.375 56.652344 290.929688 56.929688 290.652344 57.167969 C 290.378906 57.402344 290.097656 57.59375 290.03125 57.59375 C 289.894531 57.59375 289.476562 57.9375 288.566406 58.800781 C 288.015625 59.320312 287.847656 59.390625 286.882812 59.488281 C 285.851562 59.589844 285.78125 59.625 284.972656 60.398438 C 284.359375 60.988281 283.976562 61.230469 283.539062 61.304688 C 283.074219 61.382812 282.734375 61.617188 281.972656 62.386719 C 281.441406 62.925781 280.945312 63.363281 280.871094 63.363281 C 280.800781 63.363281 280.332031 63.742188 279.832031 64.199219 C 279.332031 64.660156 278.800781 65.035156 278.652344 65.035156 C 278.507812 65.035156 278.113281 65.207031 277.777344 65.410156 C 277.445312 65.617188 276.996094 65.789062 276.78125 65.789062 C 276.480469 65.792969 276.21875 66.023438 275.65625 66.765625 C 275.253906 67.300781 274.667969 67.878906 274.355469 68.054688 C 274.046875 68.230469 273.707031 68.472656 273.609375 68.59375 C 273.507812 68.714844 273.214844 68.859375 272.957031 68.914062 C 272.445312 69.027344 270.40625 70.964844 270.40625 71.339844 C 270.40625 71.757812 269.488281 72.613281 268.925781 72.71875 C 268.210938 72.855469 267.144531 73.597656 266.066406 74.714844 C 265.886719 74.902344 265.65625 75.058594 265.558594 75.058594 C 265.382812 75.058594 264.703125 75.488281 264.101562 75.984375 C 263.933594 76.121094 263.335938 76.320312 262.769531 76.421875 C 262.207031 76.527344 261.746094 76.664062 261.746094 76.726562 C 261.746094 76.949219 259.789062 78.855469 259.5625 78.855469 C 259.324219 78.855469 258.792969 79.511719 258.402344 80.296875 C 258.277344 80.546875 257.90625 80.890625 257.578125 81.058594 C 257.246094 81.230469 256.953125 81.453125 256.917969 81.554688 C 256.882812 81.65625 256.730469 81.738281 256.574219 81.738281 C 256.296875 81.738281 255.664062 82.464844 255.664062 82.785156 C 255.664062 82.875 255.476562 83.066406 255.246094 83.210938 C 255.015625 83.359375 254.785156 83.542969 254.730469 83.621094 C 254.675781 83.699219 253.886719 84.523438 252.980469 85.453125 C 252.074219 86.382812 251.105469 87.394531 250.824219 87.699219 C 250.546875 88.003906 250.066406 88.335938 249.761719 88.4375 C 248.472656 88.859375 246.546875 90.148438 246.546875 90.582031 C 246.546875 90.800781 245.9375 91.699219 244.988281 92.890625 C 244.589844 93.386719 244.265625 93.910156 244.265625 94.050781 C 244.265625 94.371094 242.957031 95.726562 242.40625 95.972656 C 242.175781 96.074219 241.988281 96.222656 241.988281 96.300781 C 241.988281 96.378906 241.765625 96.492188 241.492188 96.546875 C 240.722656 96.710938 239.707031 97.84375 239.707031 98.535156 C 239.707031 98.644531 239.5 98.960938 239.246094 99.234375 C 238.421875 100.125 238.378906 100.183594 238.285156 100.496094 C 238.230469 100.664062 237.675781 101.339844 237.046875 101.996094 C 236.421875 102.648438 235.90625 103.246094 235.90625 103.320312 C 235.90625 103.394531 235.773438 103.585938 235.609375 103.75 C 235.445312 103.914062 235.171875 104.308594 234.996094 104.625 C 234.632812 105.292969 233.917969 106.1875 232.070312 108.285156 C 231.214844 109.253906 230.738281 109.921875 230.734375 110.152344 C 230.726562 110.714844 230.453125 111.089844 228.90625 112.679688 C 226.972656 114.667969 226.660156 115.101562 226.578125 115.914062 C 226.476562 116.925781 226.292969 117.257812 225.28125 118.289062 C 224.699219 118.886719 224.355469 119.359375 224.355469 119.578125 C 224.355469 119.8125 223.957031 120.304688 223.117188 121.109375 C 222.046875 122.128906 221.1875 123.34375 221.167969 123.859375 C 221.167969 123.929688 220.925781 124.257812 220.632812 124.578125 C 220.289062 124.960938 220.101562 125.320312 220.101562 125.601562 C 220.101562 126.492188 219.765625 127.066406 218.566406 128.222656 C 217.90625 128.863281 217.355469 129.476562 217.347656 129.589844 C 217.335938 129.707031 217.34375 130.191406 217.363281 130.675781 C 217.394531 131.519531 217.371094 131.574219 216.785156 132.117188 C 216.449219 132.429688 215.929688 132.878906 215.628906 133.121094 C 215.183594 133.46875 215.085938 133.648438 215.109375 134.03125 C 215.140625 134.527344 214.941406 135.019531 214.589844 135.3125 C 214.425781 135.449219 214.261719 135.402344 213.859375 135.105469 C 213.359375 134.738281 213.335938 134.675781 213.242188 133.476562 C 213.089844 131.453125 212.683594 128.695312 212.488281 128.332031 C 212.390625 128.144531 212.3125 127.578125 212.320312 127.074219 C 212.328125 126.566406 212.234375 125.863281 212.113281 125.503906 C 211.992188 125.144531 211.894531 124.421875 211.894531 123.898438 C 211.894531 123.003906 211.5625 121.625 211.265625 121.300781 C 211.195312 121.222656 211.132812 120.9375 211.132812 120.667969 C 211.132812 120.394531 211.066406 120.132812 210.980469 120.082031 C 210.898438 120.027344 210.832031 119.527344 210.832031 118.964844 C 210.832031 118.105469 210.75 117.792969 210.320312 116.960938 C 209.878906 116.109375 209.785156 115.734375 209.621094 114.082031 C 209.457031 112.421875 209.371094 112.070312 208.933594 111.261719 C 208.660156 110.753906 208.386719 110.058594 208.328125 109.714844 C 208.269531 109.371094 208.113281 109 207.980469 108.890625 C 207.847656 108.78125 207.476562 108.359375 207.15625 107.957031 C 206.609375 107.269531 206.574219 107.152344 206.558594 106.132812 C 206.53125 104.59375 206.445312 104.355469 205.550781 103.371094 C 204.914062 102.675781 204.75 102.390625 204.75 101.976562 C 204.75 101.410156 204.648438 101.167969 203.910156 100.035156 C 203.589844 99.546875 203.375 98.988281 203.304688 98.464844 C 203.207031 97.722656 203.097656 97.539062 202.074219 96.429688 C 201.457031 95.761719 200.949219 95.136719 200.949219 95.042969 C 200.949219 94.949219 200.707031 94.53125 200.417969 94.113281 C 200.125 93.695312 199.679688 93.0625 199.429688 92.703125 C 199.179688 92.34375 198.976562 92.015625 198.976562 91.972656 C 198.976562 91.746094 197.800781 90.535156 197.429688 90.382812 C 197.191406 90.285156 196.957031 90.050781 196.910156 89.863281 C 196.863281 89.679688 196.511719 89.304688 196.128906 89.035156 C 195.351562 88.488281 195.476562 88.492188 192.21875 88.925781 C 190.972656 89.09375 190.496094 89.21875 190.320312 89.429688 C 189.980469 89.835938 189.363281 90.207031 188.921875 90.261719 C 188.421875 90.328125 186.847656 89.484375 186.167969 88.785156 C 185.648438 88.25 185.640625 88.21875 185.71875 87.246094 L 185.796875 86.257812 L 185.109375 85.625 C 184.535156 85.097656 184.410156 84.882812 184.351562 84.316406 C 184.304688 83.867188 184.359375 83.496094 184.515625 83.222656 C 184.71875 82.863281 184.726562 82.710938 184.558594 82.15625 C 184.449219 81.800781 184.324219 81.304688 184.277344 81.054688 C 184.230469 80.804688 183.929688 80.269531 183.609375 79.863281 C 183.289062 79.460938 182.980469 78.878906 182.925781 78.574219 C 182.871094 78.269531 182.628906 77.722656 182.390625 77.367188 C 181.921875 76.660156 181.84375 76.140625 182.140625 75.664062 C 182.300781 75.410156 182.269531 75.253906 181.957031 74.683594 C 181.75 74.308594 181.496094 73.96875 181.390625 73.925781 C 181.28125 73.886719 181.195312 73.609375 181.195312 73.300781 C 181.195312 72.820312 181.054688 72.609375 180.128906 71.675781 C 179.414062 70.953125 179.066406 70.484375 179.066406 70.242188 C 179.066406 69.917969 178.324219 68.398438 177.535156 67.105469 C 177.375 66.84375 177.242188 66.457031 177.242188 66.242188 C 177.242188 66.003906 177.015625 65.617188 176.65625 65.230469 C 176.121094 64.65625 175.929688 64.207031 175.660156 62.898438 C 175.613281 62.679688 175.371094 62.246094 175.117188 61.925781 C 174.863281 61.609375 174.574219 61.066406 174.472656 60.722656 C 174.375 60.382812 174.105469 59.800781 173.875 59.4375 C 173.648438 59.074219 173.414062 58.566406 173.355469 58.304688 C 173.300781 58.046875 173.113281 57.625 172.941406 57.375 C 172.40625 56.589844 172.15625 56.171875 171.929688 55.695312 C 171.808594 55.445312 171.589844 55.105469 171.441406 54.9375 C 170.441406 53.808594 170.199219 53.425781 170.078125 52.769531 C 170 52.328125 169.8125 51.933594 169.597656 51.75 C 169.40625 51.582031 169.167969 51.253906 169.066406 51.023438 C 168.96875 50.792969 168.78125 50.5625 168.65625 50.511719 C 168.53125 50.464844 168.425781 50.335938 168.425781 50.226562 C 168.425781 50.117188 167.878906 49.535156 167.210938 48.929688 C 166.039062 47.871094 165.996094 47.808594 165.996094 47.15625 C 165.996094 46.558594 165.917969 46.398438 165.3125 45.785156 C 164.804688 45.273438 164.628906 44.972656 164.628906 44.632812 C 164.628906 43.992188 164.070312 43.253906 162.734375 42.132812 C 162.105469 41.601562 161.589844 41.117188 161.589844 41.050781 C 161.589844 40.984375 161.382812 40.675781 161.132812 40.359375 C 160.84375 39.996094 160.675781 39.609375 160.675781 39.308594 C 160.675781 38.914062 160.453125 38.601562 159.398438 37.519531 C 158.691406 36.796875 157.914062 36.101562 157.667969 35.972656 C 157.425781 35.847656 157.023438 35.492188 156.785156 35.1875 C 156.347656 34.632812 155.085938 33.347656 153.570312 31.902344 C 153.132812 31.484375 152.773438 31.039062 152.773438 30.914062 C 152.773438 30.558594 151.867188 29.503906 151.5625 29.503906 C 151.410156 29.503906 151.042969 29.210938 150.738281 28.859375 C 150.417969 28.476562 150.09375 28.097656 149.773438 27.71875 C 149.539062 27.4375 149.214844 27.226562 149.023438 27.226562 C 148.730469 27.226562 147.761719 26.566406 147.632812 26.28125 C 147.582031 26.164062 146.6875 25.285156 146.355469 25.023438 C 146.25 24.9375 145.992188 24.792969 145.78125 24.699219 C 145.285156 24.480469 144.460938 23.777344 143.003906 22.332031 C 142.113281 21.449219 141.664062 21.121094 141.179688 20.992188 C 140.398438 20.785156 139.550781 20.308594 139.28125 19.921875 C 139.167969 19.761719 138.949219 19.632812 138.792969 19.632812 C 138.632812 19.632812 138.46875 19.574219 138.421875 19.5 C 138.378906 19.429688 138.066406 19.324219 137.730469 19.269531 C 137.328125 19.207031 137.117188 19.09375 137.117188 18.941406 C 137.117188 18.816406 137 18.671875 136.851562 18.617188 C 136.707031 18.566406 136.363281 18.316406 136.09375 18.0625 C 135.6875 17.683594 135.417969 17.578125 134.574219 17.484375 C 133.910156 17.40625 133.230469 17.203125 132.652344 16.90625 C 131.675781 16.402344 130.886719 16.324219 130.28125 16.671875 " fill-opacity="1" fill-rule="evenodd"/></svg>