<svg xmlns="http://www.w3.org/2000/svg" xmlns:xlink="http://www.w3.org/1999/xlink" width="500" zoomAndPan="magnify" viewBox="0 0 375 374.999991" height="500" preserveAspectRatio="xMidYMid meet" version="1.0"><defs><clipPath id="9ef8416af5"><path d="M 16 16 L 359 16 L 359 359.925781 L 16 359.925781 Z M 16 16 " clip-rule="nonzero"/></clipPath></defs><g clip-path="url(#9ef8416af5)"><path fill="#ff3131" d="M 130.226562 16.671875 C 129.789062 16.921875 128.617188 16.972656 128.476562 16.75 C 128.371094 16.574219 126.078125 16.539062 125.910156 16.707031 C 125.847656 16.769531 125.375 16.800781 124.859375 16.773438 L 123.921875 16.726562 L 122.972656 17.585938 C 122.214844 18.269531 122.023438 18.535156 122.023438 18.894531 C 122.023438 19.179688 121.882812 19.472656 121.640625 19.695312 C 121.433594 19.890625 121.261719 20.125 121.261719 20.222656 C 121.261719 20.316406 121.125 20.394531 120.957031 20.394531 C 120.753906 20.394531 120.65625 20.496094 120.65625 20.699219 C 120.65625 20.898438 120.554688 21 120.359375 21 C 120.1875 21 120.023438 21.140625 119.964844 21.34375 C 119.90625 21.53125 119.636719 21.925781 119.363281 22.21875 C 118.671875 22.957031 118.375 23.605469 118.375 24.394531 C 118.375 24.804688 118.289062 25.140625 118.148438 25.253906 C 117.988281 25.386719 117.921875 25.738281 117.921875 26.433594 C 117.921875 27.195312 117.839844 27.546875 117.578125 27.972656 C 117.289062 28.4375 117.238281 28.734375 117.238281 29.902344 C 117.238281 30.90625 117.175781 31.359375 117.007812 31.558594 C 116.703125 31.925781 116.796875 32.351562 117.328125 33.023438 C 117.808594 33.628906 117.90625 34.367188 117.550781 34.664062 C 117.300781 34.871094 116.855469 36.09375 116.855469 36.574219 C 116.855469 36.753906 117.027344 37.058594 117.234375 37.253906 C 117.738281 37.726562 117.882812 38.539062 117.566406 39.078125 C 117.375 39.398438 117.339844 39.71875 117.410156 40.480469 C 117.472656 41.144531 117.449219 41.5 117.332031 41.574219 C 117.070312 41.734375 117.128906 42.289062 117.464844 42.84375 C 117.816406 43.421875 117.875 44.574219 117.558594 44.835938 C 117.429688 44.945312 117.3125 45.511719 117.246094 46.359375 C 117.152344 47.554688 117.179688 47.796875 117.476562 48.488281 C 117.757812 49.144531 117.789062 49.402344 117.691406 50.136719 C 117.550781 51.144531 117.550781 52.117188 117.695312 52.988281 C 117.769531 53.457031 117.738281 53.652344 117.550781 53.804688 C 117.324219 53.992188 117.328125 54.035156 117.566406 54.300781 C 117.746094 54.5 117.816406 54.789062 117.789062 55.203125 C 117.761719 55.566406 117.828125 55.914062 117.957031 56.066406 C 118.351562 56.535156 118.984375 57.738281 118.984375 58.027344 C 118.984375 58.183594 118.882812 58.445312 118.761719 58.609375 C 118.464844 59 118.472656 59.855469 118.773438 60.421875 C 118.933594 60.722656 119.007812 61.203125 118.992188 61.820312 C 118.976562 62.507812 119.042969 62.878906 119.242188 63.179688 C 119.441406 63.484375 119.539062 64.023438 119.601562 65.160156 C 119.667969 66.328125 119.757812 66.792969 119.949219 67.007812 C 120.167969 67.246094 120.191406 67.46875 120.109375 68.300781 C 120.011719 69.230469 120.035156 69.339844 120.40625 69.828125 C 120.890625 70.460938 120.929688 71.132812 120.5 71.402344 C 120.136719 71.628906 120.21875 72.230469 120.675781 72.738281 C 120.886719 72.972656 120.957031 73.285156 120.957031 74.003906 C 120.957031 74.730469 121.035156 75.066406 121.273438 75.40625 C 121.601562 75.859375 121.613281 76.578125 121.332031 78.160156 C 121.273438 78.476562 121.296875 78.921875 121.386719 79.148438 C 121.472656 79.375 121.585938 79.816406 121.636719 80.128906 C 121.6875 80.4375 121.832031 80.796875 121.960938 80.925781 C 122.113281 81.078125 122.246094 81.6875 122.34375 82.714844 C 122.726562 86.628906 122.746094 86.738281 123.238281 87.3125 C 123.4375 87.539062 123.523438 88.011719 123.589844 89.210938 C 123.640625 90.085938 123.816406 91.316406 123.984375 91.945312 C 124.15625 92.570312 124.292969 93.464844 124.296875 93.933594 C 124.300781 94.839844 124.515625 95.667969 124.851562 96.058594 C 124.96875 96.1875 125.058594 96.453125 125.058594 96.644531 C 125.058594 96.832031 125.273438 97.257812 125.53125 97.585938 C 126.003906 98.179688 126.003906 98.195312 125.902344 99.449219 C 125.800781 100.65625 125.816406 100.761719 126.269531 101.726562 C 126.707031 102.664062 126.722656 102.765625 126.507812 103.070312 C 126.152344 103.582031 126.222656 103.925781 126.839844 104.679688 C 127.355469 105.308594 127.40625 105.449219 127.417969 106.363281 C 127.429688 106.914062 127.492188 107.851562 127.558594 108.453125 C 127.679688 109.503906 127.703125 109.550781 128.234375 109.816406 C 128.535156 109.96875 128.96875 110.261719 129.199219 110.464844 L 129.617188 110.835938 L 129.617188 113.007812 C 129.617188 115.289062 129.742188 116.089844 130.304688 117.464844 C 130.492188 117.925781 130.6875 118.8125 130.742188 119.4375 C 130.796875 120.0625 130.90625 120.640625 130.988281 120.71875 C 131.070312 120.800781 131.136719 121.089844 131.136719 121.359375 C 131.136719 122.109375 131.351562 122.53125 132.179688 123.386719 C 133.296875 124.535156 133.601562 125.125 133.628906 126.199219 C 133.648438 126.898438 133.78125 127.375 134.203125 128.25 C 134.929688 129.773438 134.988281 129.992188 134.710938 130.222656 C 134.582031 130.328125 134.476562 130.460938 134.476562 130.515625 C 134.476562 130.570312 134.882812 131.109375 135.378906 131.71875 C 136.167969 132.683594 136.296875 132.933594 136.386719 133.683594 C 136.53125 134.8125 136.242188 135.921875 135.632812 136.605469 C 134.976562 137.335938 134.4375 138.238281 134.519531 138.464844 C 134.558594 138.570312 134.5 138.832031 134.390625 139.046875 C 134.140625 139.542969 133.03125 140.554688 132.738281 140.554688 C 132.460938 140.554688 131.945312 140.019531 131.636719 139.414062 C 131.328125 138.804688 130.703125 138.148438 130.167969 137.871094 C 129.359375 137.449219 128.402344 136.445312 128.398438 136.015625 C 128.398438 135.726562 128.117188 135.34375 127.347656 134.59375 C 126.769531 134.027344 126.222656 133.566406 126.128906 133.566406 C 126.035156 133.566406 125.707031 133.4375 125.394531 133.28125 C 125.085938 133.125 124.40625 132.945312 123.890625 132.886719 C 123.371094 132.828125 122.867188 132.683594 122.769531 132.566406 C 122.515625 132.257812 122.058594 132.300781 121.753906 132.664062 C 121.609375 132.835938 121.261719 133.085938 120.980469 133.222656 C 120.699219 133.355469 119.953125 133.96875 119.324219 134.578125 C 118.660156 135.222656 118.042969 135.695312 117.867188 135.695312 C 117.695312 135.695312 117.363281 135.878906 117.128906 136.101562 C 116.738281 136.476562 116.703125 136.601562 116.703125 137.644531 C 116.703125 138.714844 116.679688 138.804688 116.210938 139.285156 C 115.914062 139.589844 115.566406 139.792969 115.339844 139.792969 C 114.742188 139.796875 113.554688 141.175781 113.429688 142.007812 C 113.375 142.367188 113.203125 142.78125 113.042969 142.925781 C 112.859375 143.09375 112.753906 143.386719 112.753906 143.757812 C 112.753906 144.136719 112.632812 144.476562 112.398438 144.757812 C 112.203125 144.996094 111.960938 145.34375 111.859375 145.53125 C 111.761719 145.71875 111.582031 145.871094 111.457031 145.871094 C 111.308594 145.871094 111.234375 146.035156 111.234375 146.371094 C 111.234375 147.199219 110.410156 148.578125 109.007812 150.101562 L 108.121094 151.0625 L 107.363281 150.746094 C 106.945312 150.570312 106.496094 150.371094 106.371094 150.296875 C 105.929688 150.046875 105.234375 149.972656 104.464844 150.097656 C 104.042969 150.167969 103.597656 150.171875 103.480469 150.109375 C 101.839844 149.265625 101.195312 149.167969 100.5625 149.667969 C 100.347656 149.835938 100.089844 149.972656 99.984375 149.972656 C 99.878906 149.972656 99.679688 150.074219 99.546875 150.195312 C 99.414062 150.316406 98.839844 150.460938 98.273438 150.519531 C 97.25 150.625 97.238281 150.628906 96.105469 151.71875 C 95.480469 152.324219 94.78125 152.910156 94.554688 153.023438 C 94.140625 153.234375 94.074219 153.28125 93.203125 154.035156 C 92.71875 154.453125 92.246094 155.480469 92.246094 156.109375 C 92.246094 156.300781 91.941406 156.730469 91.515625 157.144531 L 90.785156 157.855469 L 89.65625 157.773438 C 88.882812 157.714844 87.925781 157.789062 86.640625 158 L 84.753906 158.308594 L 83.980469 159.0625 C 83.277344 159.75 83.113281 159.832031 82.144531 159.992188 C 81.558594 160.085938 80.863281 160.203125 80.59375 160.25 C 80.324219 160.296875 80.027344 160.429688 79.929688 160.546875 C 79.832031 160.664062 79.6875 160.757812 79.605469 160.757812 C 79.523438 160.757812 79.242188 160.855469 78.976562 160.976562 C 78.226562 161.3125 75.804688 161.621094 75.160156 161.457031 C 74.542969 161.300781 73.609375 160.363281 73.5 159.796875 C 73.378906 159.15625 72.433594 158.242188 71.738281 158.097656 C 71.136719 157.96875 70.371094 157.242188 70.066406 156.5 C 69.953125 156.226562 69.695312 155.828125 69.492188 155.609375 C 69.285156 155.390625 68.957031 154.957031 68.757812 154.644531 C 68.558594 154.332031 68.332031 154.074219 68.257812 154.074219 C 68.183594 154.074219 67.90625 153.734375 67.636719 153.316406 C 67.371094 152.898438 67.09375 152.554688 67.027344 152.554688 C 66.691406 152.554688 64.367188 150.21875 64.046875 149.554688 C 63.914062 149.285156 63.746094 149.0625 63.671875 149.0625 C 63.597656 149.0625 63.535156 148.960938 63.535156 148.839844 C 63.535156 148.453125 62.632812 147.570312 62.125 147.457031 C 61.824219 147.390625 61.332031 147.039062 60.839844 146.535156 C 60.234375 145.914062 59.933594 145.71875 59.597656 145.71875 C 58.941406 145.71875 58.515625 145.515625 57.886719 144.902344 C 57.277344 144.308594 56.984375 144.246094 56.394531 144.582031 C 55.863281 144.886719 54.976562 144.867188 54.683594 144.542969 C 54.550781 144.398438 54.191406 144.144531 53.890625 143.980469 C 53.382812 143.710938 53.214844 143.699219 51.714844 143.851562 C 50.179688 144.003906 50.039062 144.046875 49.144531 144.648438 C 48.625 145 48.15625 145.351562 48.109375 145.425781 C 48.0625 145.503906 47.878906 145.566406 47.703125 145.566406 C 47.496094 145.566406 46.90625 146.054688 46.066406 146.925781 C 44.824219 148.214844 44.746094 148.332031 44.582031 149.222656 C 44.484375 149.742188 44.289062 150.292969 44.148438 150.449219 C 43.863281 150.765625 43.613281 151.179688 43.289062 151.871094 C 43.171875 152.121094 42.960938 152.421875 42.824219 152.535156 C 42.6875 152.652344 42.574219 152.890625 42.574219 153.074219 C 42.574219 153.253906 42.4375 153.515625 42.269531 153.660156 C 42.101562 153.804688 41.964844 154.03125 41.964844 154.164062 C 41.964844 154.296875 41.675781 154.691406 41.320312 155.042969 C 40.753906 155.601562 40.464844 156.046875 40.074219 156.960938 C 40.019531 157.085938 39.808594 157.460938 39.605469 157.796875 C 39.402344 158.132812 39.164062 158.574219 39.070312 158.785156 C 38.980469 158.992188 38.785156 159.300781 38.636719 159.46875 C 38.363281 159.78125 37.863281 160.992188 37.863281 161.351562 C 37.863281 161.460938 37.671875 161.800781 37.4375 162.105469 C 36.980469 162.699219 36.648438 163.382812 36.648438 163.71875 C 36.648438 163.832031 36.316406 164.425781 35.910156 165.039062 C 34.695312 166.878906 34.371094 167.589844 34.371094 168.40625 C 34.371094 169.058594 34.292969 169.230469 33.6875 169.941406 C 33.066406 170.667969 33.003906 170.816406 33.003906 171.527344 C 33.003906 172.210938 32.9375 172.382812 32.507812 172.820312 C 31.742188 173.601562 30.804688 175.601562 30.664062 176.746094 C 30.597656 177.292969 30.414062 177.675781 29.890625 178.339844 C 29.472656 178.875 29.203125 179.371094 29.203125 179.617188 C 29.203125 179.835938 29.101562 180.097656 28.976562 180.203125 C 28.851562 180.308594 28.75 180.550781 28.75 180.746094 C 28.75 180.941406 28.570312 181.425781 28.355469 181.828125 C 28.015625 182.460938 27.976562 182.679688 28.050781 183.46875 L 28.136719 184.382812 L 27.378906 185.175781 C 26.628906 185.964844 26.621094 185.984375 26.621094 186.960938 C 26.621094 187.847656 26.570312 188.015625 26.109375 188.621094 C 25.828125 188.988281 25.550781 189.539062 25.496094 189.84375 C 25.351562 190.613281 24.84375 191.75 24.644531 191.75 C 24.554688 191.75 24.269531 192.199219 24.011719 192.746094 C 23.617188 193.589844 23.570312 193.804688 23.714844 194.121094 C 24.058594 194.875 23.933594 195.277344 23.109375 196.035156 L 22.328125 196.75 L 22.433594 197.824219 L 22.539062 198.894531 L 21.859375 199.871094 L 21.175781 200.847656 L 21.417969 201.605469 C 21.660156 202.363281 21.660156 202.367188 21.179688 203.457031 C 20.914062 204.058594 20.699219 204.679688 20.699219 204.84375 C 20.699219 205.304688 19.945312 206.773438 19.621094 206.945312 C 19.316406 207.109375 19.222656 207.765625 19.480469 207.925781 C 19.769531 208.105469 19.660156 209.667969 19.332031 210.089844 C 19.164062 210.300781 19.027344 210.59375 19.027344 210.738281 C 19.027344 210.886719 18.925781 211.085938 18.804688 211.1875 C 18.683594 211.289062 18.398438 211.691406 18.167969 212.078125 C 17.648438 212.964844 17.585938 214.148438 18.042969 214.480469 C 18.320312 214.683594 18.320312 214.695312 17.996094 214.925781 C 17.808594 215.054688 17.660156 215.242188 17.660156 215.34375 C 17.660156 215.445312 17.449219 215.78125 17.195312 216.09375 C 16.914062 216.433594 16.679688 216.941406 16.601562 217.378906 C 16.527344 217.777344 16.355469 218.414062 16.214844 218.789062 C 16.011719 219.34375 15.992188 219.617188 16.117188 220.246094 C 16.222656 220.773438 16.222656 221.214844 16.113281 221.636719 C 15.996094 222.105469 16.011719 222.507812 16.183594 223.296875 C 16.308594 223.867188 16.378906 224.578125 16.339844 224.875 C 16.289062 225.25 16.339844 225.472656 16.507812 225.613281 C 16.640625 225.722656 16.746094 225.902344 16.746094 226.015625 C 16.746094 226.300781 17.921875 226.441406 19.308594 226.320312 C 20.574219 226.207031 21.183594 226.347656 21.652344 226.851562 C 22.050781 227.277344 22.8125 227.226562 23.46875 226.726562 C 24.152344 226.203125 24.722656 225.511719 24.875 225.015625 C 24.941406 224.808594 25.15625 224.398438 25.351562 224.109375 C 25.585938 223.765625 25.710938 223.359375 25.710938 222.953125 C 25.710938 222.242188 25.972656 221.371094 26.1875 221.371094 C 26.269531 221.371094 26.441406 221.113281 26.570312 220.800781 C 26.699219 220.488281 26.902344 220.175781 27.019531 220.109375 C 27.132812 220.042969 27.230469 219.8125 27.230469 219.597656 C 27.230469 219.382812 27.371094 218.972656 27.546875 218.691406 C 27.808594 218.265625 27.851562 218.023438 27.777344 217.304688 C 27.460938 214.203125 27.457031 214.25 27.957031 213.726562 C 28.207031 213.460938 28.460938 213.078125 28.523438 212.875 C 28.585938 212.671875 28.761719 212.296875 28.917969 212.039062 C 29.101562 211.738281 29.203125 211.285156 29.203125 210.769531 C 29.203125 210.167969 29.265625 209.945312 29.453125 209.875 C 29.671875 209.789062 29.6875 209.574219 29.597656 208.128906 L 29.492188 206.480469 L 29.992188 205.761719 C 30.269531 205.363281 30.617188 204.953125 30.761719 204.84375 C 30.976562 204.683594 31.027344 204.40625 31.027344 203.398438 L 31.03125 202.15625 L 31.9375 201.191406 C 32.820312 200.253906 32.835938 200.222656 32.601562 199.863281 C 32.453125 199.640625 32.394531 199.335938 32.445312 199.078125 C 32.492188 198.847656 32.605469 198.25 32.695312 197.75 C 32.789062 197.246094 33.207031 196.121094 33.628906 195.242188 C 34.585938 193.257812 34.628906 193.15625 34.734375 192.53125 C 34.816406 192.074219 35.175781 191.5 35.808594 190.828125 C 35.957031 190.671875 36.023438 190.304688 36.007812 189.730469 C 35.988281 188.988281 36.054688 188.773438 36.449219 188.21875 C 37.121094 187.277344 37.503906 186.449219 37.621094 185.671875 C 37.679688 185.296875 37.898438 184.695312 38.109375 184.339844 C 38.316406 183.980469 38.472656 183.570312 38.457031 183.425781 C 38.4375 183.285156 38.503906 182.972656 38.597656 182.738281 C 38.695312 182.503906 38.773438 182.1875 38.773438 182.039062 C 38.773438 181.890625 38.910156 181.644531 39.078125 181.496094 C 39.246094 181.34375 39.382812 181.15625 39.382812 181.082031 C 39.382812 181.003906 39.546875 180.726562 39.75 180.460938 C 40.128906 179.960938 40.496094 179.101562 40.671875 178.304688 C 40.726562 178.054688 40.847656 177.804688 40.941406 177.75 C 41.035156 177.691406 41.160156 177.160156 41.222656 176.570312 C 41.285156 175.980469 41.445312 175.34375 41.574219 175.15625 C 41.707031 174.972656 41.8125 174.625 41.8125 174.382812 C 41.8125 174.058594 42.019531 173.746094 42.648438 173.132812 C 43.328125 172.46875 43.527344 172.160156 43.707031 171.460938 C 43.886719 170.777344 44.113281 170.410156 44.835938 169.636719 C 45.609375 168.8125 45.757812 168.5625 45.835938 167.941406 C 45.886719 167.542969 45.996094 167.097656 46.074219 166.953125 C 46.152344 166.804688 46.21875 166.601562 46.21875 166.496094 C 46.21875 166.214844 47.097656 164.566406 47.574219 163.949219 C 47.800781 163.65625 48.175781 163.007812 48.402344 162.507812 C 49.199219 160.757812 49.640625 159.972656 50.199219 159.300781 C 50.507812 158.925781 50.808594 158.46875 50.863281 158.285156 C 50.921875 158.101562 51.128906 157.757812 51.324219 157.527344 C 51.695312 157.082031 51.988281 156.234375 51.992188 155.59375 C 51.992188 155.363281 52.199219 155.015625 52.519531 154.703125 C 53.039062 154.199219 53.058594 154.195312 54.234375 154.25 L 55.421875 154.304688 L 56.195312 155.074219 C 56.621094 155.5 57.015625 156.003906 57.078125 156.191406 C 57.136719 156.382812 57.394531 156.71875 57.644531 156.941406 C 58.1875 157.414062 58.925781 158.179688 60.183594 159.578125 C 60.878906 160.347656 61.105469 160.710938 61.105469 161.054688 C 61.105469 161.425781 61.222656 161.574219 61.765625 161.890625 C 62.128906 162.105469 62.574219 162.277344 62.757812 162.277344 C 62.941406 162.277344 63.128906 162.378906 63.175781 162.507812 C 63.226562 162.632812 63.363281 162.734375 63.480469 162.734375 C 63.597656 162.734375 63.765625 162.921875 63.855469 163.152344 C 63.941406 163.382812 64.101562 163.671875 64.210938 163.796875 C 64.316406 163.921875 64.453125 164.21875 64.507812 164.453125 C 64.5625 164.6875 65.152344 165.445312 65.820312 166.140625 C 66.515625 166.867188 67.03125 167.53125 67.03125 167.707031 C 67.03125 168.089844 66.632812 169.058594 66.421875 169.191406 C 66.335938 169.242188 66.164062 169.53125 66.039062 169.828125 C 65.800781 170.398438 64.855469 171.394531 64.550781 171.394531 C 64.238281 171.394531 63.546875 172.390625 63.632812 172.722656 C 63.71875 173.046875 62.898438 174.128906 62.566406 174.128906 C 62.246094 174.128906 61.574219 175.046875 61.480469 175.617188 C 61.324219 176.558594 61.097656 176.984375 60.441406 177.574219 C 59.503906 178.417969 58.980469 179.132812 58.972656 179.578125 C 58.972656 179.796875 58.867188 180.109375 58.746094 180.269531 C 58.625 180.433594 58.523438 180.679688 58.523438 180.820312 C 58.523438 180.960938 58.421875 181.164062 58.296875 181.265625 C 58.171875 181.371094 57.996094 181.726562 57.90625 182.054688 C 57.703125 182.816406 56.042969 184.527344 55.367188 184.675781 C 55.074219 184.742188 54.667969 185.0625 54.246094 185.554688 C 53.148438 186.84375 52.710938 187.195312 52.082031 187.292969 C 51.605469 187.371094 51.238281 187.636719 50.148438 188.699219 C 49.40625 189.417969 48.800781 190.09375 48.800781 190.195312 C 48.800781 190.300781 47.980469 191.21875 46.976562 192.234375 C 45.976562 193.253906 45.15625 194.140625 45.15625 194.207031 C 45.15625 194.277344 45.050781 194.332031 44.925781 194.332031 C 44.785156 194.332031 44.699219 194.476562 44.699219 194.722656 C 44.699219 195.058594 44.410156 195.910156 43.929688 196.988281 C 43.851562 197.15625 43.660156 197.464844 43.5 197.671875 C 43.253906 197.988281 43.191406 198.382812 43.125 199.984375 L 43.046875 201.917969 L 42.507812 202.628906 C 42.042969 203.234375 41.964844 203.453125 41.964844 204.140625 C 41.964844 204.585938 41.910156 204.980469 41.839844 205.023438 C 41.769531 205.066406 41.589844 205.53125 41.441406 206.058594 C 41.292969 206.585938 41.070312 207.285156 40.949219 207.617188 C 40.679688 208.339844 40.820312 211.304688 41.148438 211.9375 C 41.261719 212.15625 41.355469 212.65625 41.355469 213.050781 C 41.355469 213.609375 41.292969 213.800781 41.054688 213.925781 C 40.820312 214.050781 40.75 214.246094 40.75 214.75 C 40.75 215.128906 40.839844 215.484375 40.960938 215.585938 C 41.328125 215.890625 41.355469 216.683594 41.019531 217.398438 C 40.765625 217.933594 40.726562 218.226562 40.804688 218.980469 C 40.859375 219.488281 41.003906 220.019531 41.128906 220.15625 C 41.425781 220.484375 41.417969 221.050781 41.117188 221.386719 C 40.863281 221.664062 40.929688 221.921875 41.570312 223.203125 C 41.691406 223.445312 41.738281 223.917969 41.695312 224.433594 C 41.652344 224.992188 41.703125 225.417969 41.851562 225.714844 C 41.976562 225.957031 42.121094 226.40625 42.175781 226.710938 C 42.230469 227.015625 42.425781 227.453125 42.605469 227.683594 C 43.054688 228.253906 43.167969 229.679688 42.804688 230.230469 C 42.554688 230.609375 42.5625 230.65625 42.898438 231.335938 C 43.09375 231.722656 43.335938 232.074219 43.4375 232.113281 C 44.023438 232.335938 44.546875 234.078125 44.546875 235.792969 L 44.546875 236.828125 L 45.609375 237.8125 C 46.195312 238.351562 46.675781 238.902344 46.675781 239.03125 C 46.675781 239.160156 46.835938 239.304688 47.035156 239.355469 C 47.238281 239.40625 47.613281 239.6875 47.871094 239.984375 C 48.289062 240.460938 48.34375 240.628906 48.34375 241.441406 C 48.34375 242.324219 48.371094 242.386719 48.992188 242.992188 C 49.347656 243.339844 49.90625 243.96875 50.238281 244.386719 C 50.570312 244.804688 51.332031 245.632812 51.933594 246.230469 C 52.539062 246.828125 53.199219 247.578125 53.402344 247.902344 C 53.996094 248.832031 54.492188 249.203125 55.304688 249.332031 C 56.210938 249.476562 56.925781 250.082031 57.082031 250.84375 C 57.140625 251.132812 57.335938 251.53125 57.515625 251.726562 C 57.835938 252.078125 57.875 252.476562 57.75 254.222656 C 57.734375 254.453125 57.839844 254.777344 57.988281 254.9375 C 58.1875 255.160156 58.230469 255.363281 58.148438 255.734375 C 57.9375 256.746094 58 256.988281 58.675781 257.703125 L 59.328125 258.394531 L 59.296875 259.640625 C 59.265625 260.84375 59.277344 260.902344 59.726562 261.359375 C 59.980469 261.621094 60.234375 262.058594 60.285156 262.332031 C 60.335938 262.605469 60.472656 262.910156 60.589844 263.007812 C 60.707031 263.105469 60.800781 263.28125 60.800781 263.398438 C 60.800781 263.515625 60.90625 263.652344 61.035156 263.699219 C 61.316406 263.808594 62.015625 265.246094 62.015625 265.714844 C 62.015625 265.902344 61.945312 266.1875 61.855469 266.351562 C 61.722656 266.605469 61.824219 266.792969 62.539062 267.59375 C 63.003906 268.113281 63.382812 268.660156 63.382812 268.804688 C 63.382812 268.953125 63.554688 269.222656 63.765625 269.402344 C 64.019531 269.625 64.144531 269.890625 64.144531 270.207031 C 64.144531 270.550781 64.292969 270.824219 64.675781 271.199219 C 65.085938 271.597656 65.207031 271.835938 65.207031 272.253906 C 65.210938 273.253906 65.480469 273.839844 66.34375 274.6875 C 66.84375 275.183594 67.183594 275.648438 67.183594 275.84375 C 67.183594 276.207031 67.585938 276.78125 68.414062 277.585938 C 68.800781 277.960938 69 278.316406 69.074219 278.753906 C 69.152344 279.21875 69.3125 279.484375 69.691406 279.773438 C 69.96875 279.984375 70.292969 280.160156 70.40625 280.160156 C 70.757812 280.160156 71.527344 281.113281 71.714844 281.78125 C 71.832031 282.183594 72.097656 282.585938 72.460938 282.894531 C 73.75 283.992188 73.988281 284.238281 74.09375 284.582031 C 74.34375 285.429688 75.757812 287.148438 76.203125 287.148438 C 76.308594 287.148438 76.535156 287.308594 76.707031 287.507812 C 76.878906 287.707031 77.402344 288.054688 77.871094 288.285156 C 78.34375 288.515625 78.726562 288.757812 78.726562 288.824219 C 78.726562 288.890625 78.929688 288.992188 79.179688 289.046875 C 79.457031 289.109375 79.738281 289.320312 79.902344 289.597656 C 80.046875 289.84375 80.316406 290.085938 80.496094 290.128906 C 80.675781 290.175781 80.980469 290.378906 81.167969 290.578125 C 81.484375 290.914062 81.628906 290.945312 82.914062 290.945312 C 83.886719 290.945312 84.359375 291.007812 84.476562 291.148438 C 84.597656 291.292969 84.84375 291.320312 85.371094 291.242188 C 86.78125 291.03125 87.746094 290.789062 87.984375 290.585938 C 88.40625 290.214844 89.300781 290.015625 90.066406 290.117188 C 90.734375 290.207031 90.859375 290.171875 91.394531 289.746094 C 92.046875 289.226562 92.417969 289.15625 92.703125 289.503906 C 93.019531 289.882812 93.507812 289.757812 94.117188 289.136719 C 94.753906 288.492188 95.160156 288.363281 96.546875 288.363281 C 97.234375 288.363281 97.546875 288.292969 97.78125 288.078125 C 97.953125 287.921875 98.558594 287.644531 99.125 287.457031 C 99.707031 287.265625 100.480469 286.863281 100.90625 286.527344 C 101.320312 286.199219 101.789062 285.933594 101.953125 285.933594 C 102.464844 285.933594 103 285.664062 103.597656 285.097656 C 103.914062 284.796875 104.597656 284.210938 105.117188 283.789062 C 106.035156 283.050781 106.085938 283.03125 106.777344 283.132812 C 108.367188 283.371094 108.667969 284.933594 107.394531 286.34375 C 107.136719 286.628906 107.109375 286.796875 107.207031 287.484375 C 107.4375 289.101562 107.214844 291.25 106.816406 291.25 C 106.738281 291.25 106.714844 291.414062 106.765625 291.613281 C 106.8125 291.8125 106.78125 292.023438 106.691406 292.078125 C 106.441406 292.234375 106.496094 293.089844 106.777344 293.402344 C 106.949219 293.59375 107.046875 294.046875 107.09375 294.855469 C 107.125 295.503906 107.261719 296.238281 107.386719 296.492188 C 107.539062 296.785156 107.664062 297.675781 107.742188 298.996094 C 107.851562 300.859375 107.902344 301.132812 108.332031 301.988281 C 108.59375 302.503906 108.875 302.972656 108.957031 303.023438 C 109.039062 303.074219 109.109375 303.589844 109.109375 304.171875 C 109.109375 305.144531 109.144531 305.265625 109.609375 305.792969 C 109.886719 306.109375 110.238281 306.671875 110.398438 307.046875 C 110.554688 307.425781 110.800781 307.867188 110.941406 308.035156 C 111.324219 308.488281 111.539062 308.960938 111.542969 309.355469 C 111.550781 309.789062 112.203125 310.523438 112.929688 310.910156 C 113.230469 311.070312 113.863281 311.554688 114.332031 311.988281 C 115.050781 312.652344 115.1875 312.859375 115.1875 313.300781 C 115.1875 313.589844 115.117188 313.894531 115.027344 313.980469 C 114.8125 314.199219 115.375 314.886719 115.875 315.011719 C 116.390625 315.140625 117.722656 316.410156 117.839844 316.886719 C 117.957031 317.355469 118.476562 317.878906 119.691406 318.761719 L 120.625 319.441406 L 122.21875 319.320312 C 123.980469 319.191406 124.464844 318.992188 125.644531 317.910156 C 126.496094 317.132812 126.632812 316.773438 126.359375 316.046875 C 126.246094 315.734375 126.117188 315.191406 126.074219 314.839844 C 126.035156 314.488281 125.859375 314.015625 125.683594 313.792969 C 125.507812 313.570312 125.363281 313.269531 125.363281 313.125 C 125.363281 312.976562 124.9375 312.472656 124.414062 312 C 123.503906 311.175781 122.894531 310.46875 122.117188 309.328125 C 121.75 308.785156 121.148438 308.175781 119.863281 307.042969 C 119.46875 306.695312 119.101562 306.265625 119.042969 306.085938 C 118.988281 305.90625 118.820312 305.675781 118.675781 305.570312 C 118.492188 305.441406 118.394531 305.109375 118.34375 304.453125 C 118.296875 303.761719 118.199219 303.457031 117.972656 303.273438 C 117.570312 302.941406 116.703125 301.804688 116.703125 301.605469 C 116.703125 301.519531 116.550781 301.324219 116.363281 301.171875 C 115.78125 300.703125 115.441406 300.027344 115.402344 299.261719 C 115.378906 298.855469 115.238281 298.34375 115.085938 298.117188 C 114.867188 297.796875 114.804688 297.40625 114.800781 296.339844 C 114.796875 295.585938 114.734375 294.621094 114.667969 294.195312 C 114.554688 293.5 114.582031 293.34375 114.957031 292.710938 C 115.363281 292.015625 115.371094 291.953125 115.378906 289.386719 C 115.386719 287.945312 115.34375 286.625 115.285156 286.453125 C 115.214844 286.234375 115.277344 286.050781 115.488281 285.859375 C 115.65625 285.707031 115.792969 285.433594 115.792969 285.25 C 115.792969 285.066406 115.929688 284.792969 116.09375 284.644531 C 116.292969 284.464844 116.367188 284.257812 116.3125 284.039062 C 116.214844 283.644531 116.699219 282.640625 117.226562 282.144531 C 117.472656 281.914062 117.625 281.554688 117.695312 281.039062 C 117.804688 280.265625 118.230469 279.144531 118.914062 277.859375 C 119.148438 277.417969 119.289062 276.90625 119.289062 276.484375 C 119.289062 275.625 119.863281 275.011719 120.789062 274.886719 C 121.273438 274.824219 121.589844 274.632812 122.210938 274.03125 C 123.355469 272.921875 123.824219 272.585938 124.121094 272.664062 C 124.265625 272.703125 124.621094 272.574219 124.910156 272.378906 C 125.902344 271.710938 126.257812 271.632812 127.257812 271.871094 C 128.003906 272.046875 128.285156 272.210938 128.816406 272.773438 C 129.289062 273.273438 129.464844 273.585938 129.464844 273.921875 C 129.464844 274.179688 129.527344 274.386719 129.605469 274.386719 C 129.683594 274.386719 129.789062 274.511719 129.835938 274.660156 C 129.882812 274.8125 130.320312 275.34375 130.808594 275.847656 C 131.453125 276.507812 131.730469 276.921875 131.808594 277.335938 C 131.875 277.691406 132.117188 278.113281 132.4375 278.433594 C 132.722656 278.71875 132.960938 279.054688 132.960938 279.179688 C 132.960938 279.300781 133.03125 279.402344 133.117188 279.402344 C 133.207031 279.402344 133.445312 279.582031 133.652344 279.804688 C 133.859375 280.027344 134.179688 280.289062 134.367188 280.378906 C 134.746094 280.570312 135.449219 281.914062 135.332031 282.222656 C 135.253906 282.417969 136.179688 283.351562 136.445312 283.351562 C 136.519531 283.351562 136.785156 283.632812 137.039062 283.976562 C 137.597656 284.734375 138.949219 285.78125 139.371094 285.78125 C 139.722656 285.78125 140.476562 286.378906 140.972656 287.046875 C 141.28125 287.464844 141.308594 287.644531 141.25 288.882812 C 141.195312 290.097656 141.148438 290.285156 140.832031 290.539062 C 139.15625 291.878906 139.125 292.09375 140.375 293.597656 C 140.441406 293.675781 140.464844 294.140625 140.429688 294.632812 C 140.382812 295.289062 140.433594 295.652344 140.632812 296.019531 C 140.953125 296.609375 140.855469 297.398438 140.398438 297.980469 C 140.078125 298.386719 139.980469 299.515625 140.253906 299.683594 C 140.335938 299.734375 140.546875 300.050781 140.71875 300.386719 C 141.003906 300.949219 141.011719 301.074219 140.835938 302.117188 C 140.65625 303.203125 140.660156 303.257812 140.980469 303.597656 C 141.21875 303.851562 141.316406 304.148438 141.316406 304.628906 C 141.324219 305.640625 141.550781 306.429688 141.964844 306.875 C 142.21875 307.144531 142.371094 307.535156 142.4375 308.066406 C 142.492188 308.5 142.636719 309.144531 142.761719 309.492188 C 142.882812 309.839844 142.984375 310.339844 142.984375 310.605469 C 142.984375 311.210938 143.464844 312.589844 143.796875 312.9375 C 144.234375 313.398438 144.753906 314.105469 144.851562 314.378906 C 144.90625 314.523438 145.046875 314.644531 145.164062 314.644531 C 145.304688 314.644531 145.410156 314.894531 145.472656 315.371094 C 145.554688 315.984375 145.6875 316.210938 146.289062 316.792969 C 147.457031 317.914062 148.027344 318.128906 149.597656 318.042969 C 151.691406 317.929688 152.375 317.410156 152.542969 315.800781 C 152.609375 315.160156 152.746094 314.699219 152.929688 314.496094 C 153.480469 313.886719 153.238281 312.027344 152.503906 311.226562 C 152.351562 311.058594 152.128906 310.734375 152.007812 310.503906 C 151.886719 310.273438 151.71875 310.085938 151.632812 310.085938 C 151.472656 310.085938 150.582031 308.324219 150.582031 308.007812 C 150.582031 307.90625 150.453125 307.734375 150.300781 307.625 C 150.144531 307.515625 149.808594 307.085938 149.546875 306.671875 C 149.148438 306.023438 149.109375 305.878906 149.285156 305.683594 C 149.398438 305.558594 149.535156 305.144531 149.589844 304.769531 C 149.679688 304.175781 149.636719 304.003906 149.269531 303.480469 C 148.859375 302.890625 148.84375 302.796875 148.792969 300.59375 C 148.746094 298.484375 148.714844 298.273438 148.378906 297.78125 C 147.898438 297.078125 147.699219 295.703125 148.058594 295.5625 C 148.640625 295.339844 148.757812 294.71875 148.753906 291.902344 C 148.753906 290.367188 148.847656 288.511719 148.972656 287.605469 C 149.089844 286.726562 149.195312 285.683594 149.203125 285.28125 C 149.214844 284.375 149.476562 283.746094 150.265625 282.699219 C 150.753906 282.050781 150.882812 281.75 150.882812 281.257812 C 150.882812 280.914062 150.957031 280.445312 151.042969 280.207031 C 151.261719 279.613281 152 278.996094 152.636719 278.878906 C 152.929688 278.824219 153.410156 278.636719 153.703125 278.464844 C 154.53125 277.976562 155.046875 278.160156 156.226562 279.363281 C 156.78125 279.925781 157.480469 280.621094 157.78125 280.90625 C 158.164062 281.265625 158.359375 281.605469 158.425781 282.019531 C 158.480469 282.347656 158.617188 282.652344 158.730469 282.695312 C 158.84375 282.738281 158.9375 282.867188 158.9375 282.984375 C 158.9375 283.097656 159.144531 283.300781 159.402344 283.433594 C 159.65625 283.5625 160.1875 283.976562 160.578125 284.347656 C 161.347656 285.078125 161.394531 285.101562 162.464844 285.246094 C 163.085938 285.328125 163.316406 285.472656 164.097656 286.246094 C 164.597656 286.742188 165.078125 287.148438 165.164062 287.148438 C 165.253906 287.148438 165.617188 287.417969 165.972656 287.75 C 167.296875 288.96875 168.3125 288.957031 169.527344 287.710938 C 169.949219 287.277344 170.347656 286.75 170.410156 286.539062 C 170.46875 286.332031 170.648438 285.980469 170.804688 285.757812 C 170.960938 285.535156 171.089844 285.277344 171.089844 285.179688 C 171.089844 284.949219 171.863281 283.953125 172.949219 282.792969 C 173.429688 282.277344 173.824219 281.726562 173.824219 281.566406 C 173.824219 281.195312 174.433594 280.617188 174.828125 280.617188 C 175.011719 280.617188 175.675781 280.027344 176.5625 279.070312 C 177.355469 278.21875 178.207031 277.308594 178.457031 277.039062 L 178.910156 276.554688 L 179.335938 276.988281 C 179.699219 277.359375 179.746094 277.5 179.660156 277.964844 C 179.585938 278.363281 179.625 278.570312 179.808594 278.761719 C 179.945312 278.90625 180.3125 279.363281 180.625 279.78125 L 181.191406 280.539062 L 181.214844 283.089844 L 181.238281 285.636719 L 181.785156 286.199219 C 182.203125 286.628906 182.328125 286.882812 182.328125 287.304688 C 182.328125 287.601562 182.253906 287.925781 182.160156 288.019531 C 181.902344 288.277344 182.105469 288.832031 182.703125 289.507812 C 183.230469 290.097656 183.394531 290.683594 183.089844 290.871094 C 183.007812 290.921875 182.9375 291.132812 182.9375 291.34375 C 182.9375 291.550781 182.808594 291.972656 182.652344 292.28125 C 182.023438 293.523438 181.867188 293.957031 181.65625 295.070312 C 181.480469 296.003906 181.320312 296.386719 180.820312 297.042969 C 180.480469 297.492188 180.128906 298.097656 180.035156 298.390625 C 179.941406 298.683594 179.769531 299.070312 179.65625 299.253906 C 179.542969 299.4375 179.402344 300.085938 179.34375 300.699219 L 179.242188 301.808594 L 178.222656 302.871094 C 177.660156 303.457031 177.082031 304.171875 176.933594 304.460938 C 176.789062 304.75 176.292969 305.332031 175.835938 305.753906 C 175.015625 306.507812 174.132812 307.8125 174.128906 308.273438 C 174.125 308.632812 172.074219 310.535156 171.582031 310.632812 C 171.339844 310.683594 170.652344 311.199219 169.960938 311.855469 C 168.96875 312.796875 168.648438 313.011719 168.070312 313.121094 C 167.195312 313.285156 166.074219 314.371094 166.074219 315.058594 C 166.074219 315.292969 165.964844 315.644531 165.832031 315.835938 C 165.617188 316.140625 165.609375 316.339844 165.757812 317.351562 C 165.910156 318.367188 166 318.585938 166.480469 319.074219 C 166.78125 319.382812 167.1875 319.675781 167.382812 319.722656 C 167.578125 319.773438 167.808594 319.949219 167.898438 320.113281 C 167.992188 320.285156 168.21875 320.417969 168.425781 320.417969 C 168.625 320.417969 168.980469 320.488281 169.210938 320.578125 C 169.800781 320.800781 170.710938 320.609375 171.257812 320.148438 C 171.539062 319.914062 172.023438 319.710938 172.476562 319.640625 C 173.550781 319.46875 174.820312 318.78125 175.515625 317.984375 C 176 317.433594 176.488281 316.886719 176.980469 316.339844 C 177.457031 315.808594 177.90625 315.273438 177.976562 315.152344 C 178.140625 314.859375 179.664062 313.339844 179.953125 313.175781 C 180.148438 313.066406 181.621094 311.746094 182.746094 310.667969 C 183.003906 310.425781 183.089844 310.167969 183.089844 309.65625 C 183.089844 308.714844 183.597656 307.703125 184.207031 307.441406 C 184.46875 307.328125 185.042969 306.898438 185.480469 306.488281 C 186.125 305.882812 186.28125 305.644531 186.28125 305.25 C 186.28125 304.980469 186.390625 304.589844 186.523438 304.386719 C 186.679688 304.148438 186.796875 303.527344 186.851562 302.683594 L 186.933594 301.351562 L 187.820312 300.496094 L 188.710938 299.636719 L 188.710938 298.65625 C 188.710938 297.894531 188.773438 297.621094 188.992188 297.421875 C 189.214844 297.21875 189.292969 296.871094 189.351562 295.8125 C 189.414062 294.742188 189.496094 294.375 189.753906 294.050781 C 190.019531 293.714844 190.078125 293.429688 190.082031 292.484375 C 190.085938 291.707031 190.160156 291.230469 190.308594 291.03125 C 190.625 290.617188 190.585938 290.128906 190.214844 289.796875 C 189.953125 289.558594 189.917969 289.402344 190.003906 288.898438 C 190.179688 287.847656 190.140625 286.726562 189.921875 286.457031 C 189.648438 286.128906 189.597656 285.761719 189.796875 285.523438 C 189.910156 285.386719 189.90625 284.769531 189.785156 283.46875 C 189.539062 280.832031 189.5 280.65625 189.078125 280.265625 L 188.699219 279.914062 L 189.121094 279.433594 C 189.417969 279.09375 189.679688 278.949219 190 278.949219 C 190.253906 278.949219 190.851562 278.949219 191.335938 278.945312 C 191.820312 278.941406 192.339844 279.007812 192.488281 279.085938 C 192.640625 279.167969 193.199219 279.304688 193.726562 279.390625 C 194.5 279.515625 194.773438 279.636719 195.117188 280.015625 C 195.578125 280.519531 195.640625 280.761719 195.378906 281.023438 C 195.261719 281.144531 195.277344 281.289062 195.449219 281.550781 C 195.578125 281.746094 195.855469 282.367188 196.070312 282.933594 C 196.507812 284.09375 196.714844 284.496094 197.125 284.980469 C 197.324219 285.214844 197.445312 285.675781 197.519531 286.496094 C 197.585938 287.25 197.746094 287.898438 197.953125 288.285156 C 198.132812 288.617188 198.28125 288.972656 198.28125 289.070312 C 198.28125 289.171875 198.441406 289.445312 198.640625 289.679688 C 198.835938 289.917969 199.039062 290.316406 199.085938 290.566406 C 199.292969 291.640625 199.398438 291.949219 199.652344 292.238281 C 200.011719 292.640625 200.085938 293.066406 199.882812 293.527344 C 199.613281 294.144531 199.6875 294.367188 200.4375 295.167969 C 201.144531 295.921875 201.421875 296.433594 201.871094 297.808594 C 202 298.199219 202.238281 298.636719 202.394531 298.78125 C 202.585938 298.953125 202.6875 299.246094 202.6875 299.636719 C 202.6875 300.285156 202.828125 300.617188 203.429688 301.414062 C 203.765625 301.855469 203.851562 302.1875 203.988281 303.597656 C 204.117188 304.875 204.214844 305.292969 204.40625 305.402344 C 204.546875 305.480469 204.660156 305.613281 204.660156 305.695312 C 204.660156 305.78125 204.898438 306.09375 205.191406 306.394531 C 205.484375 306.695312 205.722656 307.042969 205.722656 307.164062 C 205.722656 307.28125 205.347656 307.808594 204.886719 308.332031 C 204.429688 308.855469 204.054688 309.378906 204.054688 309.496094 C 204.054688 309.613281 203.613281 310.105469 203.074219 310.59375 C 202.230469 311.359375 202.078125 311.574219 201.992188 312.148438 C 201.9375 312.511719 201.796875 312.890625 201.683594 312.988281 C 201.566406 313.082031 201.46875 313.238281 201.46875 313.332031 C 201.46875 313.519531 199.78125 315.464844 199.085938 316.085938 C 198.179688 316.890625 197.425781 317.472656 197.019531 317.679688 C 196.144531 318.121094 195.359375 318.953125 194.921875 319.898438 C 194.679688 320.417969 194.484375 320.941406 194.484375 321.058594 C 194.484375 321.175781 194.382812 321.402344 194.257812 321.566406 C 194.109375 321.761719 194.035156 322.242188 194.03125 323.023438 L 194.027344 324.1875 L 195.019531 325.09375 C 196.050781 326.042969 196.550781 326.261719 196.96875 325.957031 C 197.265625 325.742188 197.898438 325.835938 198.140625 326.128906 C 198.261719 326.273438 198.660156 326.339844 199.390625 326.339844 C 200.351562 326.339844 200.511719 326.296875 200.890625 325.933594 C 201.230469 325.609375 201.320312 325.390625 201.320312 324.863281 C 201.320312 324.269531 201.402344 324.117188 202.128906 323.371094 C 202.574219 322.917969 203.046875 322.542969 203.183594 322.542969 C 203.570312 322.542969 204.234375 322.214844 204.78125 321.75 C 205.054688 321.519531 205.347656 321.328125 205.429688 321.328125 C 205.511719 321.328125 205.652344 321.175781 205.738281 320.984375 C 206.269531 319.84375 206.402344 319.683594 208.726562 317.492188 C 209.328125 316.921875 210.136719 316.714844 210.355469 317.074219 C 210.410156 317.15625 210.601562 317.226562 210.785156 317.226562 C 210.996094 317.226562 211.644531 317.726562 212.554688 318.589844 L 213.992188 319.949219 L 214.003906 320.996094 C 214.011719 321.898438 214.066406 322.105469 214.421875 322.523438 C 214.929688 323.128906 215.539062 323.640625 216.128906 323.960938 C 217.058594 324.464844 217.441406 324.902344 217.527344 325.558594 C 217.574219 325.90625 217.695312 326.1875 217.792969 326.1875 C 218.039062 326.1875 218.554688 327.394531 218.507812 327.859375 C 218.457031 328.375 217.6875 329.011719 216.871094 329.214844 C 216.367188 329.34375 216.125 329.507812 215.90625 329.875 C 215.449219 330.648438 215.367188 330.703125 214.476562 330.8125 C 213.773438 330.902344 213.5625 331.003906 213.175781 331.445312 C 212.921875 331.734375 212.710938 332.035156 212.710938 332.113281 C 212.710938 332.335938 211.035156 333.9375 210.800781 333.9375 C 210.402344 333.9375 209.371094 335.007812 209.371094 335.421875 C 209.371094 335.632812 209.195312 336.179688 208.980469 336.632812 C 208.621094 337.386719 208.609375 337.480469 208.828125 337.722656 C 208.957031 337.867188 209.066406 338.164062 209.066406 338.378906 C 209.066406 338.773438 210.304688 340.316406 210.617188 340.316406 C 210.699219 340.316406 210.9375 340.453125 211.152344 340.621094 C 211.363281 340.789062 211.683594 340.925781 211.859375 340.925781 C 212.035156 340.925781 212.386719 341.050781 212.640625 341.207031 L 213.097656 341.484375 L 214.007812 340.992188 C 214.570312 340.6875 215.136719 340.390625 215.707031 340.101562 C 216.144531 339.882812 216.574219 339.570312 216.664062 339.402344 C 216.75 339.238281 216.914062 339.101562 217.023438 339.101562 C 217.132812 339.101562 217.453125 338.929688 217.738281 338.71875 C 218.023438 338.507812 218.667969 338.066406 219.167969 337.742188 C 219.667969 337.414062 220.355469 336.878906 220.691406 336.554688 C 221.105469 336.152344 221.5 335.929688 221.898438 335.867188 C 222.28125 335.804688 222.675781 335.585938 223.03125 335.238281 C 223.632812 334.652344 224.070312 334.566406 225.460938 334.765625 C 226.171875 334.867188 226.402344 334.992188 227.089844 335.644531 C 227.53125 336.0625 227.933594 336.53125 227.984375 336.691406 C 228.035156 336.847656 228.292969 337.089844 228.558594 337.226562 C 228.824219 337.363281 229.484375 337.921875 230.027344 338.464844 C 230.570312 339.007812 231.460938 339.695312 232.003906 339.988281 C 232.546875 340.285156 233.027344 340.566406 233.066406 340.613281 C 233.359375 340.9375 234.269531 341.4375 234.917969 341.628906 C 235.339844 341.753906 236.003906 342.074219 236.390625 342.339844 C 236.78125 342.605469 237.335938 342.953125 237.628906 343.109375 C 237.917969 343.269531 238.328125 343.554688 238.535156 343.746094 C 239.273438 344.425781 241.839844 345.632812 242.542969 345.632812 C 242.703125 345.632812 243.117188 345.890625 243.460938 346.203125 C 243.808594 346.515625 244.363281 346.992188 244.695312 347.257812 C 245.027344 347.527344 245.53125 347.9375 245.820312 348.171875 C 246.289062 348.550781 246.480469 348.601562 247.695312 348.648438 C 249.128906 348.707031 249.234375 348.75 250.636719 349.835938 C 251.515625 350.515625 252.457031 350.949219 253.058594 350.949219 C 253.867188 350.949219 254.894531 351.25 255.183594 351.574219 C 255.390625 351.800781 255.65625 351.863281 256.417969 351.863281 C 257.285156 351.863281 257.425781 351.90625 257.742188 352.269531 C 258.058594 352.644531 258.21875 352.6875 259.441406 352.765625 C 260.863281 352.855469 260.882812 352.863281 261.882812 353.621094 C 262.398438 354.015625 262.753906 354.140625 263.796875 354.289062 C 264.957031 354.453125 265.125 354.519531 265.578125 355 C 266.320312 355.785156 266.621094 355.851562 267.492188 355.425781 C 268.34375 355.007812 269.394531 354.9375 269.679688 355.28125 C 269.820312 355.449219 270.199219 355.507812 271.191406 355.507812 C 272.402344 355.507812 272.539062 355.539062 272.867188 355.886719 C 273.066406 356.097656 273.296875 356.265625 273.386719 356.265625 C 273.476562 356.265625 273.820312 356.507812 274.148438 356.800781 C 274.859375 357.429688 275.46875 357.488281 276.285156 357.007812 C 276.722656 356.75 276.976562 356.703125 277.539062 356.78125 C 277.925781 356.832031 278.382812 356.96875 278.554688 357.082031 C 278.726562 357.191406 279.164062 357.324219 279.527344 357.371094 C 279.886719 357.417969 280.304688 357.566406 280.449219 357.699219 C 280.777344 357.996094 281.328125 358.003906 282.003906 357.726562 C 282.285156 357.609375 282.957031 357.464844 283.503906 357.40625 C 284.351562 357.316406 284.542969 357.34375 284.871094 357.601562 C 285.078125 357.765625 285.554688 357.949219 285.929688 358.015625 C 286.304688 358.078125 287 358.335938 287.480469 358.585938 L 288.355469 359.042969 L 289.003906 358.511719 C 289.914062 357.769531 290.234375 357.695312 290.71875 358.121094 C 290.996094 358.363281 291.382812 358.496094 291.980469 358.550781 C 292.78125 358.628906 292.890625 358.597656 293.5 358.132812 C 294.230469 357.578125 295.152344 357.457031 295.558594 357.863281 C 295.699219 358.003906 296.074219 358.089844 296.546875 358.089844 C 297.328125 358.089844 298.285156 358.507812 298.441406 358.917969 C 298.503906 359.078125 298.679688 359.042969 299.25 358.753906 C 299.652344 358.550781 300.046875 358.316406 300.125 358.238281 C 300.207031 358.15625 300.722656 358.089844 301.273438 358.089844 C 301.820312 358.089844 302.839844 358.019531 303.535156 357.933594 C 304.296875 357.835938 304.867188 357.828125 304.972656 357.910156 C 305.292969 358.164062 305.949219 358.199219 308.066406 358.078125 C 309.761719 357.980469 310.203125 358 310.394531 358.167969 C 310.835938 358.566406 312.050781 358.214844 313.046875 357.398438 C 313.476562 357.046875 313.847656 356.871094 314.132812 356.878906 C 316.597656 356.953125 318.976562 356.765625 319.214844 356.476562 C 319.3125 356.363281 319.570312 356.265625 319.789062 356.265625 C 320.3125 356.265625 321.074219 355.792969 321.949219 354.921875 C 322.339844 354.535156 322.957031 353.933594 323.324219 353.585938 C 324.421875 352.542969 325.28125 351.511719 325.378906 351.132812 C 325.429688 350.933594 325.390625 350.511719 325.296875 350.199219 C 325.003906 349.222656 325.078125 348.996094 326.035156 347.953125 C 326.839844 347.074219 326.949219 346.882812 326.949219 346.332031 C 326.949219 345.988281 327.0625 345.332031 327.199219 344.875 C 327.335938 344.414062 327.46875 343.613281 327.496094 343.09375 C 327.519531 342.570312 327.613281 342.011719 327.699219 341.847656 C 327.789062 341.6875 327.859375 341.355469 327.859375 341.117188 C 327.859375 340.875 327.960938 340.546875 328.082031 340.382812 C 328.207031 340.222656 328.308594 339.953125 328.316406 339.785156 C 328.320312 339.617188 328.417969 339.359375 328.53125 339.210938 C 328.675781 339.019531 328.710938 338.652344 328.65625 337.953125 C 328.59375 337.148438 328.625 336.914062 328.847656 336.671875 C 329.070312 336.421875 329.121094 336.042969 329.148438 334.394531 C 329.179688 332.695312 329.226562 332.367188 329.472656 332.09375 C 329.722656 331.816406 329.753906 331.566406 329.714844 330.171875 C 329.6875 329.050781 329.613281 328.519531 329.46875 328.40625 C 329.328125 328.292969 329.230469 327.679688 329.164062 326.492188 C 329.109375 325.53125 329.007812 324.5 328.9375 324.203125 C 328.851562 323.816406 328.875 323.574219 329.019531 323.375 C 329.132812 323.21875 329.226562 322.898438 329.226562 322.660156 C 329.226562 322.425781 329.328125 321.984375 329.453125 321.683594 C 329.785156 320.894531 329.738281 320.351562 329.289062 319.816406 C 328.875 319.328125 328.875 319.3125 329.164062 317.640625 C 329.222656 317.292969 329.191406 316.988281 329.085938 316.859375 C 328.8125 316.53125 329.050781 314.660156 329.402344 314.359375 C 329.792969 314.027344 329.753906 313.496094 329.273438 312.683594 C 328.898438 312.046875 328.863281 311.859375 328.878906 310.542969 C 328.898438 309.417969 328.84375 309.015625 328.644531 308.71875 C 328.4375 308.40625 328.390625 307.929688 328.382812 306.0625 C 328.375 304.449219 328.3125 303.671875 328.164062 303.402344 C 328.019531 303.136719 327.953125 302.332031 327.9375 300.710938 C 327.921875 298.777344 327.875 298.355469 327.660156 298.117188 C 327.519531 297.960938 327.402344 297.632812 327.402344 297.390625 C 327.402344 297.144531 327.253906 296.707031 327.074219 296.414062 C 326.894531 296.121094 326.683594 295.609375 326.601562 295.277344 C 326.464844 294.699219 326.453125 294.359375 326.527344 292.796875 C 326.550781 292.289062 326.488281 292.078125 326.246094 291.882812 C 326.074219 291.742188 325.796875 291.425781 325.625 291.175781 C 325.34375 290.753906 325.320312 290.515625 325.355469 288.210938 C 325.398438 285.546875 325.277344 284.238281 324.976562 284.136719 C 324.59375 284.007812 323.773438 283.171875 323.722656 282.847656 C 323.691406 282.664062 323.769531 282.324219 323.898438 282.09375 C 324.113281 281.707031 324.109375 281.609375 323.855469 280.953125 C 323.707031 280.558594 323.515625 279.871094 323.4375 279.425781 C 323.347656 278.917969 323.070312 278.269531 322.691406 277.6875 C 322.15625 276.863281 322.085938 276.65625 322.085938 275.832031 C 322.085938 275.320312 322.007812 274.824219 321.914062 274.730469 C 321.75 274.566406 321.597656 273.917969 321.390625 272.488281 C 321.234375 271.414062 320.863281 270.6875 320.023438 269.804688 C 319.570312 269.328125 319.199219 268.886719 319.199219 268.816406 C 319.195312 267.8125 318.808594 265.839844 318.503906 265.292969 C 318.300781 264.925781 318.136719 264.5 318.136719 264.34375 C 318.136719 264.15625 318.027344 264.058594 317.820312 264.058594 C 317.523438 264.058594 317.511719 264 317.609375 263.101562 C 317.691406 262.324219 317.664062 262.105469 317.46875 261.941406 C 317.171875 261.695312 317.125 260.417969 317.414062 260.402344 C 317.519531 260.398438 317.453125 260.332031 317.265625 260.253906 C 317.074219 260.179688 316.921875 260.011719 316.921875 259.886719 C 316.921875 259.746094 316.785156 259.652344 316.578125 259.652344 C 316.378906 259.652344 316.023438 259.421875 315.730469 259.097656 C 315.230469 258.558594 315.222656 258.523438 315.324219 257.578125 C 315.421875 256.671875 315.402344 256.578125 314.992188 256.042969 C 314.058594 254.824219 313.730469 254.230469 313.730469 253.753906 C 313.730469 253.253906 313.625 253.121094 312.308594 251.949219 C 312.003906 251.679688 311.757812 251.332031 311.757812 251.175781 C 311.757812 251.015625 311.625 250.769531 311.464844 250.625 C 310.617188 249.855469 310.265625 249.042969 309.988281 247.195312 C 309.886719 246.507812 309.425781 245.492188 309.089844 245.210938 C 308.84375 245.011719 307.78125 243.644531 307.429688 243.078125 C 306.335938 241.332031 305.941406 240.804688 305.261719 240.160156 C 304.824219 239.742188 304.464844 239.285156 304.464844 239.144531 C 304.464844 239 304.328125 238.707031 304.160156 238.496094 C 303.996094 238.285156 303.859375 238.042969 303.859375 237.957031 C 303.859375 237.695312 302.902344 236.714844 302.644531 236.714844 C 302.507812 236.714844 302.167969 236.476562 301.890625 236.1875 C 301.476562 235.765625 301.355469 235.484375 301.253906 234.761719 C 301.140625 233.925781 301.058594 233.78125 300.121094 232.78125 C 299.5625 232.1875 299.042969 231.703125 298.964844 231.703125 C 298.75 231.703125 297.566406 230.855469 297.023438 230.3125 C 296.613281 229.902344 296.546875 229.738281 296.59375 229.246094 C 296.636719 228.789062 296.589844 228.644531 296.378906 228.578125 C 296.230469 228.527344 296.109375 228.398438 296.109375 228.285156 C 296.109375 228.167969 295.980469 228.035156 295.824219 227.984375 C 295.667969 227.9375 295.089844 227.457031 294.542969 226.925781 C 293.992188 226.390625 293.382812 225.90625 293.191406 225.84375 C 292.453125 225.613281 290.171875 223.566406 290.292969 223.242188 C 290.339844 223.125 290.226562 222.867188 290.046875 222.675781 C 289.863281 222.480469 289.703125 222.175781 289.691406 222 C 289.671875 221.777344 289.5625 221.675781 289.34375 221.675781 C 289.125 221.675781 288.449219 221.070312 287.285156 219.832031 C 284.847656 217.238281 284.710938 217.117188 284.21875 217.117188 C 283.792969 217.117188 282.894531 216.34375 282.894531 215.972656 C 282.894531 215.585938 282.265625 215.144531 281.710938 215.140625 C 281.402344 215.140625 280.976562 215.042969 280.769531 214.921875 C 279.917969 214.4375 279.335938 214.230469 278.808594 214.230469 C 278.359375 214.230469 278.171875 214.128906 277.804688 213.683594 C 276.648438 212.289062 275.503906 211.214844 275.070312 211.121094 C 274.820312 211.066406 274.511719 210.957031 274.386719 210.878906 C 274.261719 210.800781 274.019531 210.675781 273.851562 210.601562 C 273.683594 210.527344 273.308594 210.25 273.023438 209.980469 C 272.640625 209.621094 272.289062 209.460938 271.660156 209.363281 C 271.089844 209.269531 270.746094 209.125 270.589844 208.910156 C 270.464844 208.738281 270.136719 208.347656 269.859375 208.042969 C 269.378906 207.507812 269.3125 207.484375 268.097656 207.402344 C 267.40625 207.359375 266.742188 207.242188 266.625 207.144531 C 266.507812 207.050781 266.105469 206.882812 265.730469 206.777344 C 265.351562 206.667969 264.847656 206.445312 264.609375 206.28125 C 264.320312 206.082031 263.773438 205.941406 263.011719 205.871094 C 261.816406 205.757812 261.324219 205.625 261.324219 205.421875 C 261.324219 205.011719 258.179688 204.308594 257.789062 204.628906 C 257.472656 204.886719 256.878906 204.886719 256.160156 204.625 C 255.765625 204.484375 254.765625 204.34375 253.796875 204.296875 C 252.804688 204.25 251.890625 204.121094 251.554688 203.980469 C 251.246094 203.851562 250.585938 203.703125 250.09375 203.652344 C 249.355469 203.574219 249.078125 203.617188 248.507812 203.890625 C 247.894531 204.1875 247.652344 204.21875 246.402344 204.140625 C 244.679688 204.035156 244.359375 204.035156 242.285156 204.140625 C 240.6875 204.222656 240.628906 204.214844 240.121094 203.828125 C 239.777344 203.566406 239.601562 203.304688 239.601562 203.058594 C 239.601562 202.84375 239.511719 202.6875 239.394531 202.6875 C 239.042969 202.6875 236.679688 201.511719 235.890625 200.945312 C 235.476562 200.648438 235.042969 200.40625 234.925781 200.40625 C 234.804688 200.40625 234.355469 200.089844 233.925781 199.703125 C 233.496094 199.316406 232.972656 198.894531 232.765625 198.765625 C 232.554688 198.636719 232.164062 198.324219 231.894531 198.078125 C 231.464844 197.679688 231.414062 197.550781 231.480469 197.027344 C 231.574219 196.273438 231.855469 195.761719 232.53125 195.097656 C 232.828125 194.808594 233.066406 194.519531 233.066406 194.457031 C 233.066406 194.390625 233.308594 194.089844 233.601562 193.789062 C 233.890625 193.488281 234.132812 193.148438 234.132812 193.03125 C 234.132812 192.917969 234.257812 192.753906 234.417969 192.671875 C 234.632812 192.554688 234.71875 192.296875 234.769531 191.601562 C 234.820312 190.875 234.9375 190.535156 235.328125 189.980469 C 235.746094 189.386719 235.808594 189.195312 235.726562 188.714844 C 235.640625 188.207031 235.683594 188.101562 236.109375 187.746094 C 236.585938 187.34375 236.730469 187.289062 237.851562 187.113281 C 238.1875 187.058594 238.613281 186.917969 238.796875 186.800781 C 239.074219 186.621094 239.433594 186.605469 240.773438 186.722656 C 241.917969 186.824219 242.640625 186.816406 243.171875 186.695312 C 243.976562 186.515625 245.039062 186.503906 246.5 186.667969 C 247.511719 186.78125 249.101562 186.511719 249.507812 186.160156 C 249.832031 185.882812 251.03125 185.980469 251.417969 186.316406 C 251.730469 186.589844 253.03125 186.464844 253.914062 186.074219 C 254.222656 185.9375 254.640625 185.824219 254.839844 185.824219 C 255.042969 185.824219 255.394531 185.675781 255.625 185.496094 C 256.007812 185.195312 256.101562 185.179688 256.671875 185.351562 C 257.996094 185.746094 258.011719 185.746094 258.386719 185.277344 L 258.738281 184.835938 L 260.429688 184.878906 C 261.992188 184.921875 262.179688 184.894531 262.859375 184.539062 C 263.707031 184.097656 264.210938 184.0625 265.121094 184.382812 C 265.992188 184.6875 266.613281 184.667969 267.324219 184.304688 C 267.652344 184.136719 267.992188 184 268.082031 184 C 268.171875 184 268.511719 183.867188 268.832031 183.703125 C 269.367188 183.429688 269.558594 183.417969 271.105469 183.550781 C 272.03125 183.628906 273.164062 183.738281 273.617188 183.789062 C 274.222656 183.859375 274.488281 183.828125 274.605469 183.675781 C 275.042969 183.125 275.714844 182.832031 276.710938 182.75 C 277.347656 182.699219 277.847656 182.574219 278.015625 182.421875 C 278.164062 182.289062 278.449219 182.175781 278.652344 182.175781 C 278.855469 182.175781 279.292969 182.078125 279.628906 181.960938 C 280.054688 181.808594 280.585938 181.769531 281.402344 181.832031 L 282.570312 181.917969 L 283.378906 181.289062 C 283.820312 180.941406 284.324219 180.550781 284.488281 180.417969 C 284.734375 180.226562 285.019531 180.195312 285.933594 180.269531 C 287.570312 180.40625 287.71875 180.390625 288.050781 180.0625 C 288.214844 179.898438 288.546875 179.660156 288.792969 179.535156 C 289.039062 179.40625 289.277344 179.199219 289.328125 179.070312 C 289.386719 178.914062 289.621094 178.835938 290.035156 178.835938 C 290.375 178.835938 290.898438 178.734375 291.195312 178.609375 C 291.496094 178.484375 292.09375 178.378906 292.519531 178.378906 C 293.046875 178.378906 293.449219 178.28125 293.757812 178.074219 C 294.007812 177.90625 294.476562 177.699219 294.804688 177.609375 C 295.800781 177.335938 298.59375 175.894531 298.824219 175.53125 C 298.941406 175.351562 300.546875 174.582031 300.8125 174.582031 C 300.914062 174.582031 301.171875 174.445312 301.386719 174.277344 C 301.597656 174.113281 301.917969 173.96875 302.09375 173.964844 C 302.394531 173.953125 302.753906 173.75 304.289062 172.722656 C 304.632812 172.492188 305.050781 172.304688 305.214844 172.304688 C 305.378906 172.304688 305.941406 171.878906 306.464844 171.355469 C 308.035156 169.789062 309.097656 169.132812 309.613281 169.40625 C 309.84375 169.53125 310.058594 169.390625 310.863281 168.578125 C 311.394531 168.039062 311.953125 167.597656 312.101562 167.597656 C 312.585938 167.59375 313.75 166.953125 314 166.546875 C 314.375 165.941406 314.980469 165.316406 315.199219 165.316406 C 315.304688 165.316406 316.011719 164.761719 316.765625 164.082031 C 317.753906 163.191406 318.136719 162.746094 318.136719 162.488281 C 318.136719 162.207031 318.210938 162.136719 318.480469 162.167969 C 318.742188 162.195312 318.8125 162.132812 318.785156 161.898438 C 318.761719 161.671875 318.933594 161.507812 319.46875 161.25 C 319.867188 161.0625 320.300781 160.90625 320.4375 160.910156 C 320.832031 160.914062 322.238281 159.140625 322.238281 158.640625 C 322.238281 158.441406 322.738281 157.789062 323.523438 156.957031 C 324.25 156.195312 324.863281 155.402344 324.929688 155.148438 C 324.996094 154.898438 325.464844 154.195312 325.96875 153.585938 C 326.496094 152.957031 326.96875 152.210938 327.070312 151.855469 C 327.171875 151.511719 327.246094 150.421875 327.242188 149.433594 C 327.230469 147.925781 327.183594 147.582031 326.945312 147.277344 C 326.792969 147.082031 326.617188 146.53125 326.558594 146.054688 C 326.472656 145.335938 326.351562 145.078125 325.863281 144.546875 C 325.535156 144.1875 325.277344 143.75 325.277344 143.550781 C 325.277344 143.070312 323.714844 141.503906 322.886719 141.148438 C 322.53125 140.996094 322.238281 140.804688 322.238281 140.726562 C 322.238281 140.480469 321.320312 140.25 320.339844 140.25 C 319.59375 140.25 319.34375 140.1875 319.125 139.949219 C 318.925781 139.726562 318.65625 139.644531 318.152344 139.644531 C 317.710938 139.644531 317.285156 139.53125 317 139.339844 C 315.859375 138.589844 315.339844 138.4375 314.230469 138.53125 C 313.230469 138.617188 312.863281 138.429688 312.789062 137.796875 C 312.753906 137.484375 312.953125 137.15625 313.65625 136.355469 C 315.292969 134.488281 316.316406 133.570312 316.761719 133.566406 C 317.316406 133.558594 318.363281 132.625 318.941406 131.625 C 319.597656 130.492188 320.476562 129.523438 320.960938 129.402344 C 321.132812 129.355469 321.644531 128.921875 322.097656 128.433594 C 323.199219 127.25 324.601562 125.648438 325.003906 125.113281 C 325.320312 124.699219 326.496094 123.351562 327.113281 122.699219 C 327.273438 122.53125 327.40625 122.222656 327.40625 122.015625 C 327.40625 121.652344 328.503906 120.488281 329.652344 119.628906 C 329.925781 119.425781 330.15625 119.082031 330.21875 118.792969 C 330.367188 118.101562 331.074219 116.871094 331.382812 116.773438 C 331.527344 116.726562 331.6875 116.550781 331.738281 116.382812 C 331.792969 116.210938 332.414062 115.496094 333.113281 114.789062 C 333.878906 114.019531 334.390625 113.378906 334.390625 113.191406 C 334.390625 113.023438 334.632812 112.589844 334.921875 112.234375 C 335.214844 111.875 335.457031 111.539062 335.457031 111.480469 C 335.457031 111.421875 335.675781 111.144531 335.949219 110.863281 C 336.21875 110.585938 336.578125 110 336.746094 109.566406 C 336.914062 109.132812 337.273438 108.546875 337.542969 108.265625 C 337.816406 107.988281 338.039062 107.675781 338.039062 107.574219 C 338.039062 107.40625 338.765625 106.453125 339.496094 105.664062 C 339.675781 105.46875 339.863281 105.042969 339.917969 104.714844 C 339.988281 104.257812 340.179688 103.976562 340.730469 103.488281 C 341.617188 102.710938 342.011719 102.132812 341.898438 101.773438 C 341.847656 101.621094 341.917969 101.339844 342.046875 101.140625 C 342.175781 100.945312 342.347656 100.355469 342.433594 99.832031 C 342.535156 99.199219 342.707031 98.75 342.945312 98.488281 C 343.21875 98.1875 343.492188 97.882812 343.765625 97.582031 C 344.023438 97.296875 344.304688 96.820312 344.394531 96.519531 C 344.492188 96.195312 344.90625 95.628906 345.398438 95.140625 C 345.863281 94.683594 346.242188 94.242188 346.242188 94.164062 C 346.242188 94.082031 346.546875 93.410156 346.925781 92.671875 C 347.300781 91.929688 347.609375 91.15625 347.609375 90.945312 C 347.609375 90.734375 347.746094 90.296875 347.910156 89.96875 C 348.078125 89.640625 348.214844 89.238281 348.214844 89.074219 C 348.214844 88.910156 348.316406 88.671875 348.441406 88.546875 C 348.722656 88.269531 348.976562 87.628906 348.976562 87.203125 C 348.976562 87.023438 349.425781 86.417969 350.035156 85.773438 C 351.210938 84.535156 351.414062 84.082031 351.042969 83.515625 C 350.664062 82.9375 350.746094 82.539062 351.40625 81.824219 C 351.867188 81.324219 352.011719 81.039062 352.011719 80.648438 C 352.011719 80.363281 352.121094 80.042969 352.25 79.9375 C 352.605469 79.640625 352.925781 78.765625 352.925781 78.09375 C 352.925781 77.320312 353.273438 76.664062 353.839844 76.371094 C 354.296875 76.136719 354.472656 75.515625 354.140625 75.308594 C 354.058594 75.257812 353.988281 74.929688 353.988281 74.578125 C 353.988281 74.085938 354.132812 73.714844 354.628906 72.953125 C 354.980469 72.410156 355.355469 71.878906 355.464844 71.765625 C 355.730469 71.492188 355.714844 70.304688 355.441406 70.074219 C 355.277344 69.941406 355.257812 69.796875 355.363281 69.515625 C 355.441406 69.308594 355.507812 68.980469 355.507812 68.785156 C 355.507812 68.59375 355.609375 68.351562 355.734375 68.246094 C 355.859375 68.140625 355.964844 67.910156 355.964844 67.734375 C 355.964844 67.554688 356.066406 67.136719 356.1875 66.804688 C 356.308594 66.46875 356.410156 65.933594 356.414062 65.617188 C 356.414062 65.296875 356.589844 64.664062 356.796875 64.207031 C 357.007812 63.75 357.179688 63.257812 357.183594 63.113281 C 357.1875 62.96875 357.289062 62.71875 357.410156 62.558594 C 357.554688 62.367188 357.632812 61.902344 357.632812 61.234375 C 357.632812 60.484375 357.722656 60.039062 357.953125 59.59375 C 358.21875 59.078125 358.253906 58.832031 358.164062 58.070312 C 358.109375 57.566406 358 57.117188 357.921875 57.070312 C 357.691406 56.929688 357.765625 55.691406 358.015625 55.484375 C 358.140625 55.382812 358.242188 55.210938 358.242188 55.105469 C 358.242188 55 358.332031 54.839844 358.445312 54.746094 C 358.675781 54.554688 358.667969 54.3125 358.398438 53.359375 C 358.265625 52.886719 358.242188 52.347656 358.328125 51.613281 C 358.394531 51.027344 358.464844 50 358.484375 49.332031 C 358.503906 48.664062 358.566406 47.894531 358.625 47.625 C 358.746094 47.066406 358.511719 46.460938 357.691406 45.207031 C 357.113281 44.320312 357.074219 44.085938 357.421875 43.558594 C 357.855469 42.898438 357.585938 42.078125 356.671875 41.28125 L 355.886719 40.59375 L 355.914062 39.496094 C 355.925781 38.890625 355.949219 38.234375 355.964844 38.039062 C 355.996094 37.652344 355 36.496094 354.636719 36.496094 C 354.523438 36.496094 354.089844 36.324219 353.667969 36.109375 C 353.25 35.894531 352.78125 35.742188 352.632812 35.765625 C 352.484375 35.792969 352.082031 35.5625 351.742188 35.253906 C 350.976562 34.558594 350.382812 34.4375 348.773438 34.640625 C 347.980469 34.742188 347.21875 34.746094 346.660156 34.65625 C 345.863281 34.53125 345.71875 34.554688 345.027344 34.914062 C 344.609375 35.132812 344.179688 35.269531 344.074219 35.214844 C 343.972656 35.160156 343.652344 34.992188 343.371094 34.839844 C 342.761719 34.519531 342.390625 34.628906 341.160156 35.496094 C 340.804688 35.746094 340.675781 35.761719 340.253906 35.609375 C 339.492188 35.335938 339.199219 35.390625 338.457031 35.957031 C 338.082031 36.246094 337.597656 36.527344 337.378906 36.578125 C 337.164062 36.632812 336.90625 36.773438 336.808594 36.890625 C 336.550781 37.203125 335.921875 37.152344 335.628906 36.789062 C 335.476562 36.601562 335.121094 36.445312 334.738281 36.390625 C 334.15625 36.3125 334.035156 36.359375 333.351562 36.933594 C 332.941406 37.277344 332.523438 37.558594 332.425781 37.558594 C 332.328125 37.558594 331.941406 37.730469 331.566406 37.941406 C 330.871094 38.328125 330.078125 38.4375 329.910156 38.167969 C 329.777344 37.949219 328.808594 37.980469 328.664062 38.207031 C 328.386719 38.640625 327.292969 39.230469 326.769531 39.230469 C 326.46875 39.230469 326.140625 39.332031 326.035156 39.457031 C 325.90625 39.617188 325.558594 39.6875 324.902344 39.6875 C 324.046875 39.6875 323.882812 39.742188 323.230469 40.238281 C 322.515625 40.785156 322.496094 40.792969 321.753906 40.621094 C 320.882812 40.417969 319.363281 40.550781 319.253906 40.835938 C 319.210938 40.941406 318.894531 41.21875 318.542969 41.453125 C 318.195312 41.6875 317.496094 42.195312 316.988281 42.585938 C 316.480469 42.976562 315.921875 43.339844 315.75 43.394531 C 315.574219 43.449219 315.347656 43.597656 315.246094 43.71875 C 315.121094 43.871094 314.75 43.941406 314.054688 43.945312 C 313.410156 43.949219 312.941406 44.03125 312.753906 44.171875 C 312.589844 44.296875 312.28125 44.394531 312.066406 44.394531 C 311.851562 44.394531 311.433594 44.59375 311.140625 44.835938 C 310.847656 45.078125 310.371094 45.382812 310.082031 45.515625 C 309.792969 45.644531 309.25 45.925781 308.875 46.136719 C 308.5 46.347656 308.007812 46.523438 307.785156 46.523438 C 307.523438 46.523438 307.066406 46.78125 306.492188 47.257812 C 306.003906 47.664062 305.378906 48.039062 305.097656 48.09375 C 304.820312 48.148438 304.417969 48.328125 304.203125 48.496094 C 303.992188 48.664062 303.753906 48.800781 303.675781 48.800781 C 303.597656 48.800781 303.429688 48.902344 303.304688 49.027344 C 303.179688 49.15625 302.90625 49.257812 302.699219 49.257812 C 302.488281 49.257812 302.183594 49.328125 302.015625 49.417969 C 301.644531 49.617188 300.820312 50.46875 300.820312 50.652344 C 300.820312 50.726562 300.59375 51.011719 300.316406 51.289062 C 299.972656 51.632812 299.621094 51.816406 299.207031 51.875 C 298.792969 51.929688 298.40625 52.128906 298.007812 52.496094 C 297.625 52.847656 297.195312 53.074219 296.800781 53.140625 C 296.328125 53.21875 296.011719 53.425781 295.425781 54.039062 C 294.695312 54.800781 294.222656 55.117188 293.914062 55.042969 C 293.515625 54.949219 292.777344 55.21875 292.691406 55.492188 C 292.640625 55.65625 292.503906 55.789062 292.390625 55.789062 C 292.273438 55.789062 292.140625 55.917969 292.089844 56.078125 C 292.039062 56.234375 291.777344 56.453125 291.511719 56.558594 C 291.242188 56.667969 290.796875 56.949219 290.523438 57.183594 C 290.25 57.417969 289.96875 57.613281 289.898438 57.613281 C 289.761719 57.613281 289.347656 57.953125 288.433594 58.816406 C 287.886719 59.339844 287.71875 59.40625 286.753906 59.503906 C 285.722656 59.609375 285.652344 59.640625 284.84375 60.417969 C 284.230469 61.007812 283.847656 61.25 283.410156 61.324219 C 282.945312 61.402344 282.605469 61.636719 281.847656 62.40625 C 281.316406 62.945312 280.820312 63.386719 280.746094 63.386719 C 280.671875 63.386719 280.203125 63.761719 279.703125 64.21875 C 279.203125 64.679688 278.675781 65.054688 278.527344 65.054688 C 278.382812 65.058594 277.988281 65.226562 277.652344 65.429688 C 277.320312 65.636719 276.871094 65.808594 276.65625 65.8125 C 276.359375 65.8125 276.09375 66.042969 275.53125 66.789062 C 275.128906 67.320312 274.542969 67.902344 274.234375 68.078125 C 273.921875 68.253906 273.585938 68.492188 273.484375 68.613281 C 273.386719 68.734375 273.09375 68.878906 272.832031 68.9375 C 272.320312 69.050781 270.285156 70.988281 270.285156 71.363281 C 270.285156 71.78125 269.367188 72.636719 268.804688 72.742188 C 268.089844 72.878906 267.027344 73.621094 265.949219 74.738281 C 265.765625 74.929688 265.539062 75.082031 265.4375 75.082031 C 265.265625 75.082031 264.585938 75.515625 263.980469 76.007812 C 263.816406 76.148438 263.214844 76.34375 262.652344 76.445312 C 262.089844 76.550781 261.628906 76.6875 261.628906 76.753906 C 261.628906 76.976562 259.675781 78.878906 259.445312 78.878906 C 259.207031 78.878906 258.679688 79.539062 258.285156 80.324219 C 258.160156 80.574219 257.789062 80.917969 257.460938 81.085938 C 257.132812 81.257812 256.835938 81.476562 256.800781 81.582031 C 256.769531 81.683594 256.613281 81.765625 256.460938 81.765625 C 256.183594 81.765625 255.550781 82.492188 255.550781 82.8125 C 255.550781 82.902344 255.363281 83.09375 255.132812 83.238281 C 254.902344 83.386719 254.671875 83.570312 254.613281 83.648438 C 254.558594 83.726562 253.773438 84.550781 252.867188 85.484375 C 251.960938 86.414062 250.992188 87.425781 250.714844 87.730469 C 250.433594 88.035156 249.957031 88.367188 249.648438 88.46875 C 248.363281 88.890625 246.4375 90.175781 246.4375 90.613281 C 246.4375 90.828125 245.828125 91.730469 244.878906 92.921875 C 244.480469 93.421875 244.15625 93.941406 244.15625 94.082031 C 244.15625 94.40625 242.847656 95.757812 242.296875 96.003906 C 242.066406 96.105469 241.878906 96.253906 241.878906 96.332031 C 241.878906 96.414062 241.65625 96.523438 241.386719 96.582031 C 240.617188 96.742188 239.601562 97.875 239.601562 98.570312 C 239.601562 98.679688 239.394531 98.992188 239.140625 99.269531 C 238.316406 100.160156 238.273438 100.21875 238.175781 100.53125 C 238.125 100.699219 237.570312 101.375 236.941406 102.03125 C 236.316406 102.6875 235.800781 103.28125 235.800781 103.355469 C 235.800781 103.429688 235.667969 103.621094 235.503906 103.785156 C 235.339844 103.949219 235.066406 104.34375 234.894531 104.660156 C 234.527344 105.328125 233.8125 106.222656 231.964844 108.324219 C 231.113281 109.292969 230.636719 109.960938 230.632812 110.191406 C 230.625 110.753906 230.351562 111.128906 228.804688 112.71875 C 226.871094 114.707031 226.558594 115.140625 226.476562 115.953125 C 226.375 116.96875 226.195312 117.300781 225.183594 118.332031 C 224.597656 118.929688 224.257812 119.402344 224.257812 119.621094 C 224.257812 119.855469 223.859375 120.347656 223.019531 121.152344 C 221.949219 122.171875 221.089844 123.386719 221.070312 123.902344 C 221.070312 123.976562 220.828125 124.300781 220.535156 124.625 C 220.191406 125.007812 220.003906 125.363281 220.003906 125.644531 C 220.003906 126.535156 219.667969 127.113281 218.46875 128.269531 C 217.808594 128.910156 217.261719 129.523438 217.25 129.636719 C 217.242188 129.753906 217.246094 130.238281 217.265625 130.722656 C 217.296875 131.566406 217.273438 131.621094 216.6875 132.164062 C 216.355469 132.476562 215.832031 132.929688 215.53125 133.167969 C 215.089844 133.519531 214.988281 133.695312 215.015625 134.078125 C 215.046875 134.578125 214.847656 135.066406 214.492188 135.363281 C 214.328125 135.496094 214.167969 135.453125 213.761719 135.152344 C 213.265625 134.785156 213.238281 134.722656 213.148438 133.523438 C 212.992188 131.5 212.589844 128.742188 212.394531 128.378906 C 212.296875 128.191406 212.21875 127.625 212.226562 127.121094 C 212.234375 126.613281 212.140625 125.90625 212.019531 125.546875 C 211.898438 125.191406 211.800781 124.46875 211.800781 123.941406 C 211.800781 123.046875 211.46875 121.667969 211.171875 121.347656 C 211.101562 121.265625 211.042969 120.980469 211.042969 120.710938 C 211.042969 120.4375 210.972656 120.175781 210.890625 120.125 C 210.804688 120.070312 210.738281 119.570312 210.738281 119.007812 C 210.738281 118.144531 210.65625 117.832031 210.226562 117.003906 C 209.785156 116.148438 209.695312 115.773438 209.53125 114.121094 C 209.367188 112.460938 209.277344 112.109375 208.84375 111.300781 C 208.566406 110.792969 208.296875 110.097656 208.238281 109.753906 C 208.179688 109.410156 208.023438 109.039062 207.890625 108.929688 C 207.757812 108.820312 207.386719 108.398438 207.066406 107.996094 C 206.519531 107.304688 206.484375 107.191406 206.464844 106.171875 C 206.441406 104.628906 206.351562 104.390625 205.457031 103.410156 C 204.824219 102.710938 204.660156 102.425781 204.660156 102.011719 C 204.660156 101.445312 204.554688 101.203125 203.820312 100.070312 C 203.5 99.582031 203.285156 99.023438 203.21875 98.496094 C 203.117188 97.753906 203.007812 97.574219 201.984375 96.464844 C 201.367188 95.792969 200.863281 95.167969 200.859375 95.074219 C 200.859375 94.980469 200.621094 94.5625 200.328125 94.148438 C 200.035156 93.730469 199.59375 93.09375 199.34375 92.734375 C 199.09375 92.375 198.886719 92.046875 198.886719 92.003906 C 198.886719 91.777344 197.710938 90.566406 197.339844 90.414062 C 197.105469 90.316406 196.871094 90.082031 196.824219 89.894531 C 196.777344 89.707031 196.425781 89.335938 196.042969 89.066406 C 195.265625 88.519531 195.390625 88.523438 192.132812 88.957031 C 190.886719 89.121094 190.410156 89.25 190.234375 89.460938 C 189.898438 89.867188 189.277344 90.238281 188.839844 90.292969 C 188.339844 90.359375 186.765625 89.515625 186.089844 88.816406 C 185.566406 88.28125 185.558594 88.25 185.636719 87.277344 L 185.714844 86.285156 L 185.03125 85.65625 C 184.457031 85.128906 184.332031 84.914062 184.273438 84.34375 C 184.222656 83.894531 184.277344 83.523438 184.4375 83.25 C 184.636719 82.894531 184.644531 82.738281 184.476562 82.183594 C 184.371094 81.828125 184.246094 81.332031 184.199219 81.082031 C 184.148438 80.832031 183.847656 80.296875 183.527344 79.890625 C 183.207031 79.484375 182.902344 78.90625 182.847656 78.597656 C 182.789062 78.292969 182.550781 77.75 182.308594 77.390625 C 181.839844 76.6875 181.765625 76.164062 182.0625 75.6875 C 182.21875 75.4375 182.191406 75.28125 181.878906 74.707031 C 181.671875 74.332031 181.417969 73.992188 181.308594 73.949219 C 181.199219 73.910156 181.113281 73.632812 181.113281 73.324219 C 181.113281 72.84375 180.976562 72.632812 180.050781 71.699219 C 179.335938 70.976562 178.988281 70.507812 178.988281 70.265625 C 178.988281 69.941406 178.246094 68.421875 177.457031 67.128906 C 177.296875 66.867188 177.167969 66.476562 177.164062 66.265625 C 177.164062 66.027344 176.941406 65.636719 176.582031 65.25 C 176.046875 64.675781 175.851562 64.226562 175.582031 62.917969 C 175.539062 62.699219 175.292969 62.261719 175.042969 61.945312 C 174.789062 61.628906 174.5 61.085938 174.398438 60.742188 C 174.296875 60.398438 174.027344 59.820312 173.800781 59.457031 C 173.570312 59.09375 173.335938 58.582031 173.28125 58.324219 C 173.222656 58.0625 173.035156 57.644531 172.863281 57.390625 C 172.332031 56.605469 172.082031 56.1875 171.851562 55.714844 C 171.734375 55.460938 171.511719 55.121094 171.367188 54.953125 C 170.367188 53.824219 170.125 53.441406 170.003906 52.785156 C 169.925781 52.34375 169.738281 51.949219 169.523438 51.761719 C 169.332031 51.597656 169.09375 51.269531 168.992188 51.039062 C 168.894531 50.804688 168.710938 50.578125 168.582031 50.527344 C 168.457031 50.480469 168.355469 50.351562 168.355469 50.242188 C 168.355469 50.132812 167.808594 49.546875 167.140625 48.945312 C 165.964844 47.882812 165.925781 47.824219 165.925781 47.167969 C 165.925781 46.570312 165.84375 46.410156 165.242188 45.800781 C 164.734375 45.285156 164.558594 44.988281 164.558594 44.644531 C 164.558594 44.003906 164 43.265625 162.664062 42.140625 C 162.035156 41.613281 161.519531 41.125 161.519531 41.0625 C 161.519531 40.996094 161.3125 40.6875 161.0625 40.371094 C 160.773438 40.007812 160.605469 39.621094 160.605469 39.320312 C 160.605469 38.925781 160.382812 38.609375 159.328125 37.527344 C 158.625 36.804688 157.847656 36.109375 157.601562 35.980469 C 157.355469 35.855469 156.957031 35.5 156.714844 35.195312 C 156.277344 34.640625 155.019531 33.355469 153.503906 31.90625 C 153.066406 31.488281 152.707031 31.042969 152.707031 30.917969 C 152.707031 30.5625 151.800781 29.507812 151.496094 29.507812 C 151.347656 29.507812 150.976562 29.21875 150.675781 28.863281 C 150.351562 28.484375 150.03125 28.105469 149.710938 27.722656 C 149.472656 27.445312 149.148438 27.230469 148.960938 27.230469 C 148.667969 27.230469 147.699219 26.574219 147.570312 26.285156 C 147.519531 26.167969 146.625 25.292969 146.292969 25.027344 C 146.1875 24.941406 145.929688 24.796875 145.71875 24.707031 C 145.222656 24.484375 144.398438 23.78125 142.945312 22.335938 C 142.054688 21.453125 141.605469 21.121094 141.121094 20.996094 C 140.335938 20.789062 139.492188 20.3125 139.222656 19.921875 C 139.109375 19.765625 138.890625 19.632812 138.730469 19.632812 C 138.574219 19.632812 138.410156 19.574219 138.363281 19.503906 C 138.320312 19.429688 138.007812 19.328125 137.671875 19.273438 C 137.269531 19.207031 137.0625 19.097656 137.0625 18.945312 C 137.0625 18.816406 136.941406 18.671875 136.796875 18.621094 C 136.648438 18.570312 136.308594 18.320312 136.035156 18.066406 C 135.628906 17.683594 135.363281 17.582031 134.515625 17.484375 C 133.855469 17.410156 133.175781 17.203125 132.597656 16.90625 C 131.617188 16.402344 130.832031 16.324219 130.226562 16.671875 " fill-opacity="1" fill-rule="evenodd"/></g></svg>