<svg xmlns="http://www.w3.org/2000/svg" xmlns:xlink="http://www.w3.org/1999/xlink" width="500" zoomAndPan="magnify" viewBox="0 0 375 374.999991" height="500" preserveAspectRatio="xMidYMid meet" version="1.0"><defs><clipPath id="bf713ca287"><path d="M 170.066406 259 L 229 259 L 229 352.03125 L 170.066406 352.03125 Z M 170.066406 259 " clip-rule="nonzero"/></clipPath><clipPath id="eb5a7d5c39"><path d="M 246.691406 72.730469 L 312.640625 72.730469 L 312.640625 166.195312 L 246.691406 166.195312 Z M 246.691406 72.730469 " clip-rule="nonzero"/></clipPath></defs><path fill="#78ff00" d="M 150.230469 347.597656 C 148.328125 347.597656 146.4375 346.785156 145.121094 345.214844 C 142.757812 342.390625 143.128906 338.191406 145.953125 335.828125 C 177.882812 309.09375 197.039062 273.003906 198.507812 236.800781 C 199.058594 223.175781 195.816406 212.0625 193.074219 206.746094 C 191.953125 211.011719 190.675781 219.839844 191.289062 237.332031 C 192.320312 266.527344 173.828125 298.054688 134.757812 333.707031 C 132.039062 336.1875 127.820312 335.996094 125.34375 333.277344 C 122.863281 330.558594 123.054688 326.347656 125.773438 323.863281 C 161.78125 291.007812 178.859375 262.855469 177.976562 237.796875 C 176.738281 202.78125 182.289062 194.917969 187.265625 191.980469 C 190.5 190.066406 194.292969 190.132812 197.675781 192.152344 C 207.441406 197.988281 212.535156 219.714844 211.820312 237.339844 C 210.199219 277.285156 189.308594 316.90625 154.503906 346.046875 C 153.257812 347.089844 151.742188 347.597656 150.230469 347.597656 " fill-opacity="1" fill-rule="nonzero"/><path fill="#78ff00" d="M 113.613281 317.535156 C 112.011719 317.535156 110.402344 316.957031 109.121094 315.789062 C 106.40625 313.304688 106.21875 309.089844 108.699219 306.375 L 113.925781 300.679688 C 138.933594 273.429688 151.492188 259.753906 154.691406 233.523438 C 155.136719 229.871094 158.464844 227.269531 162.109375 227.71875 C 165.765625 228.164062 168.363281 231.484375 167.917969 235.140625 C 164.199219 265.613281 148.972656 282.203125 123.738281 309.691406 L 118.53125 315.367188 C 117.21875 316.804688 115.421875 317.535156 113.613281 317.535156 " fill-opacity="1" fill-rule="nonzero"/><path fill="#78ff00" d="M 225.757812 248.996094 C 225.609375 248.996094 225.464844 248.992188 225.316406 248.984375 C 221.644531 248.746094 218.863281 245.578125 219.101562 241.902344 C 219.246094 239.679688 219.308594 237.5 219.285156 235.417969 C 218.992188 208.390625 211.964844 196.707031 206.324219 187.316406 C 200.730469 177.996094 193.40625 173.246094 187.144531 174.84375 C 180.265625 176.59375 171.875 187.269531 170.871094 211.578125 C 170.71875 215.257812 167.585938 218.117188 163.941406 217.964844 C 160.261719 217.8125 157.40625 214.707031 157.558594 211.03125 C 158.667969 184.203125 168.496094 165.847656 183.851562 161.929688 C 196.035156 158.828125 209.003906 165.890625 217.699219 180.375 C 223.875 190.65625 232.273438 204.632812 232.609375 235.273438 C 232.636719 237.691406 232.5625 240.207031 232.394531 242.765625 C 232.167969 246.289062 229.238281 248.996094 225.757812 248.996094 " fill-opacity="1" fill-rule="nonzero"/><g clip-path="url(#bf713ca287)"><path fill="#78ff00" d="M 176.835938 352.03125 C 175.078125 352.03125 173.316406 351.339844 172.007812 349.960938 C 169.472656 347.292969 169.582031 343.074219 172.25 340.539062 C 192.527344 321.273438 208.296875 293.425781 215.523438 264.140625 C 216.398438 260.570312 220.015625 258.386719 223.585938 259.269531 C 227.15625 260.152344 229.339844 263.757812 228.457031 267.335938 C 220.640625 299.023438 203.5 329.226562 181.425781 350.199219 C 180.140625 351.421875 178.484375 352.03125 176.835938 352.03125 " fill-opacity="1" fill-rule="nonzero"/></g><path fill="#78ff00" d="M 98.550781 293.964844 C 96.761719 293.964844 94.976562 293.25 93.667969 291.832031 C 91.164062 289.136719 91.320312 284.921875 94.019531 282.417969 C 129.417969 249.578125 133.179688 223.820312 137.535156 194.003906 C 138.601562 186.671875 139.707031 179.097656 141.308594 171.113281 C 144.386719 155.726562 152.683594 143.71875 164.671875 137.300781 C 176.097656 131.191406 190.089844 130.742188 203.054688 136.089844 C 206.457031 137.488281 208.078125 141.382812 206.675781 144.785156 C 205.277344 148.1875 201.382812 149.808594 197.980469 148.40625 C 188.574219 144.53125 178.976562 144.761719 170.960938 149.050781 C 162.546875 153.554688 156.65625 162.316406 154.371094 173.722656 C 152.84375 181.367188 151.761719 188.769531 150.71875 195.925781 C 146.195312 226.898438 141.921875 256.148438 103.078125 292.1875 C 101.796875 293.375 100.171875 293.964844 98.550781 293.964844 " fill-opacity="1" fill-rule="nonzero"/><path fill="#78ff00" d="M 206.859375 345.890625 C 205.128906 345.890625 203.394531 345.21875 202.089844 343.878906 C 199.519531 341.242188 199.574219 337.027344 202.210938 334.457031 C 225.507812 311.753906 238.332031 280.980469 240.324219 242.980469 C 242.234375 206.574219 233.078125 188.410156 221.832031 170.050781 C 218.542969 164.675781 217.683594 163.460938 214.238281 160.234375 C 211.550781 157.722656 211.414062 153.503906 213.925781 150.816406 C 216.441406 148.128906 220.65625 147.996094 223.34375 150.507812 C 227.992188 154.855469 229.558594 157.144531 233.199219 163.09375 C 245.167969 182.632812 255.734375 203.503906 253.628906 243.679688 C 251.460938 285.128906 237.285156 318.882812 211.507812 344 C 210.210938 345.261719 208.535156 345.890625 206.859375 345.890625 " fill-opacity="1" fill-rule="nonzero"/><path fill="#78ff00" d="M 84.546875 261.304688 C 82.402344 261.304688 80.300781 260.277344 79.011719 258.367188 C 76.960938 255.308594 77.769531 251.167969 80.820312 249.117188 C 102.097656 234.804688 108.824219 211.929688 114.855469 185.707031 C 115.679688 182.117188 119.25 179.882812 122.839844 180.707031 C 126.425781 181.53125 128.667969 185.109375 127.839844 188.691406 C 121.410156 216.65625 113.542969 243.164062 88.257812 260.171875 C 87.121094 260.941406 85.828125 261.304688 84.546875 261.304688 " fill-opacity="1" fill-rule="nonzero"/><path fill="#78ff00" d="M 262.152344 194.421875 C 259.148438 194.421875 256.421875 192.378906 255.6875 189.328125 C 250.984375 169.957031 244.5 157.128906 232.550781 143.578125 C 215.890625 124.679688 192.984375 114.917969 172.785156 118.121094 C 158.039062 120.453125 146.640625 129.292969 140.691406 143.019531 C 138.035156 149.148438 135.726562 156.105469 133.425781 164.917969 C 132.5 168.476562 128.855469 170.613281 125.296875 169.683594 C 121.734375 168.753906 119.605469 165.117188 120.53125 161.554688 C 123.007812 152.0625 125.53125 144.488281 128.464844 137.71875 C 136.179688 119.925781 151.574219 107.984375 170.707031 104.957031 C 195.738281 101 222.601562 112.144531 242.546875 134.765625 C 255.886719 149.898438 263.445312 164.796875 268.632812 186.1875 C 269.5 189.761719 267.304688 193.367188 263.726562 194.230469 C 263.203125 194.359375 262.671875 194.421875 262.152344 194.421875 " fill-opacity="1" fill-rule="nonzero"/><path fill="#78ff00" d="M 257.339844 309.050781 C 256.554688 309.050781 255.75 308.910156 254.964844 308.613281 C 251.527344 307.300781 249.804688 303.449219 251.121094 300.011719 C 264.554688 264.832031 265.125 247.03125 261.324219 220.4375 C 260.898438 217.496094 260.476562 214.664062 260.046875 211.933594 C 259.476562 208.304688 261.957031 204.890625 265.589844 204.316406 C 269.222656 203.746094 272.636719 206.226562 273.210938 209.859375 C 273.648438 212.644531 274.078125 215.535156 274.511719 218.546875 C 278.570312 246.921875 277.964844 267.0625 263.566406 304.765625 C 262.550781 307.421875 260.023438 309.050781 257.339844 309.050781 " fill-opacity="1" fill-rule="nonzero"/><path fill="#78ff00" d="M 81.636719 219.785156 C 80.007812 219.785156 78.371094 219.191406 77.089844 217.992188 C 74.402344 215.476562 74.257812 211.261719 76.773438 208.574219 C 88.199219 196.355469 90.277344 183.738281 92.910156 167.773438 C 94.910156 155.636719 97.175781 141.878906 103.882812 125.671875 C 111.515625 107.222656 126.046875 92.632812 144.792969 84.582031 C 148.171875 83.132812 152.089844 84.695312 153.542969 88.078125 C 154.992188 91.457031 153.429688 95.375 150.050781 96.824219 C 134.515625 103.496094 122.492188 115.550781 116.195312 130.765625 C 110.074219 145.554688 107.9375 158.511719 106.054688 169.941406 C 103.296875 186.6875 100.6875 202.503906 86.503906 217.675781 C 85.191406 219.074219 83.417969 219.785156 81.636719 219.785156 " fill-opacity="1" fill-rule="nonzero"/><path fill="#78ff00" d="M 265.144531 135.351562 C 263.035156 135.351562 260.960938 134.351562 259.667969 132.492188 C 248.90625 117.015625 234.367188 105.757812 215.222656 98.078125 C 196.78125 90.6875 182.933594 88.546875 168.933594 90.925781 C 165.300781 91.539062 161.863281 89.097656 161.25 85.472656 C 160.632812 81.84375 163.074219 78.402344 166.703125 77.789062 C 183.082031 75.007812 199.574219 77.453125 220.179688 85.710938 C 241.820312 94.386719 258.316406 107.203125 270.609375 124.886719 C 272.707031 127.90625 271.960938 132.058594 268.941406 134.15625 C 267.78125 134.964844 266.453125 135.351562 265.144531 135.351562 " fill-opacity="1" fill-rule="nonzero"/><path fill="#78ff00" d="M 290.105469 270.84375 C 289.777344 270.84375 289.453125 270.820312 289.128906 270.777344 C 285.488281 270.238281 282.96875 266.859375 283.503906 263.21875 C 290.484375 215.566406 285.035156 197.628906 276.785156 170.476562 L 275.714844 166.945312 C 273.960938 161.132812 271.9375 155.617188 269.703125 150.546875 C 268.21875 147.179688 269.746094 143.246094 273.109375 141.757812 C 276.46875 140.277344 280.40625 141.800781 281.894531 145.167969 C 284.347656 150.734375 286.5625 156.765625 288.46875 163.089844 L 289.535156 166.601562 C 297.992188 194.4375 304.101562 214.546875 296.6875 265.152344 C 296.199219 268.460938 293.355469 270.84375 290.105469 270.84375 " fill-opacity="1" fill-rule="nonzero"/><path fill="#78ff00" d="M 69.792969 183.382812 C 69.203125 183.382812 68.609375 183.304688 68.011719 183.140625 C 64.46875 182.160156 62.390625 178.488281 63.367188 174.945312 C 64.535156 170.730469 65.644531 165.566406 66.824219 160.09375 C 71.308594 139.28125 77.445312 110.773438 95.671875 92.128906 C 98.246094 89.496094 102.460938 89.449219 105.09375 92.019531 C 107.722656 94.59375 107.769531 98.8125 105.199219 101.445312 C 89.664062 117.332031 84.222656 142.597656 79.851562 162.898438 C 78.632812 168.5625 77.476562 173.910156 76.210938 178.496094 C 75.394531 181.445312 72.714844 183.382812 69.792969 183.382812 " fill-opacity="1" fill-rule="nonzero"/><path fill="#78ff00" d="M 116.410156 87.535156 C 114.511719 87.535156 112.625 86.722656 111.304688 85.160156 C 108.9375 82.339844 109.304688 78.140625 112.117188 75.769531 C 133.632812 57.6875 162.375 47.902344 188.996094 49.597656 C 204.851562 50.605469 222.105469 55.199219 237.585938 62.53125 C 240.910156 64.109375 242.328125 68.082031 240.753906 71.40625 C 239.175781 74.730469 235.199219 76.144531 231.878906 74.574219 C 217.894531 67.945312 202.363281 63.800781 188.152344 62.898438 C 164.859375 61.410156 139.644531 70.042969 120.695312 85.972656 C 119.445312 87.019531 117.925781 87.535156 116.410156 87.535156 " fill-opacity="1" fill-rule="nonzero"/><g clip-path="url(#eb5a7d5c39)"><path fill="#78ff00" d="M 305.964844 166.121094 C 302.949219 166.121094 300.214844 164.058594 299.488281 160.996094 C 291.117188 125.703125 275.398438 101.605469 250.023438 85.15625 C 246.933594 83.152344 246.050781 79.027344 248.054688 75.9375 C 250.058594 72.855469 254.183594 71.972656 257.273438 73.976562 C 285.707031 92.40625 303.238281 119.082031 312.453125 157.917969 C 313.304688 161.496094 311.089844 165.089844 307.511719 165.9375 C 306.992188 166.058594 306.476562 166.121094 305.964844 166.121094 " fill-opacity="1" fill-rule="nonzero"/></g><path fill="#78ff00" d="M 108.804688 61.941406 C 106.769531 61.941406 104.765625 61.011719 103.453125 59.257812 C 101.257812 56.300781 101.871094 52.128906 104.824219 49.933594 C 127.816406 32.824219 153.941406 23.527344 180.371094 23.050781 C 184.101562 22.945312 187.089844 25.914062 187.15625 29.589844 C 187.222656 33.269531 184.292969 36.308594 180.613281 36.371094 C 156.984375 36.800781 133.523438 45.183594 112.777344 60.625 C 111.582031 61.511719 110.1875 61.941406 108.804688 61.941406 " fill-opacity="1" fill-rule="nonzero"/><path fill="#78ff00" d="M 282.191406 76.0625 C 280.417969 76.0625 278.648438 75.359375 277.339844 73.96875 C 258.335938 53.78125 229.625 39.867188 200.527344 36.742188 C 196.871094 36.351562 194.222656 33.0625 194.617188 29.40625 C 195.007812 25.75 198.292969 23.101562 201.949219 23.492188 C 234.117188 26.945312 265.925781 42.398438 287.042969 64.839844 C 289.5625 67.515625 289.433594 71.730469 286.757812 74.253906 C 285.46875 75.460938 283.828125 76.0625 282.191406 76.0625 " fill-opacity="1" fill-rule="nonzero"/></svg>