<svg xmlns="http://www.w3.org/2000/svg" xmlns:xlink="http://www.w3.org/1999/xlink" width="500" zoomAndPan="magnify" viewBox="0 0 375 374.999991" height="500" preserveAspectRatio="xMidYMid meet" version="1.0"><defs><clipPath id="5c2410eb74"><path d="M 128.054688 105.207031 L 247 105.207031 L 247 266.457031 L 128.054688 266.457031 Z M 128.054688 105.207031 " clip-rule="nonzero"/></clipPath></defs><g clip-path="url(#5c2410eb74)"><path fill="#ffffff" d="M 240.984375 170.5 L 232.769531 170.5 L 232.769531 150.527344 C 232.804688 125.53125 212.480469 105.207031 187.484375 105.207031 C 162.488281 105.207031 142.164062 125.53125 142.164062 150.527344 L 142.164062 170.5 L 133.984375 170.5 C 130.730469 170.5 128.089844 173.140625 128.089844 176.394531 L 128.089844 260.398438 C 128.089844 263.617188 130.730469 266.257812 133.984375 266.257812 L 241.015625 266.257812 C 244.269531 266.257812 246.910156 263.617188 246.910156 260.363281 L 246.910156 176.394531 C 246.878906 173.140625 244.238281 170.5 240.984375 170.5 Z M 153.953125 150.527344 C 153.953125 132.039062 168.996094 116.996094 187.484375 116.996094 C 205.972656 116.996094 221.015625 132.039062 221.015625 150.527344 L 221.015625 170.5 L 153.953125 170.5 Z M 193.378906 222.613281 L 193.378906 238.109375 C 193.378906 241.359375 190.738281 244 187.484375 244 C 184.230469 244 181.589844 241.359375 181.589844 238.109375 L 181.589844 222.613281 C 177.53125 220.488281 174.761719 216.238281 174.761719 211.371094 C 174.761719 204.351562 180.460938 198.683594 187.453125 198.683594 C 194.472656 198.683594 200.140625 204.382812 200.140625 211.371094 C 200.207031 216.238281 197.4375 220.488281 193.378906 222.613281 Z M 193.378906 222.613281 " fill-opacity="1" fill-rule="nonzero"/></g></svg>