<svg xmlns="http://www.w3.org/2000/svg" xmlns:xlink="http://www.w3.org/1999/xlink" zoomAndPan="magnify" preserveAspectRatio="xMidYMid meet" version="1.0" viewBox="15.3 140.48 350.7 86.47"><defs><g/></defs><g fill="#000000" fill-opacity="1"><g transform="translate(11.624894, 207.745535)"><g><path d="M 22.96875 -30.359375 L 22.96875 -22.5 C 22.96875 -19.269531 22.015625 -16.992188 20.109375 -15.671875 C 18.203125 -14.316406 15.5625 -13.640625 12.1875 -13.640625 L 7.921875 -13.640625 L 7.921875 0 L 3.671875 0 L 3.671875 -37.828125 L 12.9375 -37.828125 C 14.488281 -37.828125 15.972656 -37.726562 17.390625 -37.53125 C 18.816406 -37.332031 19.992188 -36.804688 20.921875 -35.953125 C 21.503906 -35.410156 21.988281 -34.671875 22.375 -33.734375 C 22.769531 -32.804688 22.96875 -31.679688 22.96875 -30.359375 Z M 18.828125 -29.671875 C 18.828125 -31.023438 18.523438 -32.03125 17.921875 -32.6875 C 17.316406 -33.351562 16.535156 -33.78125 15.578125 -33.96875 C 14.628906 -34.164062 13.648438 -34.265625 12.640625 -34.265625 L 7.875 -34.265625 L 7.875 -17.1875 L 12.703125 -17.1875 C 14.453125 -17.1875 15.890625 -17.613281 17.015625 -18.46875 C 18.222656 -19.320312 18.828125 -20.757812 18.828125 -22.78125 Z M 18.828125 -29.671875 "/></g></g></g><g fill="#000000" fill-opacity="1"><g transform="translate(36.563039, 207.745535)"><g><path d="M 23.609375 -23.890625 C 23.609375 -22.265625 23.253906 -20.9375 22.546875 -19.90625 C 21.847656 -18.875 20.945312 -18.101562 19.84375 -17.59375 C 18.738281 -17.09375 17.546875 -16.84375 16.265625 -16.84375 L 25.359375 0 L 20.171875 0 L 12 -16.140625 L 7.921875 -16.140625 L 7.921875 0 L 3.671875 0 L 3.671875 -37.828125 L 13.640625 -37.828125 C 17.210938 -37.828125 19.753906 -37.359375 21.265625 -36.421875 C 22.828125 -35.453125 23.609375 -33.453125 23.609375 -30.421875 Z M 13.46875 -19.875 C 14.632812 -19.875 15.648438 -19.976562 16.515625 -20.1875 C 17.390625 -20.40625 18.078125 -20.851562 18.578125 -21.53125 C 19.085938 -22.21875 19.34375 -23.238281 19.34375 -24.59375 L 19.34375 -29.84375 C 19.34375 -32.675781 17.519531 -34.09375 13.875 -34.09375 L 7.921875 -34.09375 L 7.921875 -19.875 Z M 13.46875 -19.875 "/></g></g></g><g fill="#000000" fill-opacity="1"><g transform="translate(63.307451, 207.745535)"><g><path d="M 26.8125 -27.625 L 26.8125 -9.671875 C 26.8125 -7.492188 26.441406 -5.742188 25.703125 -4.421875 C 24.960938 -3.109375 23.976562 -2.09375 22.75 -1.375 C 21.53125 -0.65625 20.222656 -0.140625 18.828125 0.171875 C 18.203125 0.328125 17.550781 0.429688 16.875 0.484375 C 16.195312 0.546875 15.503906 0.578125 14.796875 0.578125 C 6.867188 0.578125 2.90625 -2.835938 2.90625 -9.671875 L 2.90625 -27.5625 C 2.90625 -34.789062 6.867188 -38.40625 14.796875 -38.40625 C 22.804688 -38.40625 26.8125 -34.8125 26.8125 -27.625 Z M 14.796875 -34.734375 C 13.398438 -34.734375 12.097656 -34.546875 10.890625 -34.171875 C 9.691406 -33.804688 8.734375 -33.117188 8.015625 -32.109375 C 7.296875 -31.097656 6.9375 -29.640625 6.9375 -27.734375 L 6.9375 -9.734375 C 6.9375 -5.378906 9.578125 -3.203125 14.859375 -3.203125 C 20.066406 -3.203125 22.671875 -5.378906 22.671875 -9.734375 L 22.671875 -27.734375 C 22.671875 -32.398438 20.046875 -34.734375 14.796875 -34.734375 Z M 14.796875 -34.734375 "/></g></g></g><g fill="#000000" fill-opacity="1"><g transform="translate(92.965198, 207.745535)"><g><path d="M 5.53125 -2.90625 C 6.664062 -2.90625 7.53125 -3.03125 8.125 -3.28125 C 8.726562 -3.539062 9.144531 -4.046875 9.375 -4.796875 C 9.613281 -5.554688 9.734375 -6.65625 9.734375 -8.09375 L 9.734375 -37.828125 L 13.921875 -37.828125 L 13.921875 -8.328125 C 13.921875 -4.710938 13.320312 -2.328125 12.125 -1.171875 C 10.914062 -0.00390625 8.894531 0.578125 6.0625 0.578125 C 3.769531 0.578125 2.039062 0.363281 0.875 -0.0625 L 0.875 -3.84375 C 2.625 -3.21875 4.175781 -2.90625 5.53125 -2.90625 Z M 5.53125 -2.90625 "/></g></g></g><g fill="#000000" fill-opacity="1"><g transform="translate(110.561742, 207.745535)"><g><path d="M 23.203125 0 L 3.671875 0 L 3.671875 -37.828125 L 22.734375 -37.828125 L 22.734375 -33.859375 L 7.921875 -33.859375 L 7.921875 -21.5 L 21.265625 -21.5 L 21.265625 -17.546875 L 7.921875 -17.546875 L 7.921875 -3.96875 L 23.203125 -3.96875 Z M 23.203125 0 "/></g></g></g><g fill="#000000" fill-opacity="1"><g transform="translate(135.90775, 207.745535)"><g><path d="M 14.796875 -34.5625 C 13.398438 -34.5625 12.097656 -34.382812 10.890625 -34.03125 C 9.691406 -33.6875 8.722656 -33.023438 7.984375 -32.046875 C 7.242188 -31.078125 6.875 -29.625 6.875 -27.6875 L 6.875 -9.96875 C 6.875 -5.613281 9.578125 -3.4375 14.984375 -3.4375 C 17.304688 -3.4375 19.867188 -3.90625 22.671875 -4.84375 L 22.671875 -0.53125 C 21.429688 -0.132812 20.140625 0.144531 18.796875 0.3125 C 17.453125 0.488281 16.101562 0.578125 14.75 0.578125 C 6.78125 0.578125 2.796875 -2.835938 2.796875 -9.671875 L 2.796875 -27.625 C 2.796875 -34.851562 6.78125 -38.46875 14.75 -38.46875 C 16.070312 -38.46875 17.378906 -38.378906 18.671875 -38.203125 C 19.972656 -38.023438 21.25 -37.742188 22.5 -37.359375 L 22.5 -33.15625 C 19.695312 -34.09375 17.128906 -34.5625 14.796875 -34.5625 Z M 14.796875 -34.5625 "/></g></g></g><g fill="#000000" fill-opacity="1"><g transform="translate(160.554569, 207.745535)"><g><path d="M 24.53125 -33.859375 L 14.984375 -33.859375 L 14.984375 0 L 10.671875 0 L 10.671875 -33.859375 L 1.046875 -33.859375 L 1.046875 -37.828125 L 24.53125 -37.828125 Z M 24.53125 -33.859375 "/></g></g></g><path stroke-linecap="butt" transform="matrix(0.554673, 0, 0, 0.554673, 192.302805, 115.115208)" fill="none" stroke-linejoin="miter" d="M 39.194584 84.456534 L 39.194584 110.619207 L 13.081209 110.619207 L 13.081209 58.350202 L 143.732594 58.350202 L 143.732594 84.456534 Z M 13.081209 189.001586 L 13.081209 162.888211 L 117.576964 162.888211 L 117.576964 189.001586 Z M 39.194584 136.732582 L 39.194584 110.619207 L 117.576964 110.619207 L 117.576964 136.732582 Z M 117.576964 162.888211 L 117.576964 136.732582 L 143.732594 136.732582 L 143.732594 162.888211 Z M 274.362851 162.888211 L 274.362851 189.001586 L 195.980472 189.001586 L 195.980472 162.888211 Z M 169.867096 162.888211 L 169.867096 84.456534 L 195.980472 84.456534 L 195.980472 162.888211 Z M 195.980472 84.456534 L 195.980472 58.350202 L 274.362851 58.350202 L 274.362851 84.456534 Z M 222.143144 136.732582 L 222.143144 110.619207 L 248.249476 110.619207 L 248.249476 136.732582 Z M 274.362851 162.888211 L 274.362851 84.456534 L 300.525524 84.456534 L 300.525524 162.888211 Z M 274.362851 162.888211 " stroke="#ffffff" stroke-width="14.000025" stroke-opacity="1" stroke-miterlimit="4"/><g fill="#000000" fill-opacity="1"><g transform="translate(192.302805, 219.948339)"><g><path d="M 21.734375 -57.984375 L 21.734375 -43.484375 L 7.25 -43.484375 L 7.25 -72.46875 L 79.71875 -72.46875 L 79.71875 -57.984375 Z M 7.25 0 L 7.25 -14.5 L 65.21875 -14.5 L 65.21875 0 Z M 21.734375 -28.984375 L 21.734375 -43.484375 L 65.21875 -43.484375 L 65.21875 -28.984375 Z M 65.21875 -14.5 L 65.21875 -28.984375 L 79.71875 -28.984375 L 79.71875 -14.5 Z M 65.21875 -14.5 "/></g></g></g><g fill="#000000" fill-opacity="1"><g transform="translate(279.27062, 219.948339)"><g><path d="M 65.21875 -14.5 L 65.21875 0 L 21.734375 0 L 21.734375 -14.5 Z M 7.25 -14.5 L 7.25 -57.984375 L 21.734375 -57.984375 L 21.734375 -14.5 Z M 21.734375 -57.984375 L 21.734375 -72.46875 L 65.21875 -72.46875 L 65.21875 -57.984375 Z M 36.234375 -28.984375 L 36.234375 -43.484375 L 50.734375 -43.484375 L 50.734375 -28.984375 Z M 65.21875 -14.5 L 65.21875 -57.984375 L 79.71875 -57.984375 L 79.71875 -14.5 Z M 65.21875 -14.5 "/></g></g></g></svg>