<svg xmlns="http://www.w3.org/2000/svg" xmlns:xlink="http://www.w3.org/1999/xlink" zoomAndPan="magnify" preserveAspectRatio="xMidYMid meet" version="1.0" viewBox="19.03 127.98 336.89 134.23"><defs><g/></defs><g fill="#ff3131" fill-opacity="1"><g transform="translate(15.111418, 206.34428)"><g><path d="M 82.28125 -78.359375 L 82.28125 -67.390625 C 82.28125 -65.171875 81.5 -63.273438 79.9375 -61.703125 L 57.40625 -39.1875 L 79.9375 -16.65625 C 81.5 -15.082031 82.28125 -13.1875 82.28125 -10.96875 L 82.28125 0 L 66.609375 0 L 66.609375 -7.84375 L 43.09375 -31.34375 L 19.59375 -7.84375 L 19.59375 0 L 3.921875 0 L 3.921875 -10.96875 C 3.921875 -13.1875 4.703125 -15.082031 6.265625 -16.65625 L 28.796875 -39.1875 L 6.265625 -61.703125 C 4.703125 -63.273438 3.921875 -65.171875 3.921875 -67.390625 L 3.921875 -78.359375 L 19.59375 -78.359375 L 19.59375 -70.53125 L 43.09375 -47.015625 L 66.609375 -70.53125 L 66.609375 -78.359375 Z M 82.28125 -78.359375 "/></g></g></g><g fill="#ff3131" fill-opacity="1"><g transform="translate(101.287737, 206.34428)"><g><path d="M 66.609375 0 L 19.59375 0 C 16.71875 0 14.085938 -0.703125 11.703125 -2.109375 C 9.316406 -3.515625 7.421875 -5.40625 6.015625 -7.78125 C 4.617188 -10.164062 3.921875 -12.796875 3.921875 -15.671875 L 3.921875 -62.6875 C 3.921875 -65.5625 4.617188 -68.191406 6.015625 -70.578125 C 7.421875 -72.960938 9.316406 -74.851562 11.703125 -76.25 C 14.085938 -77.65625 16.71875 -78.359375 19.59375 -78.359375 L 66.609375 -78.359375 C 69.484375 -78.359375 72.109375 -77.65625 74.484375 -76.25 C 76.867188 -74.851562 78.765625 -72.960938 80.171875 -70.578125 C 81.578125 -68.191406 82.28125 -65.5625 82.28125 -62.6875 L 82.28125 -15.671875 C 82.28125 -12.859375 81.578125 -10.257812 80.171875 -7.875 C 78.765625 -5.5 76.882812 -3.59375 74.53125 -2.15625 C 72.1875 -0.71875 69.546875 0 66.609375 0 Z M 19.59375 -62.6875 L 19.59375 -15.671875 L 66.609375 -15.671875 L 66.609375 -62.6875 Z M 19.59375 -62.6875 "/></g></g></g><g fill="#ff3131" fill-opacity="1"><g transform="translate(187.464057, 206.34428)"><g><path d="M 82.28125 -78.359375 L 82.28125 -67.390625 C 82.28125 -65.171875 81.5 -63.273438 79.9375 -61.703125 L 57.40625 -39.1875 L 79.9375 -16.65625 C 81.5 -15.082031 82.28125 -13.1875 82.28125 -10.96875 L 82.28125 0 L 66.609375 0 L 66.609375 -7.84375 L 43.09375 -31.34375 L 19.59375 -7.84375 L 19.59375 0 L 3.921875 0 L 3.921875 -10.96875 C 3.921875 -13.1875 4.703125 -15.082031 6.265625 -16.65625 L 28.796875 -39.1875 L 6.265625 -61.703125 C 4.703125 -63.273438 3.921875 -65.171875 3.921875 -67.390625 L 3.921875 -78.359375 L 19.59375 -78.359375 L 19.59375 -70.53125 L 43.09375 -47.015625 L 66.609375 -70.53125 L 66.609375 -78.359375 Z M 82.28125 -78.359375 "/></g></g></g><g fill="#ff3131" fill-opacity="1"><g transform="translate(273.640376, 206.34428)"><g><path d="M 66.609375 0 L 19.59375 0 C 16.71875 0 14.085938 -0.703125 11.703125 -2.109375 C 9.316406 -3.515625 7.421875 -5.40625 6.015625 -7.78125 C 4.617188 -10.164062 3.921875 -12.796875 3.921875 -15.671875 L 3.921875 -62.6875 C 3.921875 -65.5625 4.617188 -68.191406 6.015625 -70.578125 C 7.421875 -72.960938 9.316406 -74.851562 11.703125 -76.25 C 14.085938 -77.65625 16.71875 -78.359375 19.59375 -78.359375 L 66.609375 -78.359375 C 69.484375 -78.359375 72.109375 -77.65625 74.484375 -76.25 C 76.867188 -74.851562 78.765625 -72.960938 80.171875 -70.578125 C 81.578125 -68.191406 82.28125 -65.5625 82.28125 -62.6875 L 82.28125 -15.671875 C 82.28125 -12.859375 81.578125 -10.257812 80.171875 -7.875 C 78.765625 -5.5 76.882812 -3.59375 74.53125 -2.15625 C 72.1875 -0.71875 69.546875 0 66.609375 0 Z M 19.59375 -62.6875 L 19.59375 -15.671875 L 66.609375 -15.671875 L 66.609375 -62.6875 Z M 19.59375 -62.6875 "/></g></g></g><g fill="#ff3131" fill-opacity="1"><g transform="translate(74.089484, 236.919477)"><g><path d="M 25.546875 -24.34375 L 25.546875 -19.46875 L 6.078125 -19.46875 L 6.078125 -14.609375 L 20.6875 -14.609375 C 21.582031 -14.609375 22.398438 -14.390625 23.140625 -13.953125 C 23.878906 -13.515625 24.460938 -12.925781 24.890625 -12.1875 C 25.328125 -11.445312 25.546875 -10.628906 25.546875 -9.734375 L 25.546875 -4.875 C 25.546875 -3.976562 25.328125 -3.160156 24.890625 -2.421875 C 24.460938 -1.679688 23.878906 -1.09375 23.140625 -0.65625 C 22.398438 -0.21875 21.582031 0 20.6875 0 L 1.21875 0 L 1.21875 -4.875 L 20.6875 -4.875 L 20.6875 -9.734375 L 6.078125 -9.734375 C 5.191406 -9.734375 4.378906 -9.953125 3.640625 -10.390625 C 2.898438 -10.828125 2.3125 -11.414062 1.875 -12.15625 C 1.4375 -12.894531 1.21875 -13.710938 1.21875 -14.609375 L 1.21875 -19.46875 C 1.21875 -20.363281 1.4375 -21.179688 1.875 -21.921875 C 2.3125 -22.660156 2.898438 -23.25 3.640625 -23.6875 C 4.378906 -24.125 5.191406 -24.34375 6.078125 -24.34375 Z M 25.546875 -24.34375 "/></g></g></g><g fill="#ff3131" fill-opacity="1"><g transform="translate(107.426319, 236.919477)"><g><path d="M 25.546875 -24.34375 L 25.546875 -19.46875 L 15.8125 -19.46875 L 15.8125 0 L 10.953125 0 L 10.953125 -19.46875 L 1.21875 -19.46875 L 1.21875 -24.34375 Z M 25.546875 -24.34375 "/></g></g></g><g fill="#ff3131" fill-opacity="1"><g transform="translate(140.763154, 236.919477)"><g><path d="M 20.6875 0 L 6.078125 0 C 5.191406 0 4.378906 -0.21875 3.640625 -0.65625 C 2.898438 -1.09375 2.3125 -1.679688 1.875 -2.421875 C 1.4375 -3.160156 1.21875 -3.976562 1.21875 -4.875 L 1.21875 -24.34375 L 6.078125 -24.34375 L 6.078125 -4.875 L 20.6875 -4.875 L 20.6875 -24.34375 L 25.546875 -24.34375 L 25.546875 -4.875 C 25.546875 -3.976562 25.328125 -3.160156 24.890625 -2.421875 C 24.460938 -1.679688 23.878906 -1.09375 23.140625 -0.65625 C 22.398438 -0.21875 21.582031 0 20.6875 0 Z M 20.6875 0 "/></g></g></g><g fill="#ff3131" fill-opacity="1"><g transform="translate(174.099991, 236.919477)"><g><path d="M 20.6875 0 L 1.21875 0 L 1.21875 -24.34375 L 20.6875 -24.34375 C 21.582031 -24.34375 22.398438 -24.125 23.140625 -23.6875 C 23.878906 -23.25 24.460938 -22.660156 24.890625 -21.921875 C 25.328125 -21.179688 25.546875 -20.363281 25.546875 -19.46875 L 25.546875 -4.875 C 25.546875 -3.976562 25.328125 -3.160156 24.890625 -2.421875 C 24.460938 -1.679688 23.878906 -1.09375 23.140625 -0.65625 C 22.398438 -0.21875 21.582031 0 20.6875 0 Z M 6.078125 -19.46875 L 6.078125 -4.875 L 20.6875 -4.875 L 20.6875 -19.46875 Z M 6.078125 -19.46875 "/></g></g></g><g fill="#ff3131" fill-opacity="1"><g transform="translate(207.436824, 236.919477)"><g><path d="M 25.546875 0 L 1.21875 0 L 1.21875 -4.875 L 10.953125 -4.875 L 10.953125 -19.46875 L 1.21875 -19.46875 L 1.21875 -24.34375 L 25.546875 -24.34375 L 25.546875 -19.46875 L 15.8125 -19.46875 L 15.8125 -4.875 L 25.546875 -4.875 Z M 25.546875 0 "/></g></g></g><g fill="#ff3131" fill-opacity="1"><g transform="translate(240.773657, 236.919477)"><g><path d="M 20.6875 0 L 6.078125 0 C 5.191406 0 4.378906 -0.21875 3.640625 -0.65625 C 2.898438 -1.09375 2.3125 -1.679688 1.875 -2.421875 C 1.4375 -3.160156 1.21875 -3.976562 1.21875 -4.875 L 1.21875 -19.46875 C 1.21875 -20.363281 1.4375 -21.179688 1.875 -21.921875 C 2.3125 -22.660156 2.898438 -23.25 3.640625 -23.6875 C 4.378906 -24.125 5.191406 -24.34375 6.078125 -24.34375 L 20.6875 -24.34375 C 21.582031 -24.34375 22.398438 -24.125 23.140625 -23.6875 C 23.878906 -23.25 24.460938 -22.660156 24.890625 -21.921875 C 25.328125 -21.179688 25.546875 -20.363281 25.546875 -19.46875 L 25.546875 -4.875 C 25.546875 -4 25.328125 -3.191406 24.890625 -2.453125 C 24.460938 -1.710938 23.882812 -1.117188 23.15625 -0.671875 C 22.425781 -0.222656 21.601562 0 20.6875 0 Z M 6.078125 -19.46875 L 6.078125 -4.875 L 20.6875 -4.875 L 20.6875 -19.46875 Z M 6.078125 -19.46875 "/></g></g></g><g fill="#ff3131" fill-opacity="1"><g transform="translate(274.110498, 236.919477)"><g><path d="M 25.546875 -24.34375 L 25.546875 -19.46875 L 6.078125 -19.46875 L 6.078125 -14.609375 L 20.6875 -14.609375 C 21.582031 -14.609375 22.398438 -14.390625 23.140625 -13.953125 C 23.878906 -13.515625 24.460938 -12.925781 24.890625 -12.1875 C 25.328125 -11.445312 25.546875 -10.628906 25.546875 -9.734375 L 25.546875 -4.875 C 25.546875 -3.976562 25.328125 -3.160156 24.890625 -2.421875 C 24.460938 -1.679688 23.878906 -1.09375 23.140625 -0.65625 C 22.398438 -0.21875 21.582031 0 20.6875 0 L 1.21875 0 L 1.21875 -4.875 L 20.6875 -4.875 L 20.6875 -9.734375 L 6.078125 -9.734375 C 5.191406 -9.734375 4.378906 -9.953125 3.640625 -10.390625 C 2.898438 -10.828125 2.3125 -11.414062 1.875 -12.15625 C 1.4375 -12.894531 1.21875 -13.710938 1.21875 -14.609375 L 1.21875 -19.46875 C 1.21875 -20.363281 1.4375 -21.179688 1.875 -21.921875 C 2.3125 -22.660156 2.898438 -23.25 3.640625 -23.6875 C 4.378906 -24.125 5.191406 -24.34375 6.078125 -24.34375 Z M 25.546875 -24.34375 "/></g></g></g><g fill="#000000" fill-opacity="1"><g transform="translate(44.541928, 261.016121)"><g><path d="M 4.84375 -12.65625 C 6.46875 -12.515625 8.1875 -12.4375 10.203125 -12.4375 C 12.0625 -12.4375 14.296875 -12.578125 15.671875 -12.6875 L 15.671875 -14.359375 C 14.21875 -14.21875 12.15625 -14.078125 10.203125 -14.078125 C 8.1875 -14.078125 6.3125 -14.15625 4.84375 -14.34375 Z M 4.015625 -6.3125 C 3.828125 -5.484375 3.59375 -4.546875 3.59375 -3.484375 C 3.59375 -0.9375 6 0.40625 10.109375 0.40625 C 12.984375 0.40625 15.5625 0.109375 17.015625 -0.28125 L 17 -2.046875 C 15.46875 -1.578125 12.859375 -1.265625 10.0625 -1.265625 C 6.828125 -1.265625 5.28125 -2.328125 5.28125 -3.84375 C 5.28125 -4.609375 5.4375 -5.34375 5.6875 -6.15625 Z M 4.015625 -6.3125 "/></g></g></g><g fill="#000000" fill-opacity="1"><g transform="translate(64.997802, 261.016121)"><g><path d="M 17.125 -12.359375 C 16.703125 -13.1875 15.96875 -14.4375 15.4375 -15.171875 L 14.359375 -14.703125 C 14.90625 -13.921875 15.609375 -12.703125 16.015625 -11.859375 Z M 10.375 -8.0625 C 11.625 -8.203125 12.84375 -8.265625 14.109375 -8.265625 C 15.296875 -8.265625 16.5 -8.15625 17.53125 -8.03125 L 17.5625 -9.59375 C 16.484375 -9.71875 15.234375 -9.75 14.078125 -9.75 C 12.765625 -9.75 11.4375 -9.671875 10.375 -9.59375 Z M 11.671875 -13.375 C 10.453125 -13.046875 9.125 -12.796875 7.8125 -12.640625 L 8.125 -14.140625 C 8.203125 -14.515625 8.34375 -15.296875 8.484375 -15.734375 L 6.5 -15.890625 C 6.546875 -15.484375 6.5 -14.8125 6.4375 -14.234375 C 6.375 -13.828125 6.28125 -13.1875 6.140625 -12.453125 C 5.359375 -12.421875 4.640625 -12.375 3.96875 -12.375 C 3.234375 -12.375 2.5 -12.390625 1.53125 -12.515625 L 1.59375 -10.921875 C 2.3125 -10.859375 3.046875 -10.84375 3.953125 -10.84375 C 4.515625 -10.84375 5.140625 -10.859375 5.78125 -10.90625 C 5.625 -10.171875 5.46875 -9.421875 5.28125 -8.75 C 4.515625 -5.890625 3.09375 -1.78125 1.875 0.3125 L 3.6875 0.90625 C 4.75 -1.28125 6.109375 -5.484375 6.859375 -8.359375 C 7.078125 -9.25 7.296875 -10.171875 7.484375 -11.0625 C 8.890625 -11.203125 10.34375 -11.453125 11.671875 -11.734375 Z M 9.34375 -4.8125 C 9.15625 -3.953125 9.046875 -3.171875 9.046875 -2.40625 C 9.046875 -0.40625 10.71875 0.59375 13.90625 0.59375 C 15.375 0.59375 16.734375 0.453125 17.8125 0.3125 L 17.875 -1.34375 C 16.65625 -1.109375 15.234375 -0.96875 13.921875 -0.96875 C 11.046875 -0.96875 10.59375 -1.875 10.59375 -2.828125 C 10.59375 -3.359375 10.703125 -3.984375 10.875 -4.65625 Z M 16.625 -15.546875 C 17.203125 -14.765625 17.875 -13.59375 18.328125 -12.703125 L 19.4375 -13.1875 C 19.046875 -13.96875 18.25 -15.234375 17.6875 -16.015625 Z M 16.625 -15.546875 "/></g></g></g><g fill="#000000" fill-opacity="1"><g transform="translate(85.453676, 261.016121)"><g><path d="M 7.5625 -13.109375 L 7.46875 -13.0625 C 7.609375 -14.484375 7.765625 -15.625 7.875 -16.109375 L 5.9375 -16.171875 C 6.03125 -15.671875 6.015625 -15.140625 6.015625 -14.671875 C 6.015625 -14.4375 5.96875 -13.71875 5.90625 -12.765625 C 4.875 -12.59375 3.6875 -12.46875 3.03125 -12.4375 C 2.53125 -12.390625 2.140625 -12.390625 1.703125 -12.421875 L 1.859375 -10.71875 C 3.125 -10.875 4.890625 -11.125 5.8125 -11.234375 C 5.765625 -10.59375 5.734375 -9.9375 5.6875 -9.28125 C 4.65625 -7.6875 2.328125 -4.546875 1.203125 -3.125 L 2.234375 -1.71875 C 3.21875 -3.0625 4.546875 -5.015625 5.515625 -6.5 C 5.515625 -6.203125 5.5 -5.9375 5.5 -5.734375 C 5.46875 -3.484375 5.46875 -2.46875 5.4375 -0.53125 C 5.4375 -0.203125 5.40625 0.390625 5.375 0.671875 L 7.15625 0.671875 C 7.125 0.3125 7.078125 -0.203125 7.0625 -0.546875 C 6.96875 -2.375 6.96875 -3.59375 6.96875 -5.4375 C 6.96875 -6.15625 7 -6.96875 7.03125 -7.8125 C 8.875 -9.546875 11.03125 -10.71875 13.359375 -10.71875 C 16.03125 -10.71875 17.265625 -8.6875 17.265625 -7.140625 C 17.28125 -3.640625 14.21875 -2.0625 10.796875 -1.546875 L 11.53125 -0.015625 C 15.953125 -0.859375 18.9375 -3.03125 18.921875 -7.09375 C 18.90625 -10.25 16.40625 -12.203125 13.578125 -12.203125 C 11.65625 -12.203125 9.390625 -11.515625 7.15625 -9.6875 C 7.203125 -10.125 7.21875 -10.578125 7.265625 -10.984375 C 7.5625 -11.46875 7.921875 -12.03125 8.15625 -12.390625 Z M 7.5625 -13.109375 "/></g></g></g><g fill="#000000" fill-opacity="1"><g transform="translate(105.90955, 261.016121)"><g><path d="M 5.171875 -16.140625 C 5.15625 -15.640625 5.09375 -15.03125 5.015625 -14.40625 C 4.765625 -12.765625 4.390625 -9.78125 4.390625 -7.859375 C 4.390625 -6.546875 4.5 -5.40625 4.609375 -4.640625 L 6.203125 -4.765625 C 6.046875 -5.765625 6.046875 -6.46875 6.15625 -7.234375 C 6.40625 -9.90625 8.734375 -13.5625 11.25 -13.5625 C 13.390625 -13.5625 14.453125 -11.265625 14.453125 -8.078125 C 14.453125 -2.984375 11.03125 -1.234375 6.625 -0.546875 L 7.59375 0.921875 C 12.625 0 16.15625 -2.46875 16.15625 -8.09375 C 16.15625 -12.359375 14.21875 -15.046875 11.515625 -15.046875 C 8.953125 -15.046875 6.828125 -12.53125 6.03125 -10.453125 C 6.15625 -11.859375 6.546875 -14.578125 6.96875 -16.078125 Z M 5.171875 -16.140625 "/></g></g></g><g fill="#000000" fill-opacity="1"><g transform="translate(126.365424, 261.016121)"><g><path d="M 5.546875 -2.859375 C 4.65625 -2.859375 3.484375 -3.984375 3.484375 -6.546875 C 3.484375 -9.265625 5.84375 -12.59375 9.734375 -13.09375 C 9.515625 -11.234375 9.125 -9.3125 8.609375 -7.625 C 7.5625 -4.21875 6.4375 -2.859375 5.546875 -2.859375 Z M 10.875 0.53125 C 15.703125 -0.109375 18.515625 -2.9375 18.515625 -7.203125 C 18.515625 -11.296875 15.484375 -14.640625 10.734375 -14.640625 C 5.78125 -14.640625 1.859375 -10.796875 1.859375 -6.40625 C 1.859375 -3.0625 3.6875 -0.984375 5.484375 -0.984375 C 7.359375 -0.984375 8.984375 -3.125 10.234375 -7.28125 C 10.78125 -9.1875 11.171875 -11.234375 11.4375 -13.109375 C 14.875 -12.828125 16.8125 -10.3125 16.8125 -7.234375 C 16.8125 -3.75 14.28125 -1.828125 11.671875 -1.25 C 11.1875 -1.140625 10.578125 -1.046875 9.9375 -1 Z M 10.875 0.53125 "/></g></g></g><g fill="#000000" fill-opacity="1"><g transform="translate(146.821297, 261.016121)"><g><path d="M 12.5 -9 C 11.625 -6.765625 10.40625 -5.140625 9.078125 -3.890625 C 8.875 -5.046875 8.734375 -6.28125 8.734375 -7.5625 C 8.734375 -7.828125 8.734375 -8.09375 8.734375 -8.359375 C 9.6875 -8.71875 10.859375 -9 12.171875 -9 Z M 7.296875 -7.390625 C 7.296875 -5.875 7.484375 -4.25 7.765625 -2.796875 C 6.75 -2.09375 5.765625 -1.734375 4.984375 -1.734375 C 4.234375 -1.734375 3.84375 -2.140625 3.84375 -2.96875 C 3.84375 -4.609375 5.34375 -6.609375 7.296875 -7.734375 Z M 14.421875 -10.125 C 14.546875 -10.4375 14.703125 -10.984375 14.828125 -11.25 L 13.1875 -11.65625 C 13.171875 -11.328125 13.0625 -10.796875 12.984375 -10.5 L 12.921875 -10.3125 C 12.6875 -10.328125 12.4375 -10.328125 12.1875 -10.328125 C 11.171875 -10.328125 9.921875 -10.140625 8.796875 -9.796875 C 8.859375 -10.65625 8.921875 -11.515625 9 -12.296875 C 11.46875 -12.421875 14.171875 -12.6875 16.296875 -13.03125 L 16.28125 -14.5625 C 14.1875 -14.09375 11.734375 -13.828125 9.1875 -13.703125 C 9.265625 -14.296875 9.34375 -14.8125 9.421875 -15.234375 C 9.484375 -15.5 9.578125 -15.875 9.671875 -16.140625 L 7.953125 -16.171875 C 7.953125 -15.9375 7.9375 -15.546875 7.890625 -15.21875 C 7.859375 -14.78125 7.796875 -14.25 7.734375 -13.65625 C 7.28125 -13.640625 6.828125 -13.640625 6.375 -13.640625 C 5.515625 -13.640625 3.75 -13.78125 3.046875 -13.890625 L 3.09375 -12.359375 C 3.90625 -12.3125 5.484375 -12.234375 6.359375 -12.234375 C 6.75 -12.234375 7.15625 -12.234375 7.59375 -12.25 C 7.5 -11.3125 7.40625 -10.28125 7.359375 -9.265625 C 4.578125 -8 2.3125 -5.3125 2.3125 -2.71875 C 2.3125 -0.984375 3.359375 -0.15625 4.71875 -0.15625 C 5.8125 -0.15625 7.015625 -0.59375 8.125 -1.265625 C 8.21875 -0.859375 8.34375 -0.484375 8.453125 -0.140625 L 9.9375 -0.59375 C 9.78125 -1.109375 9.609375 -1.65625 9.453125 -2.234375 C 11.171875 -3.6875 12.796875 -5.90625 13.921875 -8.78125 C 15.828125 -8.265625 16.828125 -6.875 16.828125 -5.34375 C 16.828125 -2.71875 14.578125 -0.84375 10.9375 -0.453125 L 11.828125 0.921875 C 16.53125 0.1875 18.453125 -2.359375 18.453125 -5.25 C 18.453125 -7.484375 16.9375 -9.375 14.40625 -10.046875 Z M 14.421875 -10.125 "/></g></g></g><g fill="#000000" fill-opacity="1"><g transform="translate(167.277171, 261.016121)"><g><path d="M 10.203125 -0.671875 C 8.6875 -0.671875 7.53125 -1.25 7.53125 -2.25 C 7.53125 -2.9375 8.21875 -3.5 9.140625 -3.5 C 10.671875 -3.5 11.640625 -2.390625 11.828125 -0.796875 C 11.328125 -0.71875 10.78125 -0.671875 10.203125 -0.671875 Z M 14.375 -15.375 C 14.15625 -15.3125 13.875 -15.28125 13.28125 -15.21875 C 12.203125 -15.109375 7.40625 -14.96875 6.359375 -14.96875 C 5.953125 -14.96875 5.375 -14.96875 4.921875 -15.03125 L 4.96875 -13.328125 C 5.40625 -13.421875 5.875 -13.4375 6.34375 -13.453125 C 7.390625 -13.515625 11.375 -13.703125 12.4375 -13.75 C 11.4375 -12.84375 8.921875 -10.71875 7.796875 -9.78125 C 6.609375 -8.796875 4.015625 -6.625 2.328125 -5.234375 L 3.515625 -4.03125 C 6.09375 -6.640625 7.9375 -8.0625 11.265625 -8.0625 C 13.828125 -8.0625 15.828125 -6.609375 15.828125 -4.625 C 15.828125 -2.96875 14.90625 -1.796875 13.3125 -1.1875 C 13.046875 -3.0625 11.671875 -4.765625 9.140625 -4.765625 C 7.265625 -4.765625 6.015625 -3.5 6.015625 -2.109375 C 6.015625 -0.421875 7.703125 0.796875 10.46875 0.796875 C 14.75 0.796875 17.46875 -1.328125 17.46875 -4.609375 C 17.46875 -7.34375 15.03125 -9.390625 11.65625 -9.390625 C 10.765625 -9.390625 9.84375 -9.265625 8.921875 -8.953125 C 10.46875 -10.265625 13.1875 -12.65625 14.1875 -13.421875 C 14.5 -13.640625 14.953125 -13.953125 15.3125 -14.1875 Z M 14.375 -15.375 "/></g></g></g><g fill="#000000" fill-opacity="1"><g transform="translate(187.733045, 261.016121)"><g><path d="M 17.21875 -13.359375 C 16.796875 -14.171875 16.0625 -15.421875 15.546875 -16.15625 L 14.453125 -15.6875 C 15.015625 -14.90625 15.703125 -13.6875 16.109375 -12.859375 Z M 6.828125 -11.90625 C 7.15625 -12.640625 7.40625 -13.375 7.609375 -13.96875 C 7.75 -14.40625 7.953125 -14.9375 8.140625 -15.40625 L 6.15625 -15.796875 C 6.109375 -15.203125 6 -14.640625 5.84375 -14.15625 C 5.625 -13.375 5.25 -12.3125 4.703125 -11.296875 C 3.984375 -10.046875 2.53125 -7.953125 1.0625 -6.890625 L 2.671875 -5.9375 C 3.859375 -6.90625 5.25 -8.78125 6.078125 -10.3125 L 11.328125 -10.3125 C 11.03125 -5.109375 8.8125 -2.4375 6.8125 -0.921875 C 6.359375 -0.546875 5.75 -0.203125 5.15625 0.015625 L 6.890625 1.203125 C 10.40625 -1.046875 12.703125 -4.453125 13.03125 -10.3125 L 16.484375 -10.3125 C 16.953125 -10.3125 17.78125 -10.28125 18.40625 -10.25 L 18.40625 -12 C 17.8125 -11.921875 17 -11.90625 16.484375 -11.90625 Z M 16.703125 -16.5 C 17.296875 -15.75 17.953125 -14.578125 18.40625 -13.703125 L 19.515625 -14.1875 C 19.125 -14.953125 18.328125 -16.21875 17.796875 -16.96875 Z M 16.703125 -16.5 "/></g></g></g><g fill="#000000" fill-opacity="1"><g transform="translate(208.188919, 261.016121)"><g><path d="M 2.09375 -6.859375 C 2.71875 -6.90625 3.796875 -6.953125 4.921875 -6.953125 L 16.15625 -6.953125 C 17.078125 -6.953125 17.9375 -6.875 18.34375 -6.859375 L 18.34375 -8.859375 C 17.890625 -8.8125 17.15625 -8.75 16.140625 -8.75 L 4.921875 -8.75 C 3.78125 -8.75 2.703125 -8.8125 2.09375 -8.859375 Z M 2.09375 -6.859375 "/></g></g></g><g fill="#000000" fill-opacity="1"><g transform="translate(228.644792, 261.016121)"><g><path d="M 19.078125 -0.078125 C 18.25 -2.1875 16.015625 -6.296875 14.5625 -8.40625 L 13.03125 -7.703125 C 13.78125 -6.734375 14.6875 -5.140625 15.5 -3.515625 C 13.28125 -3.234375 9.34375 -2.78125 6.34375 -2.5 C 7.359375 -5.15625 9.375 -11.4375 9.984375 -13.359375 C 10.25 -14.21875 10.46875 -14.75 10.671875 -15.265625 L 8.65625 -15.671875 C 8.5625 -15.140625 8.484375 -14.640625 8.25 -13.703125 C 7.671875 -11.703125 5.578125 -5.15625 4.4375 -2.328125 C 4.0625 -2.3125 3.71875 -2.296875 3.421875 -2.265625 C 2.828125 -2.25 2.125 -2.234375 1.515625 -2.25 L 1.828125 -0.34375 C 2.40625 -0.421875 3 -0.53125 3.515625 -0.578125 C 6.265625 -0.8125 13.09375 -1.578125 16.265625 -1.984375 C 16.703125 -0.984375 17.125 -0.046875 17.390625 0.703125 Z M 19.078125 -0.078125 "/></g></g></g><g fill="#000000" fill-opacity="1"><g transform="translate(249.100666, 261.016121)"><g><path d="M 15.3125 -14.484375 C 15 -14.375 14.453125 -14.296875 13.78125 -14.296875 L 5.890625 -14.296875 C 5.28125 -14.296875 4.109375 -14.40625 3.828125 -14.4375 L 3.828125 -12.578125 C 4.046875 -12.59375 5.171875 -12.6875 5.890625 -12.6875 L 13.875 -12.6875 C 13.359375 -11 11.859375 -8.5625 10.46875 -7 C 8.359375 -4.640625 5.34375 -2.203125 2.046875 -0.921875 L 3.359375 0.453125 C 6.375 -0.921875 9.140625 -3.171875 11.328125 -5.515625 C 13.421875 -3.65625 15.578125 -1.25 16.953125 0.546875 L 18.390625 -0.703125 C 17.0625 -2.296875 14.5625 -4.953125 12.421875 -6.796875 C 13.875 -8.625 15.15625 -11.03125 15.84375 -12.78125 C 15.96875 -13.0625 16.234375 -13.515625 16.359375 -13.6875 Z M 15.3125 -14.484375 "/></g></g></g><g fill="#000000" fill-opacity="1"><g transform="translate(269.55654, 261.016121)"><g><path d="M 16.5 -13.921875 C 16.15625 -13.78125 15.703125 -13.71875 15.15625 -13.71875 L 9.578125 -13.71875 C 9.734375 -13.984375 9.875 -14.234375 10 -14.484375 C 10.203125 -14.875 10.578125 -15.5625 10.90625 -16.09375 L 9.0625 -16.6875 C 8.921875 -16.15625 8.609375 -15.421875 8.40625 -15.046875 C 7.484375 -13.1875 5.359375 -10.125 1.84375 -7.953125 L 3.21875 -6.890625 C 5.5 -8.453125 7.328125 -10.453125 8.625 -12.265625 L 15.578125 -12.265625 C 15.203125 -10.65625 14.1875 -8.546875 12.953125 -6.8125 C 11.34375 -7.765625 9.640625 -8.75 8.453125 -9.375 L 7.40625 -8.15625 C 8.546875 -7.53125 10.265625 -6.5 11.890625 -5.46875 C 10.015625 -3.421875 7.359375 -1.453125 3.796875 -0.375 L 5.28125 0.90625 C 8.875 -0.421875 11.453125 -2.4375 13.296875 -4.546875 C 14.078125 -4.015625 14.75 -3.515625 15.234375 -3.125 L 16.359375 -4.609375 C 15.84375 -4.96875 15.15625 -5.4375 14.375 -5.9375 C 15.8125 -7.9375 16.859375 -10.203125 17.359375 -12 C 17.484375 -12.328125 17.671875 -12.828125 17.828125 -13.109375 Z M 16.5 -13.921875 "/></g></g></g><g fill="#000000" fill-opacity="1"><g transform="translate(290.012414, 261.016121)"><g><path d="M 14.640625 -15.265625 L 13.515625 -14.765625 C 14.1875 -13.84375 14.875 -12.640625 15.375 -11.5625 L 16.546875 -12.09375 C 16.078125 -13.046875 15.15625 -14.515625 14.640625 -15.265625 Z M 17.328125 -16.234375 L 16.171875 -15.75 C 16.859375 -14.828125 17.5625 -13.65625 18.125 -12.578125 L 19.28125 -13.109375 C 18.78125 -14.046875 17.875 -15.53125 17.328125 -16.234375 Z M 5.90625 -15.5625 L 4.984375 -14.1875 C 6.171875 -13.5 8.40625 -12.03125 9.390625 -11.265625 L 10.34375 -12.6875 C 9.46875 -13.3125 7.125 -14.890625 5.90625 -15.5625 Z M 2.84375 -0.9375 L 3.78125 0.71875 C 5.6875 0.328125 8.515625 -0.609375 10.546875 -1.828125 C 13.828125 -3.75 16.65625 -6.375 18.421875 -9.125 L 17.453125 -10.8125 C 15.796875 -7.9375 13.09375 -5.25 9.6875 -3.3125 C 7.625 -2.140625 5.09375 -1.328125 2.84375 -0.9375 Z M 2.828125 -10.96875 L 1.90625 -9.578125 C 3.15625 -8.9375 5.359375 -7.5 6.375 -6.765625 L 7.328125 -8.203125 C 6.421875 -8.828125 4.03125 -10.3125 2.828125 -10.96875 Z M 2.828125 -10.96875 "/></g></g></g><g fill="#000000" fill-opacity="1"><g transform="translate(310.468288, 261.016121)"><g><path d="M 13.421875 -12.3125 L 13.375 -14.296875 C 13.375 -14.875 13.421875 -15.4375 13.5 -16.015625 L 11.59375 -16.015625 C 11.71875 -15.421875 11.734375 -14.78125 11.78125 -14.296875 C 11.796875 -13.828125 11.828125 -13.125 11.84375 -12.3125 L 4.390625 -12.3125 C 3.765625 -12.3125 3.109375 -12.359375 2.515625 -12.4375 L 2.515625 -10.703125 C 3.15625 -10.734375 3.75 -10.765625 4.421875 -10.765625 L 11.171875 -10.765625 C 9.546875 -8.296875 5.90625 -4.90625 1.78125 -2.890625 L 2.9375 -1.546875 C 6.609375 -3.5 10.1875 -6.8125 11.890625 -9.21875 C 11.921875 -6.484375 11.9375 -3.4375 11.9375 -1.796875 C 11.9375 -1.25 11.78125 -0.984375 11.1875 -0.984375 C 10.4375 -0.984375 9.28125 -1.0625 8.296875 -1.234375 L 8.453125 0.453125 C 9.453125 0.53125 10.671875 0.578125 11.71875 0.578125 C 12.953125 0.578125 13.578125 0 13.578125 -1.0625 C 13.5625 -3.625 13.5 -7.6875 13.4375 -10.765625 L 16.6875 -10.765625 C 17.1875 -10.765625 17.890625 -10.734375 18.359375 -10.71875 L 18.359375 -12.4375 C 17.953125 -12.375 17.15625 -12.3125 16.625 -12.3125 Z M 13.421875 -12.3125 "/></g></g></g></svg>