<svg xmlns="http://www.w3.org/2000/svg" xmlns:xlink="http://www.w3.org/1999/xlink" zoomAndPan="magnify" preserveAspectRatio="xMidYMid meet" version="1.0" viewBox="9.42 119.89 353.79 124.62"><defs><g/></defs><g fill="#ffffff" fill-opacity="1"><g transform="translate(7.308907, 178.291974)"><g><path d="M 16.046875 -53.3125 C 16.046875 -52.550781 15.664062 -52.171875 14.90625 -52.171875 L 9.734375 -52.171875 C 8.972656 -52.171875 8.59375 -51.820312 8.59375 -51.125 C 8.53125 -49.019531 8.46875 -46.445312 8.40625 -43.40625 C 8.351562 -40.363281 8.328125 -36.882812 8.328125 -32.96875 C 8.328125 -32.269531 8.707031 -31.921875 9.46875 -31.921875 L 13.328125 -31.921875 C 14.023438 -31.921875 14.375 -31.539062 14.375 -30.78125 L 14.375 -27.1875 C 14.375 -26.476562 14.023438 -26.125 13.328125 -26.125 L 9.46875 -26.125 C 8.707031 -26.125 8.328125 -25.742188 8.328125 -24.984375 C 8.390625 -18.554688 8.460938 -13.335938 8.546875 -9.328125 C 8.640625 -5.328125 8.710938 -2.597656 8.765625 -1.140625 C 8.765625 -0.378906 8.382812 0 7.625 0 L 3.25 0 C 2.488281 0 2.109375 -0.378906 2.109375 -1.140625 C 2.160156 -2.710938 2.242188 -5.851562 2.359375 -10.5625 C 2.484375 -15.269531 2.546875 -21.425781 2.546875 -29.03125 C 2.546875 -36.625 2.484375 -42.757812 2.359375 -47.4375 C 2.242188 -52.113281 2.160156 -55.242188 2.109375 -56.828125 C 2.109375 -57.585938 2.488281 -57.96875 3.25 -57.96875 L 14.90625 -57.96875 C 15.664062 -57.96875 16.046875 -57.613281 16.046875 -56.90625 Z M 16.046875 -53.3125 "/></g></g></g><g fill="#ffffff" fill-opacity="1"><g transform="translate(25.546741, 178.291974)"><g><path d="M 3.25 -0.09375 C 2.488281 -0.09375 2.109375 -0.472656 2.109375 -1.234375 C 2.160156 -2.804688 2.242188 -5.945312 2.359375 -10.65625 C 2.484375 -15.363281 2.546875 -21.515625 2.546875 -29.109375 C 2.546875 -36.648438 2.484375 -42.773438 2.359375 -47.484375 C 2.242188 -52.191406 2.160156 -55.332031 2.109375 -56.90625 C 2.109375 -57.664062 2.488281 -58.046875 3.25 -58.046875 L 7.625 -58.046875 C 8.382812 -58.046875 8.765625 -57.664062 8.765625 -56.90625 C 8.710938 -55.332031 8.625 -52.191406 8.5 -47.484375 C 8.382812 -42.773438 8.328125 -36.648438 8.328125 -29.109375 C 8.328125 -21.515625 8.382812 -15.363281 8.5 -10.65625 C 8.625 -5.945312 8.710938 -2.804688 8.765625 -1.234375 C 8.765625 -0.472656 8.382812 -0.09375 7.625 -0.09375 Z M 3.25 -0.09375 "/></g></g></g><g fill="#ffffff" fill-opacity="1"><g transform="translate(36.419291, 178.291974)"><g><path d="M 11.046875 -30.78125 C 11.046875 -31.539062 11.425781 -31.921875 12.1875 -31.921875 L 18.9375 -31.921875 C 19.695312 -31.921875 20.078125 -31.539062 20.078125 -30.78125 L 20 -9.46875 C 20 -6.601562 19.335938 -4.234375 18.015625 -2.359375 C 16.703125 -0.492188 14.378906 0.4375 11.046875 0.4375 C 8.828125 0.4375 7.054688 -0.0390625 5.734375 -1 C 4.421875 -1.96875 3.488281 -3.210938 2.9375 -4.734375 C 2.382812 -6.253906 2.109375 -7.832031 2.109375 -9.46875 C 2.109375 -9.46875 2.117188 -10.019531 2.140625 -11.125 C 2.171875 -12.238281 2.21875 -13.628906 2.28125 -15.296875 C 2.34375 -16.960938 2.398438 -18.71875 2.453125 -20.5625 C 2.515625 -22.40625 2.554688 -24.085938 2.578125 -25.609375 C 2.609375 -27.128906 2.625 -28.269531 2.625 -29.03125 C 2.625 -29.726562 2.609375 -30.847656 2.578125 -32.390625 C 2.554688 -33.941406 2.515625 -35.625 2.453125 -37.4375 C 2.398438 -39.25 2.34375 -41.003906 2.28125 -42.703125 C 2.21875 -44.398438 2.171875 -45.785156 2.140625 -46.859375 C 2.117188 -47.941406 2.109375 -48.484375 2.109375 -48.484375 C 2.109375 -51.347656 2.765625 -53.71875 4.078125 -55.59375 C 5.390625 -57.46875 7.710938 -58.40625 11.046875 -58.40625 C 13.328125 -58.40625 15.109375 -57.921875 16.390625 -56.953125 C 17.679688 -55.984375 18.601562 -54.738281 19.15625 -53.21875 C 19.71875 -51.707031 20 -50.128906 20 -48.484375 L 20 -40.421875 C 20 -39.660156 19.644531 -39.28125 18.9375 -39.28125 L 14.46875 -39.28125 C 13.644531 -39.28125 13.265625 -39.691406 13.328125 -40.515625 L 13.671875 -48.484375 C 13.671875 -48.484375 13.671875 -48.539062 13.671875 -48.65625 C 13.671875 -48.78125 13.671875 -48.957031 13.671875 -49.1875 C 13.671875 -49.769531 13.554688 -50.484375 13.328125 -51.328125 C 13.097656 -52.179688 12.367188 -52.609375 11.140625 -52.609375 C 9.910156 -52.609375 9.148438 -52.285156 8.859375 -51.640625 C 8.566406 -51.003906 8.421875 -50.1875 8.421875 -49.1875 C 8.421875 -49.132812 8.421875 -48.363281 8.421875 -46.875 C 8.421875 -45.382812 8.421875 -43.453125 8.421875 -41.078125 C 8.421875 -38.710938 8.421875 -36.125 8.421875 -33.3125 C 8.421875 -30.507812 8.421875 -27.703125 8.421875 -24.890625 C 8.421875 -22.085938 8.421875 -19.53125 8.421875 -17.21875 C 8.421875 -14.914062 8.421875 -13.046875 8.421875 -11.609375 C 8.421875 -10.179688 8.421875 -9.46875 8.421875 -9.46875 C 8.421875 -9.46875 8.421875 -9.410156 8.421875 -9.296875 C 8.421875 -9.179688 8.421875 -9.003906 8.421875 -8.765625 C 8.421875 -8.179688 8.535156 -7.476562 8.765625 -6.65625 C 9.003906 -5.84375 9.734375 -5.4375 10.953125 -5.4375 C 12.179688 -5.4375 12.941406 -5.753906 13.234375 -6.390625 C 13.523438 -7.035156 13.671875 -7.828125 13.671875 -8.765625 C 13.671875 -9.054688 13.671875 -9.242188 13.671875 -9.328125 C 13.671875 -9.421875 13.671875 -9.46875 13.671875 -9.46875 L 13.421875 -24.984375 C 13.421875 -25.742188 13.039062 -26.125 12.28125 -26.125 L 12.1875 -26.125 C 11.425781 -26.125 11.046875 -26.476562 11.046875 -27.1875 Z M 11.046875 -30.78125 "/></g></g></g><g fill="#ffffff" fill-opacity="1"><g transform="translate(58.690495, 178.291974)"><g><path d="M 13.234375 -56.828125 C 13.234375 -57.585938 13.613281 -57.96875 14.375 -57.96875 L 18.859375 -57.96875 C 19.617188 -57.96875 19.96875 -57.585938 19.90625 -56.828125 C 19.84375 -55.242188 19.753906 -52.113281 19.640625 -47.4375 C 19.523438 -42.757812 19.46875 -36.625 19.46875 -29.03125 C 19.46875 -21.425781 19.523438 -15.269531 19.640625 -10.5625 C 19.753906 -5.851562 19.84375 -2.710938 19.90625 -1.140625 C 19.96875 -0.378906 19.617188 0 18.859375 0 L 14.375 0 C 13.613281 0 13.234375 -0.378906 13.234375 -1.140625 C 13.296875 -2.597656 13.382812 -5.328125 13.5 -9.328125 C 13.613281 -13.335938 13.671875 -18.554688 13.671875 -24.984375 C 13.671875 -25.742188 13.296875 -26.125 12.546875 -26.125 L 9.46875 -26.125 C 8.707031 -26.125 8.328125 -25.742188 8.328125 -24.984375 C 8.390625 -18.554688 8.460938 -13.335938 8.546875 -9.328125 C 8.640625 -5.328125 8.710938 -2.597656 8.765625 -1.140625 C 8.765625 -0.378906 8.382812 0 7.625 0 L 3.25 0 C 2.488281 0 2.109375 -0.378906 2.109375 -1.140625 C 2.160156 -2.710938 2.242188 -5.851562 2.359375 -10.5625 C 2.484375 -15.269531 2.546875 -21.425781 2.546875 -29.03125 C 2.546875 -36.625 2.484375 -42.757812 2.359375 -47.4375 C 2.242188 -52.113281 2.160156 -55.242188 2.109375 -56.828125 C 2.109375 -57.585938 2.488281 -57.96875 3.25 -57.96875 L 7.625 -57.96875 C 8.382812 -57.96875 8.765625 -57.585938 8.765625 -56.828125 C 8.710938 -55.421875 8.640625 -52.695312 8.546875 -48.65625 C 8.460938 -44.625 8.390625 -39.394531 8.328125 -32.96875 C 8.328125 -32.269531 8.707031 -31.921875 9.46875 -31.921875 L 12.546875 -31.921875 C 13.296875 -31.921875 13.671875 -32.269531 13.671875 -32.96875 C 13.671875 -39.394531 13.613281 -44.625 13.5 -48.65625 C 13.382812 -52.695312 13.296875 -55.421875 13.234375 -56.828125 Z M 13.234375 -56.828125 "/></g></g></g><g fill="#ffffff" fill-opacity="1"><g transform="translate(80.78633, 178.291974)"><g><path d="M 19.203125 -53.3125 C 19.203125 -52.550781 18.851562 -52.171875 18.15625 -52.171875 L 14.5625 -52.171875 C 13.800781 -52.171875 13.421875 -51.820312 13.421875 -51.125 C 13.359375 -48.664062 13.296875 -45.59375 13.234375 -41.90625 C 13.179688 -38.226562 13.15625 -33.9375 13.15625 -29.03125 C 13.15625 -21.425781 13.210938 -15.269531 13.328125 -10.5625 C 13.441406 -5.851562 13.53125 -2.710938 13.59375 -1.140625 C 13.644531 -0.378906 13.265625 0 12.453125 0 L 8.0625 0 C 7.300781 0 6.921875 -0.378906 6.921875 -1.140625 C 6.984375 -2.710938 7.070312 -5.851562 7.1875 -10.5625 C 7.300781 -15.269531 7.359375 -21.425781 7.359375 -29.03125 C 7.359375 -33.9375 7.328125 -38.226562 7.265625 -41.90625 C 7.210938 -45.59375 7.160156 -48.664062 7.109375 -51.125 C 7.109375 -51.820312 6.726562 -52.171875 5.96875 -52.171875 L 2.453125 -52.171875 C 1.691406 -52.171875 1.3125 -52.550781 1.3125 -53.3125 L 1.3125 -56.90625 C 1.3125 -57.613281 1.691406 -57.96875 2.453125 -57.96875 L 18.15625 -57.96875 C 18.851562 -57.96875 19.203125 -57.613281 19.203125 -56.90625 Z M 19.203125 -53.3125 "/></g></g></g><g fill="#ffffff" fill-opacity="1"><g transform="translate(101.391586, 178.291974)"><g/></g></g><g fill="#ffffff" fill-opacity="1"><g transform="translate(112.351829, 178.291974)"><g><path d="M 16.140625 0 C 15.429688 0 15.050781 -0.347656 15 -1.046875 C 14.9375 -2.046875 14.859375 -3.609375 14.765625 -5.734375 C 14.679688 -7.867188 14.550781 -10.253906 14.375 -12.890625 C 14.320312 -13.648438 13.941406 -14.03125 13.234375 -14.03125 L 9.90625 -14.03125 C 9.207031 -14.03125 8.828125 -13.648438 8.765625 -12.890625 C 8.648438 -10.253906 8.535156 -7.867188 8.421875 -5.734375 C 8.304688 -3.609375 8.21875 -2.046875 8.15625 -1.046875 C 8.15625 -0.347656 7.804688 0 7.109375 0 L 2.453125 0 C 2.097656 0 1.804688 -0.128906 1.578125 -0.390625 C 1.347656 -0.660156 1.257812 -0.941406 1.3125 -1.234375 C 1.488281 -2.578125 1.722656 -4.707031 2.015625 -7.625 C 2.304688 -10.550781 2.625 -13.867188 2.96875 -17.578125 C 3.320312 -21.296875 3.648438 -25.050781 3.953125 -28.84375 C 4.242188 -32.644531 4.503906 -36.472656 4.734375 -40.328125 C 4.960938 -44.191406 5.132812 -47.613281 5.25 -50.59375 C 5.375 -53.570312 5.46875 -55.675781 5.53125 -56.90625 C 5.582031 -57.664062 5.960938 -58.046875 6.671875 -58.046875 L 16.578125 -58.046875 C 17.273438 -58.046875 17.625 -57.664062 17.625 -56.90625 C 17.6875 -55.675781 17.789062 -53.570312 17.9375 -50.59375 C 18.082031 -47.613281 18.253906 -44.191406 18.453125 -40.328125 C 18.660156 -36.472656 18.910156 -32.644531 19.203125 -28.84375 C 19.492188 -25.050781 19.8125 -21.296875 20.15625 -17.578125 C 20.507812 -13.867188 20.847656 -10.550781 21.171875 -7.625 C 21.492188 -4.707031 21.710938 -2.578125 21.828125 -1.234375 C 21.890625 -0.941406 21.800781 -0.660156 21.5625 -0.390625 C 21.332031 -0.128906 21.070312 0 20.78125 0 Z M 10.4375 -20.078125 L 12.796875 -20.078125 C 13.554688 -20.078125 13.9375 -20.457031 13.9375 -21.21875 C 13.820312 -22.675781 13.71875 -24.117188 13.625 -25.546875 C 13.539062 -26.984375 13.472656 -28.40625 13.421875 -29.8125 C 13.242188 -32.914062 13.019531 -36.4375 12.75 -40.375 C 12.488281 -44.320312 12.242188 -47.992188 12.015625 -51.390625 C 12.015625 -51.679688 11.867188 -51.828125 11.578125 -51.828125 C 11.285156 -51.828125 11.140625 -51.679688 11.140625 -51.390625 C 10.898438 -47.992188 10.660156 -44.320312 10.421875 -40.375 C 10.191406 -36.4375 9.960938 -32.914062 9.734375 -29.8125 C 9.671875 -28.40625 9.59375 -26.984375 9.5 -25.546875 C 9.414062 -24.117188 9.347656 -22.675781 9.296875 -21.21875 C 9.234375 -20.457031 9.613281 -20.078125 10.4375 -20.078125 Z M 10.4375 -20.078125 "/></g></g></g><g fill="#ffffff" fill-opacity="1"><g transform="translate(135.675222, 178.291974)"><g><path d="M 11.046875 -30.78125 C 11.046875 -31.539062 11.425781 -31.921875 12.1875 -31.921875 L 18.9375 -31.921875 C 19.695312 -31.921875 20.078125 -31.539062 20.078125 -30.78125 L 20 -9.46875 C 20 -6.601562 19.335938 -4.234375 18.015625 -2.359375 C 16.703125 -0.492188 14.378906 0.4375 11.046875 0.4375 C 8.828125 0.4375 7.054688 -0.0390625 5.734375 -1 C 4.421875 -1.96875 3.488281 -3.210938 2.9375 -4.734375 C 2.382812 -6.253906 2.109375 -7.832031 2.109375 -9.46875 C 2.109375 -9.46875 2.117188 -10.019531 2.140625 -11.125 C 2.171875 -12.238281 2.21875 -13.628906 2.28125 -15.296875 C 2.34375 -16.960938 2.398438 -18.71875 2.453125 -20.5625 C 2.515625 -22.40625 2.554688 -24.085938 2.578125 -25.609375 C 2.609375 -27.128906 2.625 -28.269531 2.625 -29.03125 C 2.625 -29.726562 2.609375 -30.847656 2.578125 -32.390625 C 2.554688 -33.941406 2.515625 -35.625 2.453125 -37.4375 C 2.398438 -39.25 2.34375 -41.003906 2.28125 -42.703125 C 2.21875 -44.398438 2.171875 -45.785156 2.140625 -46.859375 C 2.117188 -47.941406 2.109375 -48.484375 2.109375 -48.484375 C 2.109375 -51.347656 2.765625 -53.71875 4.078125 -55.59375 C 5.390625 -57.46875 7.710938 -58.40625 11.046875 -58.40625 C 13.328125 -58.40625 15.109375 -57.921875 16.390625 -56.953125 C 17.679688 -55.984375 18.601562 -54.738281 19.15625 -53.21875 C 19.71875 -51.707031 20 -50.128906 20 -48.484375 L 20 -40.421875 C 20 -39.660156 19.644531 -39.28125 18.9375 -39.28125 L 14.46875 -39.28125 C 13.644531 -39.28125 13.265625 -39.691406 13.328125 -40.515625 L 13.671875 -48.484375 C 13.671875 -48.484375 13.671875 -48.539062 13.671875 -48.65625 C 13.671875 -48.78125 13.671875 -48.957031 13.671875 -49.1875 C 13.671875 -49.769531 13.554688 -50.484375 13.328125 -51.328125 C 13.097656 -52.179688 12.367188 -52.609375 11.140625 -52.609375 C 9.910156 -52.609375 9.148438 -52.285156 8.859375 -51.640625 C 8.566406 -51.003906 8.421875 -50.1875 8.421875 -49.1875 C 8.421875 -49.132812 8.421875 -48.363281 8.421875 -46.875 C 8.421875 -45.382812 8.421875 -43.453125 8.421875 -41.078125 C 8.421875 -38.710938 8.421875 -36.125 8.421875 -33.3125 C 8.421875 -30.507812 8.421875 -27.703125 8.421875 -24.890625 C 8.421875 -22.085938 8.421875 -19.53125 8.421875 -17.21875 C 8.421875 -14.914062 8.421875 -13.046875 8.421875 -11.609375 C 8.421875 -10.179688 8.421875 -9.46875 8.421875 -9.46875 C 8.421875 -9.46875 8.421875 -9.410156 8.421875 -9.296875 C 8.421875 -9.179688 8.421875 -9.003906 8.421875 -8.765625 C 8.421875 -8.179688 8.535156 -7.476562 8.765625 -6.65625 C 9.003906 -5.84375 9.734375 -5.4375 10.953125 -5.4375 C 12.179688 -5.4375 12.941406 -5.753906 13.234375 -6.390625 C 13.523438 -7.035156 13.671875 -7.828125 13.671875 -8.765625 C 13.671875 -9.054688 13.671875 -9.242188 13.671875 -9.328125 C 13.671875 -9.421875 13.671875 -9.46875 13.671875 -9.46875 L 13.421875 -24.984375 C 13.421875 -25.742188 13.039062 -26.125 12.28125 -26.125 L 12.1875 -26.125 C 11.425781 -26.125 11.046875 -26.476562 11.046875 -27.1875 Z M 11.046875 -30.78125 "/></g></g></g><g fill="#ffffff" fill-opacity="1"><g transform="translate(157.946426, 178.291974)"><g><path d="M 16.140625 0 C 15.429688 0 15.050781 -0.347656 15 -1.046875 C 14.9375 -2.046875 14.859375 -3.609375 14.765625 -5.734375 C 14.679688 -7.867188 14.550781 -10.253906 14.375 -12.890625 C 14.320312 -13.648438 13.941406 -14.03125 13.234375 -14.03125 L 9.90625 -14.03125 C 9.207031 -14.03125 8.828125 -13.648438 8.765625 -12.890625 C 8.648438 -10.253906 8.535156 -7.867188 8.421875 -5.734375 C 8.304688 -3.609375 8.21875 -2.046875 8.15625 -1.046875 C 8.15625 -0.347656 7.804688 0 7.109375 0 L 2.453125 0 C 2.097656 0 1.804688 -0.128906 1.578125 -0.390625 C 1.347656 -0.660156 1.257812 -0.941406 1.3125 -1.234375 C 1.488281 -2.578125 1.722656 -4.707031 2.015625 -7.625 C 2.304688 -10.550781 2.625 -13.867188 2.96875 -17.578125 C 3.320312 -21.296875 3.648438 -25.050781 3.953125 -28.84375 C 4.242188 -32.644531 4.503906 -36.472656 4.734375 -40.328125 C 4.960938 -44.191406 5.132812 -47.613281 5.25 -50.59375 C 5.375 -53.570312 5.46875 -55.675781 5.53125 -56.90625 C 5.582031 -57.664062 5.960938 -58.046875 6.671875 -58.046875 L 16.578125 -58.046875 C 17.273438 -58.046875 17.625 -57.664062 17.625 -56.90625 C 17.6875 -55.675781 17.789062 -53.570312 17.9375 -50.59375 C 18.082031 -47.613281 18.253906 -44.191406 18.453125 -40.328125 C 18.660156 -36.472656 18.910156 -32.644531 19.203125 -28.84375 C 19.492188 -25.050781 19.8125 -21.296875 20.15625 -17.578125 C 20.507812 -13.867188 20.847656 -10.550781 21.171875 -7.625 C 21.492188 -4.707031 21.710938 -2.578125 21.828125 -1.234375 C 21.890625 -0.941406 21.800781 -0.660156 21.5625 -0.390625 C 21.332031 -0.128906 21.070312 0 20.78125 0 Z M 10.4375 -20.078125 L 12.796875 -20.078125 C 13.554688 -20.078125 13.9375 -20.457031 13.9375 -21.21875 C 13.820312 -22.675781 13.71875 -24.117188 13.625 -25.546875 C 13.539062 -26.984375 13.472656 -28.40625 13.421875 -29.8125 C 13.242188 -32.914062 13.019531 -36.4375 12.75 -40.375 C 12.488281 -44.320312 12.242188 -47.992188 12.015625 -51.390625 C 12.015625 -51.679688 11.867188 -51.828125 11.578125 -51.828125 C 11.285156 -51.828125 11.140625 -51.679688 11.140625 -51.390625 C 10.898438 -47.992188 10.660156 -44.320312 10.421875 -40.375 C 10.191406 -36.4375 9.960938 -32.914062 9.734375 -29.8125 C 9.671875 -28.40625 9.59375 -26.984375 9.5 -25.546875 C 9.414062 -24.117188 9.347656 -22.675781 9.296875 -21.21875 C 9.234375 -20.457031 9.613281 -20.078125 10.4375 -20.078125 Z M 10.4375 -20.078125 "/></g></g></g><g fill="#ffffff" fill-opacity="1"><g transform="translate(181.269819, 178.291974)"><g><path d="M 3.25 -0.09375 C 2.488281 -0.09375 2.109375 -0.472656 2.109375 -1.234375 C 2.160156 -2.804688 2.242188 -5.945312 2.359375 -10.65625 C 2.484375 -15.363281 2.546875 -21.515625 2.546875 -29.109375 C 2.546875 -36.648438 2.484375 -42.773438 2.359375 -47.484375 C 2.242188 -52.191406 2.160156 -55.332031 2.109375 -56.90625 C 2.109375 -57.664062 2.488281 -58.046875 3.25 -58.046875 L 7.625 -58.046875 C 8.382812 -58.046875 8.765625 -57.664062 8.765625 -56.90625 C 8.710938 -55.332031 8.625 -52.191406 8.5 -47.484375 C 8.382812 -42.773438 8.328125 -36.648438 8.328125 -29.109375 C 8.328125 -21.515625 8.382812 -15.363281 8.5 -10.65625 C 8.625 -5.945312 8.710938 -2.804688 8.765625 -1.234375 C 8.765625 -0.472656 8.382812 -0.09375 7.625 -0.09375 Z M 3.25 -0.09375 "/></g></g></g><g fill="#ffffff" fill-opacity="1"><g transform="translate(192.142368, 178.291974)"><g><path d="M 20.953125 -57.96875 C 21.710938 -57.96875 22.09375 -57.585938 22.09375 -56.828125 C 22.039062 -55.242188 21.953125 -52.097656 21.828125 -47.390625 C 21.710938 -42.691406 21.65625 -36.539062 21.65625 -28.9375 C 21.65625 -21.394531 21.710938 -15.269531 21.828125 -10.5625 C 21.953125 -5.851562 22.039062 -2.710938 22.09375 -1.140625 C 22.09375 -0.378906 21.710938 0 20.953125 0 L 14.125 0 C 13.414062 0 13.035156 -0.347656 12.984375 -1.046875 L 9.03125 -42.359375 C 9.03125 -42.648438 8.882812 -42.796875 8.59375 -42.796875 C 8.300781 -42.796875 8.15625 -42.648438 8.15625 -42.359375 L 8.765625 -1.140625 C 8.765625 -0.378906 8.414062 0 7.71875 0 L 3.25 0 C 2.488281 0 2.109375 -0.378906 2.109375 -1.140625 C 2.160156 -2.710938 2.242188 -5.851562 2.359375 -10.5625 C 2.484375 -15.269531 2.546875 -21.425781 2.546875 -29.03125 C 2.546875 -36.625 2.484375 -42.757812 2.359375 -47.4375 C 2.242188 -52.113281 2.160156 -55.242188 2.109375 -56.828125 C 2.109375 -57.585938 2.488281 -57.96875 3.25 -57.96875 L 10.078125 -57.96875 C 10.722656 -57.96875 11.078125 -57.644531 11.140625 -57 L 15.078125 -15.609375 C 15.140625 -15.316406 15.316406 -15.171875 15.609375 -15.171875 C 15.898438 -15.171875 16.046875 -15.347656 16.046875 -15.703125 L 15.34375 -56.828125 C 15.34375 -57.585938 15.722656 -57.96875 16.484375 -57.96875 Z M 20.953125 -57.96875 "/></g></g></g><g fill="#ffffff" fill-opacity="1"><g transform="translate(216.342583, 178.291974)"><g><path d="M 8.421875 -50.0625 C 8.421875 -49.894531 8.421875 -49.472656 8.421875 -48.796875 C 8.421875 -48.128906 8.421875 -47.488281 8.421875 -46.875 C 8.421875 -46.257812 8.421875 -45.953125 8.421875 -45.953125 C 8.421875 -43.554688 8.8125 -41.332031 9.59375 -39.28125 C 10.382812 -37.238281 11.347656 -35.265625 12.484375 -33.359375 C 13.628906 -31.460938 14.785156 -29.488281 15.953125 -27.4375 C 17.128906 -25.394531 18.097656 -23.203125 18.859375 -20.859375 C 19.617188 -18.523438 20 -15.898438 20 -12.984375 L 20 -8.5 C 20 -6.050781 19.238281 -3.945312 17.71875 -2.1875 C 16.195312 -0.4375 13.972656 0.4375 11.046875 0.4375 C 8.128906 0.4375 5.9375 -0.4375 4.46875 -2.1875 C 3.007812 -3.945312 2.28125 -6.050781 2.28125 -8.5 L 2.109375 -17.453125 C 2.109375 -18.210938 2.488281 -18.59375 3.25 -18.59375 L 7.71875 -18.59375 C 8.476562 -18.59375 8.859375 -18.210938 8.859375 -17.453125 L 8.6875 -8.5 C 8.6875 -8.382812 8.6875 -8.28125 8.6875 -8.1875 C 8.6875 -8.101562 8.6875 -7.972656 8.6875 -7.796875 C 8.6875 -7.210938 8.875 -6.65625 9.25 -6.125 C 9.632812 -5.601562 10.203125 -5.34375 10.953125 -5.34375 C 11.773438 -5.34375 12.429688 -5.601562 12.921875 -6.125 C 13.421875 -6.65625 13.671875 -7.210938 13.671875 -7.796875 C 13.671875 -8.035156 13.671875 -8.488281 13.671875 -9.15625 C 13.671875 -9.832031 13.671875 -10.476562 13.671875 -11.09375 C 13.671875 -11.707031 13.671875 -12.015625 13.671875 -12.015625 C 13.671875 -14.929688 13.273438 -17.570312 12.484375 -19.9375 C 11.703125 -22.3125 10.738281 -24.503906 9.59375 -26.515625 C 8.457031 -28.535156 7.316406 -30.507812 6.171875 -32.4375 C 5.035156 -34.375 4.070312 -36.347656 3.28125 -38.359375 C 2.5 -40.378906 2.109375 -42.585938 2.109375 -44.984375 L 2.109375 -49.375 C 2.109375 -51.882812 2.867188 -54 4.390625 -55.71875 C 5.910156 -57.445312 8.128906 -58.3125 11.046875 -58.3125 C 13.972656 -58.3125 16.164062 -57.445312 17.625 -55.71875 C 19.082031 -54 19.8125 -51.882812 19.8125 -49.375 L 20 -40.421875 C 20 -39.660156 19.617188 -39.28125 18.859375 -39.28125 L 14.375 -39.28125 C 13.613281 -39.28125 13.265625 -39.660156 13.328125 -40.421875 L 13.5 -49.375 C 13.5 -49.375 13.5 -49.429688 13.5 -49.546875 C 13.5 -49.660156 13.5 -49.832031 13.5 -50.0625 C 13.5 -50.65625 13.304688 -51.210938 12.921875 -51.734375 C 12.546875 -52.265625 11.953125 -52.53125 11.140625 -52.53125 C 10.316406 -52.53125 9.65625 -52.265625 9.15625 -51.734375 C 8.664062 -51.210938 8.421875 -50.65625 8.421875 -50.0625 Z M 8.421875 -50.0625 "/></g></g></g><g fill="#ffffff" fill-opacity="1"><g transform="translate(238.526111, 178.291974)"><g><path d="M 19.203125 -53.3125 C 19.203125 -52.550781 18.851562 -52.171875 18.15625 -52.171875 L 14.5625 -52.171875 C 13.800781 -52.171875 13.421875 -51.820312 13.421875 -51.125 C 13.359375 -48.664062 13.296875 -45.59375 13.234375 -41.90625 C 13.179688 -38.226562 13.15625 -33.9375 13.15625 -29.03125 C 13.15625 -21.425781 13.210938 -15.269531 13.328125 -10.5625 C 13.441406 -5.851562 13.53125 -2.710938 13.59375 -1.140625 C 13.644531 -0.378906 13.265625 0 12.453125 0 L 8.0625 0 C 7.300781 0 6.921875 -0.378906 6.921875 -1.140625 C 6.984375 -2.710938 7.070312 -5.851562 7.1875 -10.5625 C 7.300781 -15.269531 7.359375 -21.425781 7.359375 -29.03125 C 7.359375 -33.9375 7.328125 -38.226562 7.265625 -41.90625 C 7.210938 -45.59375 7.160156 -48.664062 7.109375 -51.125 C 7.109375 -51.820312 6.726562 -52.171875 5.96875 -52.171875 L 2.453125 -52.171875 C 1.691406 -52.171875 1.3125 -52.550781 1.3125 -53.3125 L 1.3125 -56.90625 C 1.3125 -57.613281 1.691406 -57.96875 2.453125 -57.96875 L 18.15625 -57.96875 C 18.851562 -57.96875 19.203125 -57.613281 19.203125 -56.90625 Z M 19.203125 -53.3125 "/></g></g></g><g fill="#ffffff" fill-opacity="1"><g transform="translate(7.308907, 244.063592)"><g><path d="M 13.234375 -56.828125 C 13.234375 -57.585938 13.613281 -57.96875 14.375 -57.96875 L 18.859375 -57.96875 C 19.617188 -57.96875 19.96875 -57.585938 19.90625 -56.828125 C 19.84375 -55.242188 19.753906 -52.113281 19.640625 -47.4375 C 19.523438 -42.757812 19.46875 -36.625 19.46875 -29.03125 C 19.46875 -21.425781 19.523438 -15.269531 19.640625 -10.5625 C 19.753906 -5.851562 19.84375 -2.710938 19.90625 -1.140625 C 19.96875 -0.378906 19.617188 0 18.859375 0 L 14.375 0 C 13.613281 0 13.234375 -0.378906 13.234375 -1.140625 C 13.296875 -2.597656 13.382812 -5.328125 13.5 -9.328125 C 13.613281 -13.335938 13.671875 -18.554688 13.671875 -24.984375 C 13.671875 -25.742188 13.296875 -26.125 12.546875 -26.125 L 9.46875 -26.125 C 8.707031 -26.125 8.328125 -25.742188 8.328125 -24.984375 C 8.390625 -18.554688 8.460938 -13.335938 8.546875 -9.328125 C 8.640625 -5.328125 8.710938 -2.597656 8.765625 -1.140625 C 8.765625 -0.378906 8.382812 0 7.625 0 L 3.25 0 C 2.488281 0 2.109375 -0.378906 2.109375 -1.140625 C 2.160156 -2.710938 2.242188 -5.851562 2.359375 -10.5625 C 2.484375 -15.269531 2.546875 -21.425781 2.546875 -29.03125 C 2.546875 -36.625 2.484375 -42.757812 2.359375 -47.4375 C 2.242188 -52.113281 2.160156 -55.242188 2.109375 -56.828125 C 2.109375 -57.585938 2.488281 -57.96875 3.25 -57.96875 L 7.625 -57.96875 C 8.382812 -57.96875 8.765625 -57.585938 8.765625 -56.828125 C 8.710938 -55.421875 8.640625 -52.695312 8.546875 -48.65625 C 8.460938 -44.625 8.390625 -39.394531 8.328125 -32.96875 C 8.328125 -32.269531 8.707031 -31.921875 9.46875 -31.921875 L 12.546875 -31.921875 C 13.296875 -31.921875 13.671875 -32.269531 13.671875 -32.96875 C 13.671875 -39.394531 13.613281 -44.625 13.5 -48.65625 C 13.382812 -52.695312 13.296875 -55.421875 13.234375 -56.828125 Z M 13.234375 -56.828125 "/></g></g></g><g fill="#ffffff" fill-opacity="1"><g transform="translate(29.404742, 244.063592)"><g><path d="M 14.375 -57.96875 L 18.859375 -57.96875 C 19.617188 -57.96875 20 -57.585938 20 -56.828125 L 19.546875 -10.4375 C 19.546875 -8.507812 19.296875 -6.722656 18.796875 -5.078125 C 18.304688 -3.441406 17.445312 -2.113281 16.21875 -1.09375 C 14.988281 -0.0703125 13.265625 0.4375 11.046875 0.4375 C 8.828125 0.4375 7.101562 -0.113281 5.875 -1.21875 C 4.644531 -2.332031 3.78125 -3.722656 3.28125 -5.390625 C 2.789062 -7.054688 2.546875 -8.738281 2.546875 -10.4375 L 2.109375 -56.828125 C 2.109375 -57.585938 2.488281 -57.96875 3.25 -57.96875 L 7.71875 -57.96875 C 8.476562 -57.96875 8.859375 -57.585938 8.859375 -56.828125 C 8.796875 -54.773438 8.707031 -49.945312 8.59375 -42.34375 C 8.476562 -34.75 8.421875 -24.113281 8.421875 -10.4375 C 8.421875 -10.4375 8.421875 -10.375 8.421875 -10.25 C 8.421875 -10.132812 8.421875 -9.960938 8.421875 -9.734375 C 8.421875 -9.328125 8.460938 -8.769531 8.546875 -8.0625 C 8.640625 -7.363281 8.875 -6.734375 9.25 -6.171875 C 9.632812 -5.617188 10.234375 -5.34375 11.046875 -5.34375 C 12.273438 -5.34375 13.035156 -5.828125 13.328125 -6.796875 C 13.617188 -7.765625 13.765625 -8.742188 13.765625 -9.734375 C 13.765625 -9.960938 13.765625 -10.132812 13.765625 -10.25 C 13.765625 -10.375 13.765625 -10.4375 13.765625 -10.4375 C 13.765625 -24.113281 13.691406 -34.75 13.546875 -42.34375 C 13.398438 -49.945312 13.328125 -54.773438 13.328125 -56.828125 C 13.265625 -57.585938 13.613281 -57.96875 14.375 -57.96875 Z M 14.375 -57.96875 "/></g></g></g><g fill="#ffffff" fill-opacity="1"><g transform="translate(51.588271, 244.063592)"><g><path d="M 28.765625 -57.96875 C 29.460938 -57.96875 29.8125 -57.613281 29.8125 -56.90625 C 29.75 -55.332031 29.660156 -52.191406 29.546875 -47.484375 C 29.429688 -42.773438 29.375 -36.625 29.375 -29.03125 C 29.375 -21.425781 29.429688 -15.253906 29.546875 -10.515625 C 29.660156 -5.785156 29.75 -2.660156 29.8125 -1.140625 C 29.8125 -0.378906 29.460938 0 28.765625 0 L 24.203125 0 C 23.441406 0 23.09375 -0.378906 23.15625 -1.140625 C 23.207031 -2.660156 23.289062 -5.785156 23.40625 -10.515625 C 23.53125 -15.253906 23.59375 -21.425781 23.59375 -29.03125 C 23.59375 -33.40625 23.5625 -37.507812 23.5 -41.34375 C 23.4375 -45.175781 23.378906 -48.492188 23.328125 -51.296875 C 23.328125 -51.523438 23.207031 -51.640625 22.96875 -51.640625 C 22.738281 -51.640625 22.625 -51.523438 22.625 -51.296875 C 22.382812 -48.492188 22.117188 -45.175781 21.828125 -41.34375 C 21.535156 -37.507812 21.242188 -33.40625 20.953125 -29.03125 C 20.429688 -21.3125 20.050781 -15.097656 19.8125 -10.390625 C 19.582031 -5.679688 19.46875 -2.566406 19.46875 -1.046875 C 19.40625 -0.347656 19.054688 0 18.421875 0 L 13.5 0 C 12.863281 0 12.515625 -0.347656 12.453125 -1.046875 C 12.390625 -2.566406 12.253906 -5.679688 12.046875 -10.390625 C 11.847656 -15.097656 11.484375 -21.3125 10.953125 -29.03125 C 10.609375 -33.40625 10.300781 -37.507812 10.03125 -41.34375 C 9.769531 -45.175781 9.523438 -48.492188 9.296875 -51.296875 C 9.296875 -51.523438 9.175781 -51.640625 8.9375 -51.640625 C 8.707031 -51.640625 8.59375 -51.523438 8.59375 -51.296875 C 8.53125 -48.492188 8.46875 -45.175781 8.40625 -41.34375 C 8.351562 -37.507812 8.328125 -33.40625 8.328125 -29.03125 C 8.328125 -21.425781 8.382812 -15.253906 8.5 -10.515625 C 8.625 -5.785156 8.710938 -2.660156 8.765625 -1.140625 C 8.765625 -0.378906 8.414062 0 7.71875 0 L 3.15625 0 C 2.457031 0 2.109375 -0.378906 2.109375 -1.140625 C 2.160156 -2.660156 2.242188 -5.785156 2.359375 -10.515625 C 2.484375 -15.253906 2.546875 -21.425781 2.546875 -29.03125 C 2.546875 -36.625 2.484375 -42.773438 2.359375 -47.484375 C 2.242188 -52.191406 2.160156 -55.332031 2.109375 -56.90625 C 2.109375 -57.613281 2.457031 -57.96875 3.15625 -57.96875 L 12.28125 -57.96875 C 12.976562 -57.96875 13.359375 -57.644531 13.421875 -57 L 14.90625 -29.03125 L 15.609375 -16.21875 C 15.609375 -15.988281 15.722656 -15.875 15.953125 -15.875 C 16.191406 -15.875 16.3125 -15.988281 16.3125 -16.21875 L 17.015625 -29.03125 L 18.5 -57 C 18.5625 -57.644531 18.910156 -57.96875 19.546875 -57.96875 Z M 28.765625 -57.96875 "/></g></g></g><g fill="#ffffff" fill-opacity="1"><g transform="translate(83.592181, 244.063592)"><g><path d="M 16.140625 0 C 15.429688 0 15.050781 -0.347656 15 -1.046875 C 14.9375 -2.046875 14.859375 -3.609375 14.765625 -5.734375 C 14.679688 -7.867188 14.550781 -10.253906 14.375 -12.890625 C 14.320312 -13.648438 13.941406 -14.03125 13.234375 -14.03125 L 9.90625 -14.03125 C 9.207031 -14.03125 8.828125 -13.648438 8.765625 -12.890625 C 8.648438 -10.253906 8.535156 -7.867188 8.421875 -5.734375 C 8.304688 -3.609375 8.21875 -2.046875 8.15625 -1.046875 C 8.15625 -0.347656 7.804688 0 7.109375 0 L 2.453125 0 C 2.097656 0 1.804688 -0.128906 1.578125 -0.390625 C 1.347656 -0.660156 1.257812 -0.941406 1.3125 -1.234375 C 1.488281 -2.578125 1.722656 -4.707031 2.015625 -7.625 C 2.304688 -10.550781 2.625 -13.867188 2.96875 -17.578125 C 3.320312 -21.296875 3.648438 -25.050781 3.953125 -28.84375 C 4.242188 -32.644531 4.503906 -36.472656 4.734375 -40.328125 C 4.960938 -44.191406 5.132812 -47.613281 5.25 -50.59375 C 5.375 -53.570312 5.46875 -55.675781 5.53125 -56.90625 C 5.582031 -57.664062 5.960938 -58.046875 6.671875 -58.046875 L 16.578125 -58.046875 C 17.273438 -58.046875 17.625 -57.664062 17.625 -56.90625 C 17.6875 -55.675781 17.789062 -53.570312 17.9375 -50.59375 C 18.082031 -47.613281 18.253906 -44.191406 18.453125 -40.328125 C 18.660156 -36.472656 18.910156 -32.644531 19.203125 -28.84375 C 19.492188 -25.050781 19.8125 -21.296875 20.15625 -17.578125 C 20.507812 -13.867188 20.847656 -10.550781 21.171875 -7.625 C 21.492188 -4.707031 21.710938 -2.578125 21.828125 -1.234375 C 21.890625 -0.941406 21.800781 -0.660156 21.5625 -0.390625 C 21.332031 -0.128906 21.070312 0 20.78125 0 Z M 10.4375 -20.078125 L 12.796875 -20.078125 C 13.554688 -20.078125 13.9375 -20.457031 13.9375 -21.21875 C 13.820312 -22.675781 13.71875 -24.117188 13.625 -25.546875 C 13.539062 -26.984375 13.472656 -28.40625 13.421875 -29.8125 C 13.242188 -32.914062 13.019531 -36.4375 12.75 -40.375 C 12.488281 -44.320312 12.242188 -47.992188 12.015625 -51.390625 C 12.015625 -51.679688 11.867188 -51.828125 11.578125 -51.828125 C 11.285156 -51.828125 11.140625 -51.679688 11.140625 -51.390625 C 10.898438 -47.992188 10.660156 -44.320312 10.421875 -40.375 C 10.191406 -36.4375 9.960938 -32.914062 9.734375 -29.8125 C 9.671875 -28.40625 9.59375 -26.984375 9.5 -25.546875 C 9.414062 -24.117188 9.347656 -22.675781 9.296875 -21.21875 C 9.234375 -20.457031 9.613281 -20.078125 10.4375 -20.078125 Z M 10.4375 -20.078125 "/></g></g></g><g fill="#ffffff" fill-opacity="1"><g transform="translate(106.915574, 244.063592)"><g><path d="M 20.953125 -57.96875 C 21.710938 -57.96875 22.09375 -57.585938 22.09375 -56.828125 C 22.039062 -55.242188 21.953125 -52.097656 21.828125 -47.390625 C 21.710938 -42.691406 21.65625 -36.539062 21.65625 -28.9375 C 21.65625 -21.394531 21.710938 -15.269531 21.828125 -10.5625 C 21.953125 -5.851562 22.039062 -2.710938 22.09375 -1.140625 C 22.09375 -0.378906 21.710938 0 20.953125 0 L 14.125 0 C 13.414062 0 13.035156 -0.347656 12.984375 -1.046875 L 9.03125 -42.359375 C 9.03125 -42.648438 8.882812 -42.796875 8.59375 -42.796875 C 8.300781 -42.796875 8.15625 -42.648438 8.15625 -42.359375 L 8.765625 -1.140625 C 8.765625 -0.378906 8.414062 0 7.71875 0 L 3.25 0 C 2.488281 0 2.109375 -0.378906 2.109375 -1.140625 C 2.160156 -2.710938 2.242188 -5.851562 2.359375 -10.5625 C 2.484375 -15.269531 2.546875 -21.425781 2.546875 -29.03125 C 2.546875 -36.625 2.484375 -42.757812 2.359375 -47.4375 C 2.242188 -52.113281 2.160156 -55.242188 2.109375 -56.828125 C 2.109375 -57.585938 2.488281 -57.96875 3.25 -57.96875 L 10.078125 -57.96875 C 10.722656 -57.96875 11.078125 -57.644531 11.140625 -57 L 15.078125 -15.609375 C 15.140625 -15.316406 15.316406 -15.171875 15.609375 -15.171875 C 15.898438 -15.171875 16.046875 -15.347656 16.046875 -15.703125 L 15.34375 -56.828125 C 15.34375 -57.585938 15.722656 -57.96875 16.484375 -57.96875 Z M 20.953125 -57.96875 "/></g></g></g><g fill="#ffffff" fill-opacity="1"><g transform="translate(131.115789, 244.063592)"><g><path d="M 8.421875 -50.0625 C 8.421875 -49.894531 8.421875 -49.472656 8.421875 -48.796875 C 8.421875 -48.128906 8.421875 -47.488281 8.421875 -46.875 C 8.421875 -46.257812 8.421875 -45.953125 8.421875 -45.953125 C 8.421875 -43.554688 8.8125 -41.332031 9.59375 -39.28125 C 10.382812 -37.238281 11.347656 -35.265625 12.484375 -33.359375 C 13.628906 -31.460938 14.785156 -29.488281 15.953125 -27.4375 C 17.128906 -25.394531 18.097656 -23.203125 18.859375 -20.859375 C 19.617188 -18.523438 20 -15.898438 20 -12.984375 L 20 -8.5 C 20 -6.050781 19.238281 -3.945312 17.71875 -2.1875 C 16.195312 -0.4375 13.972656 0.4375 11.046875 0.4375 C 8.128906 0.4375 5.9375 -0.4375 4.46875 -2.1875 C 3.007812 -3.945312 2.28125 -6.050781 2.28125 -8.5 L 2.109375 -17.453125 C 2.109375 -18.210938 2.488281 -18.59375 3.25 -18.59375 L 7.71875 -18.59375 C 8.476562 -18.59375 8.859375 -18.210938 8.859375 -17.453125 L 8.6875 -8.5 C 8.6875 -8.382812 8.6875 -8.28125 8.6875 -8.1875 C 8.6875 -8.101562 8.6875 -7.972656 8.6875 -7.796875 C 8.6875 -7.210938 8.875 -6.65625 9.25 -6.125 C 9.632812 -5.601562 10.203125 -5.34375 10.953125 -5.34375 C 11.773438 -5.34375 12.429688 -5.601562 12.921875 -6.125 C 13.421875 -6.65625 13.671875 -7.210938 13.671875 -7.796875 C 13.671875 -8.035156 13.671875 -8.488281 13.671875 -9.15625 C 13.671875 -9.832031 13.671875 -10.476562 13.671875 -11.09375 C 13.671875 -11.707031 13.671875 -12.015625 13.671875 -12.015625 C 13.671875 -14.929688 13.273438 -17.570312 12.484375 -19.9375 C 11.703125 -22.3125 10.738281 -24.503906 9.59375 -26.515625 C 8.457031 -28.535156 7.316406 -30.507812 6.171875 -32.4375 C 5.035156 -34.375 4.070312 -36.347656 3.28125 -38.359375 C 2.5 -40.378906 2.109375 -42.585938 2.109375 -44.984375 L 2.109375 -49.375 C 2.109375 -51.882812 2.867188 -54 4.390625 -55.71875 C 5.910156 -57.445312 8.128906 -58.3125 11.046875 -58.3125 C 13.972656 -58.3125 16.164062 -57.445312 17.625 -55.71875 C 19.082031 -54 19.8125 -51.882812 19.8125 -49.375 L 20 -40.421875 C 20 -39.660156 19.617188 -39.28125 18.859375 -39.28125 L 14.375 -39.28125 C 13.613281 -39.28125 13.265625 -39.660156 13.328125 -40.421875 L 13.5 -49.375 C 13.5 -49.375 13.5 -49.429688 13.5 -49.546875 C 13.5 -49.660156 13.5 -49.832031 13.5 -50.0625 C 13.5 -50.65625 13.304688 -51.210938 12.921875 -51.734375 C 12.546875 -52.265625 11.953125 -52.53125 11.140625 -52.53125 C 10.316406 -52.53125 9.65625 -52.265625 9.15625 -51.734375 C 8.664062 -51.210938 8.421875 -50.65625 8.421875 -50.0625 Z M 8.421875 -50.0625 "/></g></g></g><g fill="#ffffff" fill-opacity="1"><g transform="translate(153.299317, 244.063592)"><g/></g></g><g fill="#ffffff" fill-opacity="1"><g transform="translate(164.259561, 244.063592)"><g><path d="M 31.125 -57.78125 C 31.882812 -57.78125 32.238281 -57.398438 32.1875 -56.640625 C 32.0625 -55.066406 31.867188 -51.925781 31.609375 -47.21875 C 31.347656 -42.507812 31.070312 -36.359375 30.78125 -28.765625 C 30.488281 -21.109375 30.328125 -14.910156 30.296875 -10.171875 C 30.265625 -5.429688 30.25 -2.304688 30.25 -0.796875 C 30.25 -0.0859375 29.898438 0.265625 29.203125 0.265625 L 20.34375 0.265625 C 19.695312 0.265625 19.347656 -0.0859375 19.296875 -0.796875 L 17.796875 -28.765625 L 17.09375 -41.5625 C 17.09375 -41.800781 16.972656 -41.921875 16.734375 -41.921875 C 16.503906 -41.921875 16.390625 -41.800781 16.390625 -41.5625 L 15.703125 -28.765625 L 14.203125 -0.796875 C 14.148438 -0.0859375 13.800781 0.265625 13.15625 0.265625 L 4.296875 0.265625 C 3.597656 0.265625 3.25 -0.0859375 3.25 -0.796875 C 3.25 -2.304688 3.234375 -5.429688 3.203125 -10.171875 C 3.171875 -14.910156 3.007812 -21.109375 2.71875 -28.765625 C 2.425781 -36.359375 2.144531 -42.507812 1.875 -47.21875 C 1.613281 -51.925781 1.425781 -55.066406 1.3125 -56.640625 C 1.257812 -57.398438 1.613281 -57.78125 2.375 -57.78125 L 6.921875 -57.78125 C 7.628906 -57.78125 7.984375 -57.398438 7.984375 -56.640625 C 7.984375 -55.117188 8.007812 -52.003906 8.0625 -47.296875 C 8.125 -42.597656 8.269531 -36.421875 8.5 -28.765625 C 8.675781 -24.554688 8.835938 -20.625 8.984375 -16.96875 C 9.128906 -13.3125 9.257812 -10.140625 9.375 -7.453125 C 9.4375 -7.222656 9.566406 -7.109375 9.765625 -7.109375 C 9.972656 -7.109375 10.109375 -7.222656 10.171875 -7.453125 C 10.398438 -10.140625 10.644531 -13.3125 10.90625 -16.96875 C 11.175781 -20.625 11.457031 -24.554688 11.75 -28.765625 C 12.28125 -36.421875 12.644531 -42.613281 12.84375 -47.34375 C 13.050781 -52.082031 13.179688 -55.210938 13.234375 -56.734375 C 13.296875 -57.429688 13.648438 -57.78125 14.296875 -57.78125 L 19.203125 -57.78125 C 19.847656 -57.78125 20.195312 -57.429688 20.25 -56.734375 C 20.3125 -55.210938 20.441406 -52.082031 20.640625 -47.34375 C 20.847656 -42.613281 21.21875 -36.421875 21.75 -28.765625 C 22.039062 -24.554688 22.316406 -20.625 22.578125 -16.96875 C 22.835938 -13.3125 23.085938 -10.140625 23.328125 -7.453125 C 23.328125 -7.222656 23.441406 -7.109375 23.671875 -7.109375 C 23.910156 -7.109375 24.054688 -7.222656 24.109375 -7.453125 C 24.234375 -10.140625 24.367188 -13.3125 24.515625 -16.96875 C 24.660156 -20.625 24.816406 -24.554688 24.984375 -28.765625 C 25.222656 -36.421875 25.367188 -42.597656 25.421875 -47.296875 C 25.484375 -52.003906 25.515625 -55.117188 25.515625 -56.640625 C 25.515625 -57.398438 25.863281 -57.78125 26.5625 -57.78125 Z M 31.125 -57.78125 "/></g></g></g><g fill="#ffffff" fill-opacity="1"><g transform="translate(197.841744, 244.063592)"><g><path d="M 3.25 -0.09375 C 2.488281 -0.09375 2.109375 -0.472656 2.109375 -1.234375 C 2.160156 -2.804688 2.242188 -5.945312 2.359375 -10.65625 C 2.484375 -15.363281 2.546875 -21.515625 2.546875 -29.109375 C 2.546875 -36.648438 2.484375 -42.773438 2.359375 -47.484375 C 2.242188 -52.191406 2.160156 -55.332031 2.109375 -56.90625 C 2.109375 -57.664062 2.488281 -58.046875 3.25 -58.046875 L 7.625 -58.046875 C 8.382812 -58.046875 8.765625 -57.664062 8.765625 -56.90625 C 8.710938 -55.332031 8.625 -52.191406 8.5 -47.484375 C 8.382812 -42.773438 8.328125 -36.648438 8.328125 -29.109375 C 8.328125 -21.515625 8.382812 -15.363281 8.5 -10.65625 C 8.625 -5.945312 8.710938 -2.804688 8.765625 -1.234375 C 8.765625 -0.472656 8.382812 -0.09375 7.625 -0.09375 Z M 3.25 -0.09375 "/></g></g></g><g fill="#ffffff" fill-opacity="1"><g transform="translate(208.714293, 244.063592)"><g><path d="M 19.203125 -53.3125 C 19.203125 -52.550781 18.851562 -52.171875 18.15625 -52.171875 L 14.5625 -52.171875 C 13.800781 -52.171875 13.421875 -51.820312 13.421875 -51.125 C 13.359375 -48.664062 13.296875 -45.59375 13.234375 -41.90625 C 13.179688 -38.226562 13.15625 -33.9375 13.15625 -29.03125 C 13.15625 -21.425781 13.210938 -15.269531 13.328125 -10.5625 C 13.441406 -5.851562 13.53125 -2.710938 13.59375 -1.140625 C 13.644531 -0.378906 13.265625 0 12.453125 0 L 8.0625 0 C 7.300781 0 6.921875 -0.378906 6.921875 -1.140625 C 6.984375 -2.710938 7.070312 -5.851562 7.1875 -10.5625 C 7.300781 -15.269531 7.359375 -21.425781 7.359375 -29.03125 C 7.359375 -33.9375 7.328125 -38.226562 7.265625 -41.90625 C 7.210938 -45.59375 7.160156 -48.664062 7.109375 -51.125 C 7.109375 -51.820312 6.726562 -52.171875 5.96875 -52.171875 L 2.453125 -52.171875 C 1.691406 -52.171875 1.3125 -52.550781 1.3125 -53.3125 L 1.3125 -56.90625 C 1.3125 -57.613281 1.691406 -57.96875 2.453125 -57.96875 L 18.15625 -57.96875 C 18.851562 -57.96875 19.203125 -57.613281 19.203125 -56.90625 Z M 19.203125 -53.3125 "/></g></g></g><g fill="#ffffff" fill-opacity="1"><g transform="translate(229.319549, 244.063592)"><g><path d="M 13.234375 -56.828125 C 13.234375 -57.585938 13.613281 -57.96875 14.375 -57.96875 L 18.859375 -57.96875 C 19.617188 -57.96875 19.96875 -57.585938 19.90625 -56.828125 C 19.84375 -55.242188 19.753906 -52.113281 19.640625 -47.4375 C 19.523438 -42.757812 19.46875 -36.625 19.46875 -29.03125 C 19.46875 -21.425781 19.523438 -15.269531 19.640625 -10.5625 C 19.753906 -5.851562 19.84375 -2.710938 19.90625 -1.140625 C 19.96875 -0.378906 19.617188 0 18.859375 0 L 14.375 0 C 13.613281 0 13.234375 -0.378906 13.234375 -1.140625 C 13.296875 -2.597656 13.382812 -5.328125 13.5 -9.328125 C 13.613281 -13.335938 13.671875 -18.554688 13.671875 -24.984375 C 13.671875 -25.742188 13.296875 -26.125 12.546875 -26.125 L 9.46875 -26.125 C 8.707031 -26.125 8.328125 -25.742188 8.328125 -24.984375 C 8.390625 -18.554688 8.460938 -13.335938 8.546875 -9.328125 C 8.640625 -5.328125 8.710938 -2.597656 8.765625 -1.140625 C 8.765625 -0.378906 8.382812 0 7.625 0 L 3.25 0 C 2.488281 0 2.109375 -0.378906 2.109375 -1.140625 C 2.160156 -2.710938 2.242188 -5.851562 2.359375 -10.5625 C 2.484375 -15.269531 2.546875 -21.425781 2.546875 -29.03125 C 2.546875 -36.625 2.484375 -42.757812 2.359375 -47.4375 C 2.242188 -52.113281 2.160156 -55.242188 2.109375 -56.828125 C 2.109375 -57.585938 2.488281 -57.96875 3.25 -57.96875 L 7.625 -57.96875 C 8.382812 -57.96875 8.765625 -57.585938 8.765625 -56.828125 C 8.710938 -55.421875 8.640625 -52.695312 8.546875 -48.65625 C 8.460938 -44.625 8.390625 -39.394531 8.328125 -32.96875 C 8.328125 -32.269531 8.707031 -31.921875 9.46875 -31.921875 L 12.546875 -31.921875 C 13.296875 -31.921875 13.671875 -32.269531 13.671875 -32.96875 C 13.671875 -39.394531 13.613281 -44.625 13.5 -48.65625 C 13.382812 -52.695312 13.296875 -55.421875 13.234375 -56.828125 Z M 13.234375 -56.828125 "/></g></g></g><g fill="#ffffff" fill-opacity="1"><g transform="translate(251.415384, 244.063592)"><g/></g></g><g fill="#ffffff" fill-opacity="1"><g transform="translate(262.375628, 244.063592)"><g><path d="M 16.140625 0 C 15.429688 0 15.050781 -0.347656 15 -1.046875 C 14.9375 -2.046875 14.859375 -3.609375 14.765625 -5.734375 C 14.679688 -7.867188 14.550781 -10.253906 14.375 -12.890625 C 14.320312 -13.648438 13.941406 -14.03125 13.234375 -14.03125 L 9.90625 -14.03125 C 9.207031 -14.03125 8.828125 -13.648438 8.765625 -12.890625 C 8.648438 -10.253906 8.535156 -7.867188 8.421875 -5.734375 C 8.304688 -3.609375 8.21875 -2.046875 8.15625 -1.046875 C 8.15625 -0.347656 7.804688 0 7.109375 0 L 2.453125 0 C 2.097656 0 1.804688 -0.128906 1.578125 -0.390625 C 1.347656 -0.660156 1.257812 -0.941406 1.3125 -1.234375 C 1.488281 -2.578125 1.722656 -4.707031 2.015625 -7.625 C 2.304688 -10.550781 2.625 -13.867188 2.96875 -17.578125 C 3.320312 -21.296875 3.648438 -25.050781 3.953125 -28.84375 C 4.242188 -32.644531 4.503906 -36.472656 4.734375 -40.328125 C 4.960938 -44.191406 5.132812 -47.613281 5.25 -50.59375 C 5.375 -53.570312 5.46875 -55.675781 5.53125 -56.90625 C 5.582031 -57.664062 5.960938 -58.046875 6.671875 -58.046875 L 16.578125 -58.046875 C 17.273438 -58.046875 17.625 -57.664062 17.625 -56.90625 C 17.6875 -55.675781 17.789062 -53.570312 17.9375 -50.59375 C 18.082031 -47.613281 18.253906 -44.191406 18.453125 -40.328125 C 18.660156 -36.472656 18.910156 -32.644531 19.203125 -28.84375 C 19.492188 -25.050781 19.8125 -21.296875 20.15625 -17.578125 C 20.507812 -13.867188 20.847656 -10.550781 21.171875 -7.625 C 21.492188 -4.707031 21.710938 -2.578125 21.828125 -1.234375 C 21.890625 -0.941406 21.800781 -0.660156 21.5625 -0.390625 C 21.332031 -0.128906 21.070312 0 20.78125 0 Z M 10.4375 -20.078125 L 12.796875 -20.078125 C 13.554688 -20.078125 13.9375 -20.457031 13.9375 -21.21875 C 13.820312 -22.675781 13.71875 -24.117188 13.625 -25.546875 C 13.539062 -26.984375 13.472656 -28.40625 13.421875 -29.8125 C 13.242188 -32.914062 13.019531 -36.4375 12.75 -40.375 C 12.488281 -44.320312 12.242188 -47.992188 12.015625 -51.390625 C 12.015625 -51.679688 11.867188 -51.828125 11.578125 -51.828125 C 11.285156 -51.828125 11.140625 -51.679688 11.140625 -51.390625 C 10.898438 -47.992188 10.660156 -44.320312 10.421875 -40.375 C 10.191406 -36.4375 9.960938 -32.914062 9.734375 -29.8125 C 9.671875 -28.40625 9.59375 -26.984375 9.5 -25.546875 C 9.414062 -24.117188 9.347656 -22.675781 9.296875 -21.21875 C 9.234375 -20.457031 9.613281 -20.078125 10.4375 -20.078125 Z M 10.4375 -20.078125 "/></g></g></g><g fill="#ffffff" fill-opacity="1"><g transform="translate(285.699021, 244.063592)"><g/></g></g><g fill="#ff3131" fill-opacity="1"><g transform="translate(296.662917, 244.063592)"><g><path d="M 11.046875 -30.78125 C 11.046875 -31.539062 11.425781 -31.921875 12.1875 -31.921875 L 18.9375 -31.921875 C 19.695312 -31.921875 20.078125 -31.539062 20.078125 -30.78125 L 20 -9.46875 C 20 -6.601562 19.335938 -4.234375 18.015625 -2.359375 C 16.703125 -0.492188 14.378906 0.4375 11.046875 0.4375 C 8.828125 0.4375 7.054688 -0.0390625 5.734375 -1 C 4.421875 -1.96875 3.488281 -3.210938 2.9375 -4.734375 C 2.382812 -6.253906 2.109375 -7.832031 2.109375 -9.46875 C 2.109375 -9.46875 2.117188 -10.019531 2.140625 -11.125 C 2.171875 -12.238281 2.21875 -13.628906 2.28125 -15.296875 C 2.34375 -16.960938 2.398438 -18.71875 2.453125 -20.5625 C 2.515625 -22.40625 2.554688 -24.085938 2.578125 -25.609375 C 2.609375 -27.128906 2.625 -28.269531 2.625 -29.03125 C 2.625 -29.726562 2.609375 -30.847656 2.578125 -32.390625 C 2.554688 -33.941406 2.515625 -35.625 2.453125 -37.4375 C 2.398438 -39.25 2.34375 -41.003906 2.28125 -42.703125 C 2.21875 -44.398438 2.171875 -45.785156 2.140625 -46.859375 C 2.117188 -47.941406 2.109375 -48.484375 2.109375 -48.484375 C 2.109375 -51.347656 2.765625 -53.71875 4.078125 -55.59375 C 5.390625 -57.46875 7.710938 -58.40625 11.046875 -58.40625 C 13.328125 -58.40625 15.109375 -57.921875 16.390625 -56.953125 C 17.679688 -55.984375 18.601562 -54.738281 19.15625 -53.21875 C 19.71875 -51.707031 20 -50.128906 20 -48.484375 L 20 -40.421875 C 20 -39.660156 19.644531 -39.28125 18.9375 -39.28125 L 14.46875 -39.28125 C 13.644531 -39.28125 13.265625 -39.691406 13.328125 -40.515625 L 13.671875 -48.484375 C 13.671875 -48.484375 13.671875 -48.539062 13.671875 -48.65625 C 13.671875 -48.78125 13.671875 -48.957031 13.671875 -49.1875 C 13.671875 -49.769531 13.554688 -50.484375 13.328125 -51.328125 C 13.097656 -52.179688 12.367188 -52.609375 11.140625 -52.609375 C 9.910156 -52.609375 9.148438 -52.285156 8.859375 -51.640625 C 8.566406 -51.003906 8.421875 -50.1875 8.421875 -49.1875 C 8.421875 -49.132812 8.421875 -48.363281 8.421875 -46.875 C 8.421875 -45.382812 8.421875 -43.453125 8.421875 -41.078125 C 8.421875 -38.710938 8.421875 -36.125 8.421875 -33.3125 C 8.421875 -30.507812 8.421875 -27.703125 8.421875 -24.890625 C 8.421875 -22.085938 8.421875 -19.53125 8.421875 -17.21875 C 8.421875 -14.914062 8.421875 -13.046875 8.421875 -11.609375 C 8.421875 -10.179688 8.421875 -9.46875 8.421875 -9.46875 C 8.421875 -9.46875 8.421875 -9.410156 8.421875 -9.296875 C 8.421875 -9.179688 8.421875 -9.003906 8.421875 -8.765625 C 8.421875 -8.179688 8.535156 -7.476562 8.765625 -6.65625 C 9.003906 -5.84375 9.734375 -5.4375 10.953125 -5.4375 C 12.179688 -5.4375 12.941406 -5.753906 13.234375 -6.390625 C 13.523438 -7.035156 13.671875 -7.828125 13.671875 -8.765625 C 13.671875 -9.054688 13.671875 -9.242188 13.671875 -9.328125 C 13.671875 -9.421875 13.671875 -9.46875 13.671875 -9.46875 L 13.421875 -24.984375 C 13.421875 -25.742188 13.039062 -26.125 12.28125 -26.125 L 12.1875 -26.125 C 11.425781 -26.125 11.046875 -26.476562 11.046875 -27.1875 Z M 11.046875 -30.78125 "/></g></g></g><g fill="#ff3131" fill-opacity="1"><g transform="translate(318.934121, 244.063592)"><g><path d="M 14.375 -57.96875 L 18.859375 -57.96875 C 19.617188 -57.96875 20 -57.585938 20 -56.828125 L 19.546875 -10.4375 C 19.546875 -8.507812 19.296875 -6.722656 18.796875 -5.078125 C 18.304688 -3.441406 17.445312 -2.113281 16.21875 -1.09375 C 14.988281 -0.0703125 13.265625 0.4375 11.046875 0.4375 C 8.828125 0.4375 7.101562 -0.113281 5.875 -1.21875 C 4.644531 -2.332031 3.78125 -3.722656 3.28125 -5.390625 C 2.789062 -7.054688 2.546875 -8.738281 2.546875 -10.4375 L 2.109375 -56.828125 C 2.109375 -57.585938 2.488281 -57.96875 3.25 -57.96875 L 7.71875 -57.96875 C 8.476562 -57.96875 8.859375 -57.585938 8.859375 -56.828125 C 8.796875 -54.773438 8.707031 -49.945312 8.59375 -42.34375 C 8.476562 -34.75 8.421875 -24.113281 8.421875 -10.4375 C 8.421875 -10.4375 8.421875 -10.375 8.421875 -10.25 C 8.421875 -10.132812 8.421875 -9.960938 8.421875 -9.734375 C 8.421875 -9.328125 8.460938 -8.769531 8.546875 -8.0625 C 8.640625 -7.363281 8.875 -6.734375 9.25 -6.171875 C 9.632812 -5.617188 10.234375 -5.34375 11.046875 -5.34375 C 12.273438 -5.34375 13.035156 -5.828125 13.328125 -6.796875 C 13.617188 -7.765625 13.765625 -8.742188 13.765625 -9.734375 C 13.765625 -9.960938 13.765625 -10.132812 13.765625 -10.25 C 13.765625 -10.375 13.765625 -10.4375 13.765625 -10.4375 C 13.765625 -24.113281 13.691406 -34.75 13.546875 -42.34375 C 13.398438 -49.945312 13.328125 -54.773438 13.328125 -56.828125 C 13.265625 -57.585938 13.613281 -57.96875 14.375 -57.96875 Z M 14.375 -57.96875 "/></g></g></g><g fill="#ff3131" fill-opacity="1"><g transform="translate(341.11765, 244.063592)"><g><path d="M 20.953125 -57.96875 C 21.710938 -57.96875 22.09375 -57.585938 22.09375 -56.828125 C 22.039062 -55.242188 21.953125 -52.097656 21.828125 -47.390625 C 21.710938 -42.691406 21.65625 -36.539062 21.65625 -28.9375 C 21.65625 -21.394531 21.710938 -15.269531 21.828125 -10.5625 C 21.953125 -5.851562 22.039062 -2.710938 22.09375 -1.140625 C 22.09375 -0.378906 21.710938 0 20.953125 0 L 14.125 0 C 13.414062 0 13.035156 -0.347656 12.984375 -1.046875 L 9.03125 -42.359375 C 9.03125 -42.648438 8.882812 -42.796875 8.59375 -42.796875 C 8.300781 -42.796875 8.15625 -42.648438 8.15625 -42.359375 L 8.765625 -1.140625 C 8.765625 -0.378906 8.414062 0 7.71875 0 L 3.25 0 C 2.488281 0 2.109375 -0.378906 2.109375 -1.140625 C 2.160156 -2.710938 2.242188 -5.851562 2.359375 -10.5625 C 2.484375 -15.269531 2.546875 -21.425781 2.546875 -29.03125 C 2.546875 -36.625 2.484375 -42.757812 2.359375 -47.4375 C 2.242188 -52.113281 2.160156 -55.242188 2.109375 -56.828125 C 2.109375 -57.585938 2.488281 -57.96875 3.25 -57.96875 L 10.078125 -57.96875 C 10.722656 -57.96875 11.078125 -57.644531 11.140625 -57 L 15.078125 -15.609375 C 15.140625 -15.316406 15.316406 -15.171875 15.609375 -15.171875 C 15.898438 -15.171875 16.046875 -15.347656 16.046875 -15.703125 L 15.34375 -56.828125 C 15.34375 -57.585938 15.722656 -57.96875 16.484375 -57.96875 Z M 20.953125 -57.96875 "/></g></g></g></svg>